/* XPM */
static char *result[] = {
/* columns rows colors chars-per-pixel */
"80 80 125 2 ",
"   c #372A17",
".  c #3B2E1B",
"X  c #3D301D",
"o  c #063731",
"O  c #0C3632",
"+  c #033C35",
"@  c #0B3C36",
"#  c #063D3A",
"$  c #0C3C39",
"%  c #153F3B",
"&  c #423522",
"*  c #034136",
"=  c #034239",
"-  c #0B433C",
";  c #664B16",
":  c #694B16",
">  c #6B4E1C",
",  c #6E511D",
"<  c #71511E",
"1  c #55452E",
"2  c #6E5220",
"3  c #715423",
"4  c #7E5E2B",
"5  c #6D5736",
"6  c #7E612D",
"7  c #7E6230",
"8  c #0E4743",
"9  c #0C4A44",
"0  c #144542",
"q  c #194745",
"w  c #124B44",
"e  c #1B4E47",
"r  c #174E4B",
"t  c #194D48",
"y  c #12504B",
"u  c #165753",
"i  c #1A5551",
"p  c #175A53",
"a  c #1D5A53",
"s  c #1F5D58",
"d  c #20534C",
"f  c #235B54",
"g  c #295D55",
"h  c #255D59",
"j  c #295F59",
"k  c #1D625B",
"l  c #296156",
"z  c #23625C",
"x  c #2B625C",
"c  c #2D695F",
"v  c #30655F",
"b  c #1D6561",
"n  c #246561",
"m  c #2B6661",
"M  c #256A65",
"N  c #2B6C64",
"B  c #276E68",
"V  c #2C6E6A",
"C  c #306762",
"Z  c #326B65",
"A  c #336D6A",
"S  c #2D7166",
"D  c #2B716C",
"F  c #33736D",
"G  c #317471",
"H  c #347976",
"J  c #3E7C75",
"K  c #3D7E79",
"L  c #437D76",
"P  c #417E7A",
"I  c #826432",
"U  c #8F713D",
"Y  c #91713B",
"T  c #937442",
"R  c #987A44",
"E  c #967748",
"W  c #9D7D49",
"Q  c #9F7F50",
"!  c #A17F4A",
"~  c #3A8076",
"^  c #35847E",
"/  c #3C837D",
"(  c #3D897F",
")  c #44837D",
"_  c #49847D",
"`  c #44897E",
"'  c #FF8F00",
"]  c #FFD800",
"[  c #9E824E",
"{  c #9E8252",
"}  c #A2834D",
"|  c #A38552",
" . c #AA8652",
".. c #A78A57",
"X. c #AC8B55",
"o. c #A58959",
"O. c #AD8D5A",
"+. c #B18F5A",
"@. c #AE915C",
"#. c #B09057",
"$. c #B3935D",
"%. c #B9965E",
"&. c #AE8F60",
"*. c #AF9363",
"=. c #B39563",
"-. c #B99662",
";. c #B79964",
":. c #BC9B65",
">. c #BD9E68",
",. c #BFA16C",
"<. c #C19E69",
"1. c #C0A067",
"2. c #C2A16B",
"3. c #3F8680",
"4. c #3E8B86",
"5. c #438582",
"6. c #498684",
"7. c #448B84",
"8. c #4B8A85",
"9. c #468D89",
"0. c #4C8B89",
"q. c #459187",
"w. c #43908A",
"e. c #FFFF97",
"r. c white",
/* pixels */
"$.#.#.>.<.<.:.<.%.>.>.>.:.,.$.Y $.#.#.:.1.<.:.1.$.<.:.>.:.>.$.Y %.#.#.>.1.1.%.1.$.1.<.>.,.>.$.Y %.#.#.,.<.<.:.<.%.<.>.>.>.>.$.Y %.+.#.:.1.1.;.1.%.<.>.>.:.>.$.Y ",
"$.$.$.#.Y Q X.%.#.:.O.X.;.$.}  .$.$.%.O.Y } X.%.$.:.#.X.;.=.} ..$.$.$.#.Y } #.%.+.-.X.X.;.$.} ..$.$.$.#.Y Q #.$.$.%.@.X.;.$.} X.$.$.$.+.Y } +.$.#.:.X.X.;.=.} ..",
"@.%.#.>.X.+.=.!  .W } $...;.;.U O.-.+.<.X.O.=.W  .W } @. .;.-.U @.:.#.:.O.@.=.[ } W | $...;.;.U @.%.#.,.X.+.=.W } W } #...;.=.U  .-.X.<.X.O.=.! } [ } $.X.;.-.U ",
"Y I 6 T T I > < 6 I : I 3 , 6 , Y 4 I T R I : < 6 I : I 3 > I 3 U 6 6 T R 6 : , I I : I 3 : I , U 6 6 Y T I > < I I : I 3 : I , Y I I T R I : < 6 I : I 3 > 7 3 ",
"-.2. .-.<.<.<.! >.<.;.$.#.O.W ;.<.<. .-.<.<.<.} >.2.:.=.O.+.W ;.-.<. .-.<.<.<.! >.2.;.=.+.O.W ;.;.2. .-.<.<.<.! >.<.:.=.@.#.W ;.<.<.Q +.<.<.<.} >.2.:.=.O.+.W -.",
"X.+.+.-.! O.! T ! +.O.:.$.;.:.O.X.+.+.-.! X.! T ! @.O.;.$.-.;.O.X.+.+.-.!  .! R W O.+.;.$.=.:.@.X.+.+.-.! O.! T ! +.O.;.$.;.:.+.X.+.%.<.! X.! T ! +.O.;.$.-.;.O.",
" ...O.=.O.&.&.] ' ;.*.*.o.{ { { Q o.&.=.O.*.$.T =.=.*.*.o.{ { { o. .&.=.O.&.&.] ' ;.*.*.o.{ [ {  .X.O.=.O.&.&.E ;.;.*.*.o.{ Q { Q o.&.=.+.*.&.] ' =.*.*.o.{ { { ",
"> > I I T 4 3 e.r.> 7 7 I T 7 > > > I I T 4 < > 2 > 7 7 I T 7 > > > I I T 4 3 e.r.> 7 7 I T 6 , > > I I T 4 3 > 2 > 7 7 I T 7 > > > I I T 4 3 e.r.> 7 7 I T 7 > ",
"%.<.<.;.X.+.<.W 5 >.:.,.,.%.%.} %.:.<.-. .$.1.>.1.1.,.,.1.%.$...-.-.<.-. .$.<.! 5 <.:.<.,.%.%.} %.<.1.;. .#.<.>.;.>.,.,.,.%.%.} %.:.<.%. .$.<.} 5 1.1.,.<.<.$.} ",
"%.#.#.%.%.%.X.E 1 } #.}  .} X.Y %.#.$.%.%.%.X.} [ } X.} X.} ..Y %.+.$.%.%.$.#.T 1 } #.}  .[ X.Y %.#.$.%.%.%.X.} } | X.} } } X.Y $.#.%.%.%.%. .E 1 [ #.}  .} ..U ",
":.%.$...} } | Q & @.@.@.[ ..@.| :.;.#...} } } [ X.#.@.@.[ X.@.{ ;.-.$. .[ } } Q & @.@.X.[ @.@.| ;.%.#.X.} } } [ O.@.@.@.[ ..@.| :.;.#...} } } Q X #.@.@.[  .@.o.",
", : 4 R T 4 2 W 1 4 T 7 7 ; , > , : 6 R Y 6 , , ; 6 U I 6 ; 2 , < : I R T 4 2 Q 1 6 T I 7 ; 2 > < : 6 W Y 6 , > > 6 T 7 6 ; , , < : 6 R Y 6 , { 1 6 U I 6 ; 2 > ",
">. .#.2.:.;.$.E 1 2.,.} ,.$.,.,.>. .$.>.:.;.$.W ,.,.,.[ >.$.,.>.>...#.>.:.;.$.E 1 ,.>.} >.$.,.>.>...+.>.;.;.$.} ,.2.>.} ,.$.,.,.>. .#.>.;.;.=.E 1 ,.,.[ >.$.,.>.",
"X.X.:.$.W | +.5 X ;.$.O.$.@.@.#.X.O.-.=.W } @.{ [ %.%.X.=.O.O.O.#. .-.=.! } O.5 X $.=.O.=.$.O.O.X.X.;.$.! | +.| W ;.=.O.$.@.X.#.O.X.:.=.} } O.5 X ;.#.#.=.@.O.O.",
"$.! | =.-.O.{ Q . ;.O.{ o.{ [ [ $.! } =.=.@.Q T >.;.#.[ o.[ | } $.! | $.-.O.{ Q X ;.@.{ | { | { $.! } =.=.O.W T :.;.@.{ o.[ { [ =.! | $.=.O.{ W X ;.@.} | { | { ",
"> I 6 > > 7 T 5   I 2 7 > 2 > 3 > I I > > I T E T 7 , I 2 2 > 3 > I I > , 7 T 5   7 2 I 2 2 > 2 > I I , > 7 T E T I 2 7 > 3 , 3 > 6 I > < I T 5   7 , I 2 2 > 3 ",
"$.#.#.1.1.1.:.1.%.>.>.>.>.>.$.Y $.#.#.>.1.1.%.1.%.<.>.>.>.>.$.Y %.#.#.:.1.<.%.<.$.,.,.,.:.,.$.Y $.#.#.>.<.<.:.1.%.1.<.>.>.>.$.Y %.+.#.>.1.1.:.1.$.1.<.:.>.>.$.Y ",
"$.=.$.X.Y } X.%.#.-.O.X.;.$.} ..$.%.$.#.Y } #.%.+.;.X.X.;.$.} ..$.$.%.X.Y } #.=.#.;.#.X.%.%.} ..$.$.$.#.Y | X.$.$.;.O.X.;.$.} X.$.+.$.+.Y } +.$.$.;.#.X.;.@.} ..",
"$.;.+.>.X.$.;.W } W | @...:.;.U @.;.#.,.X.O.=.[ } W | +.X.;.;.U @.;.X.>.X.$.-.W  .W } @...;.$.U @.;.#.>. .+.-.! } W } #.X.;.=.U X.-.+.<.X.O.=.W  .W } @.X.;.-.U ",
"U 4 4 T E 6 : < I I : I 3 : I , Y 6 6 Y R I : , I I : I 3 : I , Y 6 I T E 4 > 3 6 I ; I 2 , I < Y 6 4 E T I > < I I : I 3 : I , Y 4 I T R I : < 6 I : I 3 > I 3 ",
"-.<. .-.<.<.<.! >.2.:.=.+.O.W ;.-.<. .-.<.<.<.! >.2.:.=.O.#.[ ;.;.2. .-.<.<.<.! >.2.;.$.@.@.W ;.-.2. .-.<.<.<.! >.<.;.=.@.O.W ;.<.<.Q +.<.<.<.} >.2.:.=.X.O.W ;.",
"X.+.+.-.! X.! R W *.O.-.$.=.:.@.+.+.+.-.! X.! R [ O.O.;.$.=.;.@.#.X.$.-.W X.! T } X.+.;.@.,.;.O.X.#.&.-.! X.! T ! +.+.;.$.;.:.+.X.+.%.<.! X.! R ! +.O.=.=.;.;.O.",
"o. .&.*.O.&.+.E =.;.*.*.o.{ [ { Q O.&.=.O.&.&.T ;.*.=.*.o.{ [ {  .o.X.-.&.&.&.E *.;.=.=...{ { [  . .O.*.&.&.&.E ;.;.*.*.o.{ { { Q o.&.=.O.*.@.T =.;.*.*.o.{ Q { ",
"> > I I T 4 3 > 2 > 7 7 I T 6 , > > I I T 4 3 > 2 > 7 7 I T 6 > > > I I T 7 2 > 2 > 7 4 7 T 7 > > > I I T 4 3 > 2 > 7 7 I T 7 > > > I I T 4 < > 2 , 7 7 I T 7 > ",
"-.-.<.-. .$.1.:.<.%.<.<.,.%.%.} -.-.<.-.X.$.<.:.<.%.<.<.,.%.%. .-.-.<.-. .$.<.<.>.>.:.,.:.:.$. .%.:.2.%. .#.1.>.;.>.,.:.,.,.$.} %.:.<.%. .$.<.>.:.1.,.,.<.:.%.} ",
"%.+.%.%.%.$.#.} } } #.}  .[ X.Y %.+.$.%.%.$.#.} } } #.}  .[  .Y %.+.$.%.%.%. .} [ } #.}  .} X.Y %.#.$.$.%.%.X.} } | #.} } }  .Y %.#.$.%.%.%.X.} } [ #.}  .} ..U ",
":.-.+.X.[ } } { @.$.#.X.[ @.*.{ :.%.+.X.} [ } { @.$.#...[ @.@.| :.-.$...} } } } @.@.@.O.} X.@.[ :.%.$...} } } [ O.@.@.@.[ ..#.| :.;.@.X.} } } [ #.@.@.#.[ X.@.o.",
", : 4 R T 6 , , ; 6 U I 6 ; 2 , > : I R Y 6 2 , > 6 U I 7 ; 2 > , : 4 R U 6 < : ; 6 T I 6 ; , , < : 6 W Y 6 , > > 6 U I 6 ; , , , : 6 R Y 4 2 , ; 6 U 7 6 ; 3 ; ",
">.X.#.<.:.;.$.W ,.,.>.} ,.$.2.>.<...+.>.:.;.$.W ,.,.>.} ,.$.,.>.>.X.#.>.,.%.$.[ <.<.,.| >.$.,.>.>. .#.2.:.=.$.[ ,.2.>.} ,.$.,.,.>.X.O.>.;.;.$.[ ,.,.,.} >.$.,.>.",
"X.X.;.=.! } O.} [ ,.=.O.=.@.O.O.X. .;.$.! } O.} [ $.=.O.=.@.O.O.X.X.:.$.[ } #.} W =.=.O.=.O.O.O.X.X.:.$.! | +. .W ;.=.O.$.@.@.#.X.X.:.=.} } O.{ [ $.$.X.=.@.O.O.",
"$.Q | =.=.O.} T $.;.@.{ ..W | { =.! | $.=.O.} T ,.;.@.| ..{ | { *.! } =.=.@.[ U ;.;.&.| ..[ | Q *.| | $.=.O.Q T :.;.&.{ o.[ [ [ $.! } $.=.O.Q T >.;.#.[ o.{ | { ",
"> I 4 > , I T E U 7 2 7 > 3 > 2 , I I > , I T E U 6 > 7 > 2 > 2 > 7 I > , 7 T E T I > I > 2 > 3 > 7 6 , > 7 T T T I > 7 , 3 > 3 > I I > , I T E T 7 , I 2 2 > 2 ",
"$.#.#.:.2.1.:.<.#.,.:.,.,.,.$.Y $.#.#.:.2.1.:.<.%.:.>.>.,.,.$.Y $.$.#.>.1.1.%.1.%.<.>.>.,.:.$.Y %.#.#.,.<.<.;.<.$.1.>.>.>.:.$.Y $.#.#.:.1.1.:.1.$.1.:.>.>.>.$.Y ",
"$.$.%.O.Y } X.=.$.,.X.X.%.$.} ..$.$.%.O.Y } X.$.@.:.#.@.%.$.} ..$.$.%.X.Y } #.%.+.;.X.X.%.$.} ..$.%.%.X.Y ! X.%.#.:.O.X.;.$.} X.$.$.-.O.Y } +.$.$.:.X.X.=.$.} X.",
"#.:.#.:.X.$.-.W  .[ } $...;.=.Y $.;.X.:.X.$.-.! } [ } @.X.;.=.Y $.;.@.>.X.O.=.[ | W [ $...;.;.U @.%.#.,.O.+.-.W  .W } $...;.=.U  .-.+.-.X.+.=.W } [ } $...;.-.U ",
"Y 6 I Y T I > < 4 I : I 3 : I , Y 6 I T R 4 > < I I : I 3 ; I , Y 4 4 T R I : , 4 I > I 3 , 6 , U 6 6 U T I > < 6 I : I 3 , I , Y I I T R I : < I I : I 3 > I 3 ",
"-.2. .-.<.<.<.! :.2.;.$.@.X.[ ;.-.2. .-.<.<.<.Q :.2.;.$.@.#.W ;.<.<. .-.<.<.<.! >.2.:.=.O.+.W ;.;.2. .-.<.<.<.! >.2.:.=.#.O.W ;.-.<. .-.<.<.:.} >.2.:.=.O.O.W ;.",
"X.+.+.-.W X.! T [ X.#.;.@.,.;.O.X.+.+.-.W o.! T ! #.O.-.@.,.;.O. .+.+.-.!  .! R W *.O.-.$.=.:.@.X.#.+.-.! O.! T ! +.O.;.$.;.:.O.+.+.+.<.! X.! R W +.O.;.$.-.;.O.",
" .o.O.=.&.&.&.E *.;.=.=.o.{ [ [  .o.O.=.&.&.&.T ;.;.=.*.o.{ [ {  .o.&.*.O.&.&.E =.;.*.*.o.{ [ {  ...O.=.O.&.&.E ;.;.*.*.o.{ Q { Q o.&.=.O.*.@.T -.=.*.*.o.{ { { ",
"> > I I T 7 2 > 2 > 7 4 7 T 7 , > > I I T 4 3 > 2 > 7 6 7 T 7 > > > I I T 4 3 > 2 > 7 7 I T 6 , > > I I T 4 3 > 2 > 7 7 I T 7 > > > I I T 4 < , 2 > 7 7 I T 7 > ",
"-.-.<.;.X.+.<.<.,.:.:.,.1.%.$. .-.-.<.<. .+.<.<.,.:.:.1.1.:.$. .-.-.<.-.X.$.<.<.:.<.%.1.,.%.%.} %.:.2.%. .#.1.>.;.>.,.>.,.%.%. .%.:.<.%. .$.<.:.:.1.1.,.<.<.$.} ",
"%.+.$.%.%.%.X.} [ [ #.} X.} X.Y %.+.#.%.%.%. .} [ } #.}  .} X.Y %.+.$.%.%.$.X.} } } #.}  .[ X.Y %.#.$.$.%.%.X.} } | #.} } }  .Y %.+.$.%.%.%.X.} } [ #.}  .} ..U ",
":.-.$.X.} } } } @.@.@.O.[ ..#.[ :.-.$...} } } } @.@.@.O.[ X.@.[ :.%.+. .} } } { @.$.@.X.[ @.@.| :.%.$...} } } { O.@.@.@.[ ..@.| :.;.@.X.} ! } [ #.@.@.@.[  .@.o.",
", : 4 R Y 6 < : > 6 T 7 6 ; , , , : 6 R Y 6 , > ; 6 T I 6 ; , , , : I R Y 6 2 > > 6 U I 7 ; 2 > < : 6 W Y 6 , > > 6 U 7 7 ; , , , : 6 R Y I , , ; 6 U I 6 ; 2 > ",
">...$.>.;.;.$.[ <.<.>.| >.=.,.>.>.X.#.>.:.%.$.[ ,.<.>.| >.$.,.:.>...#.>.:.:.$.W ,.,.>.} ,.$.,.>.>. .$.,.:.-.$.} ,.2.,.} ,.$.,.,.>. .$.>.;.:.#.[ ,.,.1.[ >.$.,.>.",
"X.X.;.$.} } #.} Q =.-.O.=.+.O.O.X.X.:.$.[ } #.} ! =.=.O.=.@.@.O.#. .-.=.W } O.} [ ;.$.O.=.@.O.O.X.X.;.$.! | O.| W ;.=.X.$.@...#.X.O.;.$.W | #.{ [ $.#.#.=.@.O.O.",
"+.} | =.-.O.} T ;.;.&.| ..W | { *.W | =.=.O.} T ;.=.&.| ..W | } $.} | =.-.O.| T ;.;.@.| | { | { *.} } $.=.O.W T :.;.@.{ o.[ [ { $.! } =.=.@.Q T >.;.@.} | { | { ",
"> I 7 > > 6 T E T I > I > 2 > 3 > I 7 > , 7 T R T I > I 2 2 > 3 > I 4 > 2 7 T E U 7 , I 2 2 > 2 > I 6 , > 7 T E T I 2 7 > 3 , 3 > I I > > I T E T 7 , I 2 2 > 3 ",
"$.$.#.>.<.<.%.1.$.1.>.>.>.:.$.Y %.+.#.>.1.<.;.<.%.<.>.:.>.>.$.Y %.#.#.:.1.<.%.<.%.,.>.,.:.,.$.Y $.#.#.>.<.<.:.1.%.<.>.<.>.>.$.Y $.#.#.>.1.1.;.<.%.1.>.>.>.>.$.Y ",
"$.$.%.X.Y  .X.;.#.:.O.X.;.$.} X.$.+.$.+.Y } #.$.#.:.#.X.=.$.} ..$.$.%.X.Y } #.=.#.:.X.X.%.$.} ..$.$.$.#.U ! X.$.$.;.O.X.;.$.} X.$.+.-.O.Y } #.$.#.:.X.X.;.@.} ..",
"#.;.#.>. .+.=.!  .W } $.| ,.=.U X.-.X.<.X.$.=.W  .W } @...;.=.T @.;.X.>.X.$.-.!  .R } @...;.;.U #.;.#.>.O.+.-.! } W } #.X.;.=.U O.-.+.:.X.O.=.!  .W } $.X.;.-.U ",
"Y 6 4 T T I > < 6 I : I 3 : I , Y I I T R 4 > , 6 I : I 3 > I 3 Y 6 I T E 4 > < 6 I ; I 3 , 6 , Y 6 4 E T I > < I I : I 3 : I , Y 4 I T R I : < 4 I > I 3 > I 3 ",
"-.2. .-.<.<.<.! >.2.:.=.@.@.W ;.<.<.Q +.<.<.<.} >.2.;.=.O.O.! -.;.<. .-.<.<.<.Q ,.2.;.$.@.X.[ ;.-.2. .-.<.<.<.! >.<.:.$.@.O.W ;.-.<. .-.<.<.<.} :.2.:.=.X.O.W ;.",
"+.+.&.-.! +.! T ! O.O.-.$.;.;.#.X.+.%.<.! X.! R } O.O.-.&.;.;.O.#.#.+.-.W o.! T } X.+.;.$.,.;.@.X.+.&.-.! X.! T ! +.O.;.$.;.:.+.X.+.%.-.! X.! E ! @.O.=.=.;.;.O.",
"|  .O.*.O.&.&.E ;.;.*.*.o.{ Q | Q o.&.=.O.*.@.T =.;.*.*.X.{ { {  .o.O.=.&.&.&.T ;.;.=.*...{ { [ .. .O.*.+.&.&.E ;.;.*.*.o.{ { { | o.&.=.O.&.$.T =.;.*.*.o.{ Q { ",
"> > I I T 4 3 > 2 > 7 7 I T 7 > > > I I T 4 < > 2 > 7 7 I T 7 > > > I I T 4 3 > 2 > 7 6 7 T 7 > > > I I T 4 3 > 2 > 7 7 I T 7 > > > I I T 4 < > 2 , 7 7 I T 7 > ",
"%.<.1.;. .#.<.>.;.>.:.,.:.,.$.} %.:.<.%. .$.1.>.,.:.,.,.,.:.$. .-.-.<.:.X.+.<.<.,.:.:.,.%.,.$. .%.<.1.:.X.#.1.:.>.>.,.,.:.%.%. .%.:.<.%. .$.1.>.1.1.,.,.1.:.%.} ",
"#.#.$.%.%.%.X.} } | #.}  .} X.Y $.+.%.%.%.%.X.} ! } #.}  .} ..Y %.+.#.%.%.%.X.! [ [ #.}  .} X.Y %.#.$.$.%.%.X.} } { #.}  .}  .Y %.#.$.%.%.%.X.} [ } #.}  .} ..Y ",
">.;.$.X.} } } { O.@.@.@.[ ..#.} :.;.$.X.} } } [ #.@.@.#.[ X.@.| :.-.#...} } } } @.@.@.O.[ X.#.[ ;.%.#.X.} } [ [ O.@.@.@.[ ..@.[ :.;.#...} } } [ #.#.@...[ X.*.| ",
"< : 6 R Y 6 , , > 6 T 7 7 ; , , , ; 6 R Y 4 , , ; 6 U 7 6 ; 2 > , : I R Y 6 < > > 6 T 7 6 ; , , < : I R Y 4 , , ; 6 T 7 7 ; 3 > < : 6 R Y 6 , , ; 6 T 7 6 ; 2 > ",
"<...#.1.:.-.$.} ,.,.,.} ,.$.,.,.>. .+.>.;.;.$.[ ,.,.1.[ >.=.,.>.<. .@.>.:.%.$.[ <.<.>.| :.=.,.>.>...#.2.:.-.$.[ ,.,.:.} ,.$.,.,.>. .$.<.:.;.$.W ,.,.,.} >.$.,.>.",
" .X.;.$.! | O.} W ;.=.O.@.@.X.#.O.X.;.$.} } O.{ [ $.$.#.=.O.O.O.X.X.;.$.[ } #.} W =.-.O.=.$.O.X. .X.;.$.W | O. .W %.;.@.$.@.#...X.O.=.=.W } @.{ [ $.$.X.=.O.O.O.",
"+.} } =.=.O.Q T :.;.O.{ o.[ { { =.} } $.=.O.Q T >.;.#.[ o.Q | } =.[ | =.-.O.} T ;.;.&.| | { | { =.! } =.=.O.Q T ;.;.@.{ o.{ [ [ $.! } =.=.@.Q T >.;.@.} o.{ | { ",
"> 6 I < > 7 T T T I , 7 > 3 , 3 > 6 I , > I T E T 7 , I > 2 > 3 > I 7 > 2 7 T T T I > I > 3 > 3 > I I > > 7 T E T I , 7 , 3 > 3 > I I > > I T E T 7 , I > 2 > 3 ",
"4.M 3.9./ q.( 4.^ 4.w.4.9.5.5.u 3.b 3.w.( q.( 7.^ 4.9.9.7.6.) u 5.b 3.9.3.w.( 4.^ 4.q.7.7.5.) u 3.b ^ 9.( q.( 7.^ 4.w.4.9.5.5.u 7.b ^ 9.( q.( 4.^ 4.w.4.9.5.) p ",
"H 9.V M k k S / / 5.B G / P z h H 9.D M k s S / / 3.B G 3.K z z H 9.D M k k D / / ( B G ) ) z z H 9.D n k k S / / 5.B G / P z s H 9.D n k k S / / 5.B G P ) z s ",
"G / H ) C L N l h h m m C 6.L s G 3.J ) N L C j z h x m Z _ L f G / J _ m L C h j h z m m _ P f G ) J ) Z L N l h h m m Z _ L s G 3.J ) Z L C l h h m m m 6.L h ",
"u 9 r i h t @ # 0 r # 8 - # q o u 9 w i h t @ # w r # 8 8 + w + u 9 w i z t @ @ 0 r # w - # t + p 9 y i h t @ # 0 r # 8 - # q o u 9 r i h t @ # 0 r # 8 - # q o ",
"3.4.k 7.6._ 0.z 8.8.6.3.B V p 7.^ 4.b 5.6.6.0.h 6.0.0./ M B a 7.^ 4.b 7.6._ 0.z 0.0.9.) M V p 7.3.7.k 7.5.6.0.h 6.0.0.3.B V a 7.^ 9.k 7.6.6.6.z 8.6.6.5.B V a _ ",
"B ^ 7.M k V m u n M D 5.K 6.~ N V ^ 7.M k N c u M M V 5.K 5.K B D ^ 4.M k V c u n M V 5.K 6.K N B ^ 7.M s V m u n M V 5.J 7.~ N V ^ 7.M k N m u M M D 5.K 7.~ N ",
"k n N _ S c Z a ) J J A Z h v g h n m ) N c S a P L ) Z C j x g f x m _ Z c S a P K J F m h x l h n m ) N c Z a P J J A Z j x l h z m ) N c Z a J J L F C j v g ",
"# - w - h - * + * = 9 8 w f 0 @ # # w 0 h - * * + = 9 9 w f 0 $ # - 9 9 f - * * # # 9 9 w f 0 $ # # w 9 l - * * = = 9 8 w f 0 $ + 8 w 9 l - * * * = 9 8 w f w @ ",
"P 6.6.K F N ` 7.7.w.7.6.0.6.L j P 8.6.J F B ` 7.7.9.5.5.0.8.L j P 8.8.K F V ) 7.7.9.5.7.0.6.L l ) 6.6.K F N ) q.7.9.7.6.0._ L x K 6.6.K F N / q.7.q.7.6.0._ L l ",
"5.V 5.K ) L G z n k G k N c c a 5.V ) ) ) ~ F z n b G h V z m a 5.B ) K 5.J F z n b G z B z x a ) V 5.K ) J F k n k G k N c c a 5.V ) P _ L G z z k G b N c x f ",
"5.P A m g l g l Z C Z A v l L l 5.P Z Z g x g g Z C Z Z c l L h ) _ Z C f x g j Z Z Z Z x l L l 5.) Z Z g v g l Z C Z Z v l L l 5.) A m g l g g Z m Z Z c l L l ",
"+ # 8 f g - - @ o t f 8 - * * * + # - f g - - @ o r f 8 w - + + * = - f g % - @ O t f - w - + * + + 8 a g - - @ O r f 8 - * * * + + 8 f g - - @ O t f 8 - * * * ",
"4.M / 6.) ) L z 8.8.6.z ` ~ 8.` 7.b ( 7.` _ J z 8.6.6.z ) ~ 8.` 7.M / 7.` _ P z 8.6.6.z ) ~ q.` 7.M / ) _ _ L z 6.6.7.z ) ~ 8.` 7.M / ) _ ) ) z 0.6.6.z ` ~ 8.` ",
"B M ) J x x Z z h ) K M 7.M N S M S ) J x x S z z ) K M ` N S S V V ~ J x x N h s 5.J M 6.m N S M M ) P z x N z s 6.K m 7.M N Z M M ) K x c Z h h ) K n 7.M Z S ",
"Z m x Z ) x c i _ J Z m f C g x Z x x Z _ x x f _ J A m g v f l C x v Z ) x x f _ J F c h C g j Z x x A _ c x f ) J Z c h v g v Z m j Z ) x c i _ J A m h v g l ",
"$ 0 q % o e d f f 8 # q o O % O % 0 q % o e d d f 9 @ t o O - O % 0 q $ o e e f f 9 + q o O % O % 0 q $ o e e f f w # w o O - O $ q q % o e d f a w @ w o O % O "
};
