/* XPM */
static char *result[] = {
/* columns rows colors chars-per-pixel */
"80 80 77 1 ",
"  c #2B1501",
". c #2E1904",
"X c #321B05",
"o c #331D09",
"O c #3A2007",
"+ c #36200C",
"@ c #3B240D",
"# c #3B2611",
"$ c #372A17",
"% c #3E2914",
"& c #3B2E1B",
"* c #3D301D",
"= c #41270E",
"- c #42280F",
"; c #442B14",
": c #4A2E16",
"> c #442E19",
", c #492F18",
"< c #4C3117",
"1 c #46301A",
"2 c #4C331B",
"3 c #51361E",
"4 c #52381F",
"5 c #423522",
"6 c #4B3621",
"7 c #513720",
"8 c #533A23",
"9 c #664B16",
"0 c #694B16",
"q c #6B4E1C",
"w c #6E511D",
"e c #71511E",
"r c #55452E",
"t c #6E5220",
"y c #715423",
"u c #7E5E2B",
"i c #6D5736",
"p c #7E612D",
"a c #7E6230",
"s c #826432",
"d c #8F713D",
"f c #91713B",
"g c #937442",
"h c #987A44",
"j c #967748",
"k c #9D7D49",
"l c #9F7F50",
"z c #A17F4A",
"x c #FF8F00",
"c c #FFD800",
"v c #9E824E",
"b c #9E8252",
"n c #A2834D",
"m c #A38552",
"M c #AA8652",
"N c #A78A57",
"B c #AC8B55",
"V c #A58959",
"C c #AD8D5A",
"Z c #B18F5A",
"A c #AE915C",
"S c #B09057",
"D c #B3935D",
"F c #B9965E",
"G c #AE8F60",
"H c #AF9363",
"J c #B39563",
"K c #B99662",
"L c #B79964",
"P c #BC9B65",
"I c #BD9E68",
"U c #BFA16C",
"Y c #C19E69",
"T c #C0A067",
"R c #C2A16B",
"E c #FFFF97",
"W c white",
/* pixels */
"DSSIYYPYFIIIPUDfDSSPTYPTDYPIPIDfFSSITTFTDTYIUIDfFSSUYYPYFYIIIIDfDSSPRTPYDYPYIIDf",
"DDDSflBFSPCBLDnMDDFCfnBFDPSBLJnNDDDSfnSFZKBBLDnNDDDSflSDDFABLDnBDZFCfnSDDLBBJJnN",
"AFSIBZJzMknDNLLdCKZYBCJkMknAMLKdAPSPCAJvnkmDNLLdAFSUBZJknknSNLJdCKZKBZDknvnDBLKd",
"fspggsqeps0sywpwfusghs0eps0syqsydppghp0wss0sy0swdppfgsqess0sy0swfssghsqwps0syqsw",
"KRMKYYYzIYLDSCkLYYMKYYYnIRPJCZkLKYMKYYYzIRLJZCkLLRMKYYYzIYPJASkLKYMKYYYzIRPDCClL",
"BZZKzCzgzZCPDLPCBZZKzBzgzACLDKLCBZZKzMzhkCZLDJPABZZKzCzgzZCLDLPZZZZYzZzhzZCLGLLC",
"MNCJCGGcxLHHVbbblVGJCHDgJJHHVbbbVMGJCGGcxLHHVbvbMBCJCGGjLLHHVblblVCHCHCcxJJHBbbb",
"qqssguyEWqaasgaqqqssgueqtqaasgaqqqssguyEWqaasgpwqqssguyqtqaasgaqqqssguyEWqaasgaq",
"FYYLBZYkiIPUUFFnFPYKMDTITTUUTFDNKKYKMDYziYPYUFFnFYTLMSYILIUUUFFnFKYPMSYliTUUTPFn",
"FSSFFFBjrnSnMnBfFSDFFFBnvnBnBnNfFZDFFDSgrnSnMvBfFSDFFFBnnmBnnnBfFSDFFFBjrnBnMnNd",
"PFDNnnml5AAAvNAmPLSNnnnvBSAAvBAbLKDMvnnl5AABvAAmLFSBnnnvCAAAvNAmPLABnnnl1AAAvBAm",
"w0uhgutkrugaa9wqw0phfpww9pdsp9twe0shgutlrpgsa9tqe0pkfpwqqpgap9www0phfswkrpdsp9tq",
"IMSRPLDjrRUnUDUUIMDIPLDkUUUvIDUIINSIPLDjrUInIDUIINZILLDnURInUDUUIBCILLJgrUUvIDUI",
"BBPDkmZi*LDCDAASBCKJknAbvFFBJCCCSMKJznCi*DJCJDCCBBLDzmZmkLJCDABSBBPJnnCi*DDSJACC",
"DzmJKCbl&LCbVbvvDznJJAlgILSvVvmnDzmDKCbl*LAbmbmbDznJJCkgPLAbVvbvDznJKCbb*LAvVvmb",
"qspqqagi$staqtqyqssqqsgjgawsttqyqssqwagi$atsttqtqsswqagjgstaqywyqssqqsgi$awsttqt",
"DSSTTTPTFIIIIIDfDSSITTFTFYIIIIDfFSSPTYFYDUUUPUDfDSSIYYPTFTYIIIDfDZSPYTLTFYIPIPDf",
"DJDBfnBFSKCBLDnNDFDSfnSFZLBBLDnNDDFBfnSJSLSBFFnNDDDSfmBDDLCBLDnBDDFSfnCFSPSBLDmN",
"DLZIBDLknkmANPLdALSUBCJvnkmZBLLdALBIBDKkMknANLDdALSIMZKznknSBLJdCJZYBCJkMknABLJg",
"duugjp0ess0sy0swfppfhs0wss0sy0swfpsgjuqyps9stwsefpujgsqess0sy0swfsujhs0eps0syqae",
"KYMKYYYzIRPJZCkLKYMKYYYzIRPJCSvLLRMKYYYzIRLDAAkLKRMKYYYzIYLJACkLKRMZYYYnIRKJCCkL",
"BZZKzBzhkHCKDJPAZZZKzBzhvCCLDJLASBDKkBzgnBZLAULCBSGKzBzgzZZLDLPZBZZYzBzhzZCLJKLC",
"VMGHCGZjJLHHVbvblCGJCGGgLHJHVbvbMVBKGGGjHLJJNbbvMMCHGGGjLLHHVbbbMVVJCHDgJLHHVbbb",
"qqssguyqtqaasgpwqqssguyqtqaasgpqqqssgatqtqauagaqqqssguyqtqaasgaqqqssguy0twaasgaq",
"KKYKMDTPYFYYUFFnKKYKBDYPYFYYUFFMKKYKMDYYIIPUPPDMFPRFMSTILIUPUUDnFPYKMDYPTPUUPPFn",
"FZFFFDSnnnSnMvBfFZDFFDSnnnSnMvMfFZDFFFMnvnSnMnBfFSDDFFBnnmSnnnMfFSDFFFBnvnSnMnNd",
"PKZBvnnbADSBvAHbPFZBnvnbADSNvAAmPKDNnnnnAAACnBAvPFDNnnnvCAAAvNSmPLSNnnnvSAAAvBAV",
"w0uhgpww9pdsp9twq0shfptwqpdsa9tqw0uhdpe09pgsp9wwe0pkfpwqqpdsp9www0phfswq9pdsp9tq",
"IBSYPLDkUUInUDRIYNZIPLDkUUInUDUIIBSIUFDvYYUmIDUIIMSRPJDvURInUDUUIMDIPLDkUTUnIDUI",
"BBLJznCnvUJCJACCBMLDznCnvDJCJACCBBPDvnSnkJJCJCCCBBPDzmZMkLJCDAASBCKJknAbvSDSJACC",
"DlmJJCngDLAbNkmbJzmDJCngULAmNbmbHznJJAvdLLGmNvmlHmmDJClgPLGbVvvvDznJJAlgILAnmbmb",
"qsuqwsgjdataqyqtwssqwsgjdpqaqtqtqasqwagjgsqsqtqyqapwqagggsqawyqyqssqqsgjgawsttwt",
"DSSPRTPYSUPUUUDfDSSPRTPYFPIIUUDfDDSITTFTFYIIUPDfFSSUYYLYDTIIIPDfDSSPTTPYDTIYIIDf",
"DDFCfnBJDUBBFDnNDDFCfnBDAPSAFDnNDDFBfnSFZLBBFDnNDFFBfzBFSPCBLDnBDDFCfnBFSPBBJDnB",
"SPSPBDKkMvnDNLJfDLBPBDKznvnABLJfDLAIBCJvmkvDNLLdAFSUCZKkMknDNLJdBKZKBCJknvnANLJg",
"fpsfgsqeus0sy0swfpsghuqess0sy9swfuughs0wusqsywpwdppdgsqeps0sywswfssghsqess0syqsy",
"KRMKYYYzPRLDABvLKRMKYYYlPRLDASkLYYMKYYYzIRPJCZkLLRMKYYYzIRPJSCkLKYMKYYYnIRLJCZkK",
"BZZKkBzgvBSLAULCBZZKkVzgzSCKAULCMZZKzMzhkHCKDJPABSZKzCzgzZCLDLPCZZFKzBzgzSCJGLLC",
"MVCJGGGjHLJJVbvvMVCJGGGgLLJHVbvbMVGHCGGjJLHHVbvbMNCJCGGjLLHHVblblVGJCHAgKLHHBbbb",
"qqssgatqtqauagawqqssguyqtqapagaqqqssguyqtqaasgpwqqssguyqtqaasgaqqqssguewtqaasgaq",
"KKYLBZYYUPPUTFDMKKYYMZYYUPPTTPDMKKYKBDYYPYFTUFFnFPRFMSTILIUIUFFMFKYFBDYPPTUUTPFn",
"FZDFFFBnvvSnBnBfFZSFFFMnvnSnMnBfFZDFFDBnnnSnMvBfFSDDFFBnnmSnnnMfFSDFFFBnzvSMMnNd",
"PKDBnnnnAAACvNSvPKDNnnnnAAACvBAvPFZMnnnbADABvAAmPFDNnnnbCAAAvNAmPLDNnznvSAANvBHm",
"w0uhfpe0qpgap9www0phfpwq9pgsp9www0shfptqqpdsa9tqe0pkfpwqqpdaa9www9phfsww9pdsp9tq",
"INDILLDvYYImIJUIIBSIPFDvUYImIDUPINSIPPDkUUInUDUIIMDUPKDnURUnUDUUIMDILLDvUUUnIDUI",
"BBLDnnSnlJKCJZCCBBPDvnSnzJJCJAACSMKJknCnvLDCJACCBBLDzmCmkLJBDANSBBKJnnCvvDDSJACC",
"ZnmJKCngLLGmNkmbHkmJJCngLJGmNkmnDnmJKCmgLLAmmbmbHnnDJCkgPLAbVvvbJnMDJZbgILSvmbmv",
"qsaqqpgjgsqsqtqyqsaqwaghgsqsttqyqsuqtagjdawsttqtqspwqagjgstaqywyqapqqsgjgawattqy",
"DDSIYYFTDTIIIPDfFZSITYLYFYIPIIDfFSSPTYFYFUIUPUDfDSSIYYPTFYIYIIDfDSSPTYPTDTIPIIDf",
"DDFBfMBLSPCBLDnBDZDZfnSDSPSBJDnNDDFBfnSJSPBBFDnNDDDSdzBDDLCBLDnBDDFCfnBFDPBBLAnN",
"SLSIMZJzMknDmUJdBKBYBDJkMknANLJgALBIBDKzMhnANLLdSLSICZKznknSBLJdCKZYBCJkMknDBLJg",
"fpuggsqeps0sy0swfssghuqwps0syqsyfpsgjuqeps9sywpwfpujgsqess0sy0swfusghs0epsqsyqsy",
"KRMKYYYzIRPJAAkLYYlZYYYnIRLJCCzKLYMKYYYlURLDABvLKRMKYYYzIYPDACkLYYMKYYYzIRPJCCkK",
"ZZGKzZzgzCCKDLLSBZFYzBzhnCCKGLLCSSZKkVzgnBZLDULABZGKzBzgzZCLDLPZBZZKzBzhnCCLZLLC",
"mMCHCGGjLLHHVblmlVGJCHAgJLHHBbbbMVCJGGGgLLJHNbbvNMCHZGGjLLHHVbbblVGJCHAgJJHHVbbm",
"qqssguyqtqaasgaqqqssgueqtqaasgaqqqssguyqtqapagaqqqssguyqtqaasgaqqqssguewwqaasgaq",
"FYTLMSYILIPUPUDnFPYFMDTIUPUUUPDMKKYPBZYYUPPUFUDMFYTPBSTPIIUUPFFMFPYKBSYPTTUUTFDN",
"SSDFFFBnnmSnMnBfDZFFFFBnznSnMnNfFZSFFFBzvvSnMnBfFSDDFFBnnbSnMnMfFSDFFFBnvnBnBnNf",
"ILDBnnnbCAAAvNSnPLDBnnnvSAASvBAmPKSNnnnnAAACvBSvLFSBnnvvCAAAvNAvPLSNnnnvBSAAvBHm",
"e0phfpwwqpgaa9www9phfuww9pdap9tqw0shfpeqqpgap9wwe0shfuww9pgaa9yqw0phfswq9pdsp9t9",
"YNSTPKDnUUUnUDUUIMZILLDvUUTvIJUIYMAIPFDvYYImPJUIINSRPKDvUUPnUDUUIMDIPLDkUUUvIDUI",
"MBLDzmCnkLJCAABSCBLDnnCbvDDSJCCCBBLDvnSnkJKCJDCBMBLDkmCMkFLADASNBCKJknAbvFFBJACC",
"ZnnJJClgPLCbVvbbJnnDJClgILSvVlmnJvmJKCngLLGmmbmbJznJJClgLLAbVbvvDznJJAlgILSvVvmb",
"qpseqagggswaqywyqpswqsgjgawsqtqyqsaqtagggsqsqyqyqssqqagjgswawyqyqssqqsgjgawsttqt",
"2:3244442387882@2;3277382387882@3;334428288888<@2;4242482787882@2;424244288788<@",
"223;-;<<222:12>@4<2:-;,2221:,1,@222;-;:,22,,121#422;-:<<222:121@4<2:;;<<22,,22>#",
"2221;,1;;%%:211%11<1;,,;;;;,12>%,2,,:12;;%;,21,@1<<1;1<>;%%:211%><<1;1<1-%;:121%",
"@@X=@oX XX.XXXXX@+O-=o. XX XOXXX@=X-@O. XX..XXXX@@O#@O. XX.XXXXX@@O@@O. XX.XXX.X",
"<::7333:8883,:;:<<-4443:88421:;;2<;3333:8842<;;:<<;3433:8883:;;:<<;3243:8882,:-:",
":3:,;:-o%;<22,,2<3<>-:;O-;<2<<2<:2<:;:-o-;>22<22:3:,;;-O-;:233,,:3:,:;-o=;:32,22",
"#;6>,2:#666>;;-%@%21,2>#666>&%%%#;6>:,,#262>,%&%#;6>,1:#666>;%-%#;6>,2:#665>;;-%",
"X +o+oX. .oo++o.O ++++...Xo++++.o oo#oX..Xo+++o.X +o++X...oo+ooXX +o++X. ooo++o.",
",33<<233343377,::332::38443284<;2333::37772383,;2333<<34443387,;,333:<34343387,:",
"33<<32:=--:;>;;o33:232:---;::;;O32:2<3:@=-:;;;;O32::32:@--;:>;;o33::32:=--:;;;;o",
"6,,2%%;%1,2%%%6&6,62;%%%116%%&1;6161;->;216;;%5;6,2,%%>%512;&-6&6,2,%%;%1,2%%%5;",
"o.o#+o. .o$Xo.o.o.o+oo. .X$.o.X o.o@ooX  o$.o.o.o.o#+o.  o%.o o.o.o#++. .o$Xo.o ",
"6:28822;688;76682:28622;688>76882:<8822;688>82682,2864<;288;76682>28822;688;766r",
",:,2::;;;22;6,;,,:22:;:;;22;6,>,1:21;;;;;22;4>:>,:<2:;;;:22;7,;,,:1<:;;;;22;6,;>",
":;-;12;+61,;;%;;:;;;,2;o7,>%;%;;:;;;22;o62,;%%%;,:;;1<;O62,%;%>;,:;;21;O61,;;%;;",
".oo..X+##Xoo. o .oXXXoo##oo+  o XoX.XXo##Xoo .o. oX..X+$#.oo  o  oXX.X+$#Xoo. o "
};
