/* XPM */
static char *result[] = {
/* columns rows colors chars-per-pixel */
"32 32 165 2 ",
"   c #462903",
".  c #4A2D02",
"X  c #4D3405",
"o  c #4E3109",
"O  c #523209",
"+  c #553E0A",
"@  c #583C0C",
"#  c #5F3E1F",
"$  c #5C401B",
"%  c #6C4E05",
"&  c #6C4D0B",
"*  c #6F4713",
"=  c #654A16",
"-  c #6C4B15",
";  c #6D4D1B",
":  c #734C16",
">  c #754F19",
",  c #6F531C",
"<  c #745515",
"1  c #73521D",
"2  c #77591C",
"3  c #7D5E1D",
"4  c #6D4C22",
"5  c #6F4F28",
"6  c #6C5124",
"7  c #735424",
"8  c #765A27",
"9  c #7D5C26",
"0  c #745529",
"q  c #75592A",
"w  c #7D5D2C",
"e  c #7D5E34",
"r  c #7A5B3A",
"t  c #7E612D",
"y  c #7D6132",
"u  c #87431C",
"i  c #8A461F",
"p  c #94441F",
"a  c #8B4720",
"s  c #8F4A23",
"d  c #914C24",
"f  c #934F28",
"g  c #825C26",
"h  c #805F2C",
"j  c #96522A",
"k  c #98542D",
"l  c #A14B28",
"z  c #A5512D",
"x  c #A9542F",
"c  c #A55430",
"v  c #A85430",
"b  c #AC5A36",
"n  c #B05B36",
"m  c #B25D39",
"M  c #836426",
"N  c #82622D",
"B  c #88632E",
"V  c #916F2F",
"C  c #96782F",
"Z  c #836433",
"A  c #836038",
"S  c #8F6F3C",
"D  c #916E34",
"F  c #8C7237",
"G  c #8E713B",
"H  c #947934",
"J  c #9B7A35",
"K  c #92723D",
"L  c #9B733D",
"P  c #9B7B3C",
"I  c #A56539",
"U  c #AA673C",
"Y  c #B6623D",
"T  c #A17F37",
"R  c #A17E3D",
"E  c #8F6C46",
"W  c #8F6B49",
"Q  c #926F45",
"!  c #8F7043",
"~  c #947544",
"^  c #987744",
"/  c #947B42",
"(  c #9A7A43",
")  c #907249",
"_  c #977B4C",
"`  c #9C7D4B",
"'  c #977750",
"]  c #947851",
"[  c #9D7E54",
"{  c #9D7C59",
"}  c #B56542",
"|  c #B96541",
" . c #B16E43",
".. c #BB6944",
"X. c #B47247",
"o. c #B57449",
"O. c #B8784C",
"+. c #9E8038",
"@. c #A48737",
"#. c #A7853B",
"$. c #9D8246",
"%. c #9E834A",
"&. c #9E8251",
"*. c #9F8854",
"=. c #A38446",
"-. c #A88647",
";. c #A48845",
":. c #AF8E47",
">. c #A3844E",
",. c #A88649",
"<. c #A1884E",
"1. c #AC8D4D",
"2. c #B18E4A",
"3. c #B5944E",
"4. c #BB9A4D",
"5. c #A48552",
"6. c #AA8654",
"7. c #A68A54",
"8. c #AB8C55",
"9. c #A4865A",
"0. c #AC8D5B",
"q. c #B08D55",
"w. c #B58D59",
"e. c #AE9050",
"r. c #AE925A",
"t. c #B39454",
"y. c #B89657",
"u. c #B3935D",
"i. c #B9935F",
"p. c #B3985E",
"a. c #BB9B5C",
"s. c #A88766",
"d. c #AD8D63",
"f. c #A9866A",
"g. c #AF8D68",
"h. c #B08F62",
"j. c #B28B6C",
"k. c #AF9361",
"l. c #AF916B",
"z. c #B49563",
"x. c #B99664",
"c. c #B59A63",
"v. c #BB9B64",
"b. c #B4946B",
"n. c #BA966A",
"m. c #B6996B",
"M. c #BB9B6B",
"N. c #B49672",
"B. c #B99670",
"V. c #BB9C71",
"C. c #B69478",
"Z. c #BCA064",
"A. c #BFA069",
"S. c #BDA072",
"D. c #C29C65",
"F. c #C19E6A",
"G. c #C4A365",
"H. c #C3A16B",
"J. c #C8A06C",
"K. c #C4A371",
"L. c #C4A37A",
"P. c #E1C37C",
"I. c #FFF5BF",
"U. c #FFF5C3",
"Y. c #FFF5C8",
/* pixels */
"t.3.:.a.F.J.y.G.z.M.F.a.G.v.t.H 3.t.1.a.G.G.a.F.i.D.F.D.G.a.t.H ",
"x.u.y.t.D R 4.2.a.G.1.8.i.z.6.=.x.u.u.t.V P y.2.y.D.2.q.z.u.7.>.",
"j.n.w.v.2.3.4.@.+.J ;.t.5.B.B.Q g.m.w.M.:.3.4.#.T T -.u.5.n.b.) ",
"W A 9 ^ ( 3 % P.G.M : t 7 4 A 5 W A w ( ( 3 & P.G.M : g 7 4 e 0 ",
"n.K.,.u.K.F.v.I.Y.L.n.u.0.h.%.u.z.K.=.i.F.A.A.U.U.L.m.z.0.0.` u.",
"1.t.t.u.` g.[ { r f.g.n.h.v.c.:.2.t.u.u.` k.{ { r s.d.V.z.x.a.3.",
">.;.1.c.0.d.0.' # C.b.0.7.7.$.;.,.>.q.x.0.0.d.] $ N.l.d.7.5.` ;.",
"; - N Z ~ N 1 ` O 5 e y Z E w , > - Z h ~ t 6 %.X 6 y y A K h > ",
"B.n.A.v.7.u.a.$.= m.A.A.V.V.b.5.n.F.V.v.7.r.Z.%.= c.Z.S.S.V.b.5.",
"z.r.p.z.z.c.7./ + 9.0.%.0.7.5.F w.u.c.u.p.c.*./ $ *.s.*.0.*.5.G ",
"H.y.1.8.5.5.%.q o N.d.7.5.9.u.;.F.i.1.8.*.*.&.q X l.k.r.5.>.r.=.",
"< & M ( ! q 8 _   y ) y t - 2 & < & M ( F 8 q [   q ) y t - 2 & ",
"v.8.1.H.v.m.u.8 . N.S.%.S.r.H.Z.c.q.8.F.v.v.k.0 . M.V.[ H.r.A.Z.",
"0.8.c.u.5.5.<.7.%.N.k.7.z.b.0.q.8.8.v.u.>.5.7.7._ b.z.0.z.z.8.r.",
"j.5.` u.z.8.<.F m.N.0.*.9.' 5.` z.5.` z.z.8.5.G M.m.0.9.5._ 5.&.",
"> N M ; 7 t F / ) y 6 t , q ; > ; Z N ; , N S ^ ~ w > e 4 w = 6 ",
"i.w.w.F.F.F.D.F.i.D.F.F.D.F.z.K i.w.w.D.F.F.D.F.i.D.D.F.F.D.i.K ",
"u.u.i.q.K >.8.u.u.v.0.8.x.u.>.8.w.u.i.0.K >.8.z.u.v.0.8.x.u.>.8.",
"u.c.q.v.8.u.z.` 5.` >.u.6.c.z.G u.c.r.v.8.r.i.` 5.` >.u.8.z.z.G ",
"K h h ~ ^ h : 1 t Z = A 7 ; Z , K h h ~ ^ N - 1 h Z = Z 7 ; Z 1 ",
"x.K.6.z.F.K.M.[ M.K.n.z.0.w.' n.x.F.6.z.F.F.M.[ M.K.x.z.0.0.` n.",
"q.w.w.z.` 8.[ ^ ` u.8.x.z.z.n.r.0.w.u.z.` 0.>.~ [ w.0.b.h.n.n.0.",
"5.7.0.z.8.u.r.~ c.b.z.z.8.&.%.5.5.7.8.z.8.z.0.~ z.c.z.r.8.` %.&.",
"; - N Z ~ 9 1 ; 1 ; h w Z ~ w , ; - Z B ~ 9 1 ; 1 ; N N A ~ Z , ",
"i.v.H.u.6.u.D.v.M.v.H.v.H.v.u.5.c.v.H.u.1.u.F.M.M.M.A.v.A.v.z.>.",
"u.8.t.v.v.p.r.>.%.$.8.8.7.7.<.K u.8.t.v.x.c.8.>.%.=.8.7.7.7.<.K ",
"Z.p.t.8.%.=.<.$.p.r.p.*.<.*.r.5.Z.p.r.1.%.%.=.%.c.r.r.7.<.5.r.<.",
"> : g ( L g : : * g K B g : < > > : g L L g > > * g L B g : 1 < ",
"X.U X.X.X.X.U j X.O.o.I o.X.o.O.X.Y X.X...o.U j X.O.o.I o.X.o.o.",
"Y b Y Y x l x Y z } } Y Y b x b m n Y Y x j v m l } ..m | b v n ",
"b x x b Y ..b p } } b c c c x b I x x b Y ..n s ..} c c c c c b ",
"d i d d i i f k j s a f a s i i p i d d a a f k j s a f a s a u "
};
