/* XPM */
static char *result[] = {
/* columns rows colors chars-per-pixel */
"32 32 162 2 ",
"   c #462903",
".  c #4A2D02",
"X  c #4D3405",
"o  c #4E3109",
"O  c #523209",
"+  c #553E0A",
"@  c #583C0C",
"#  c #5F3E1F",
"$  c #5F4508",
"%  c #5C401B",
"&  c #6C4E05",
"*  c #674B0C",
"=  c #6C4D0B",
"-  c #654A16",
";  c #6B4B14",
":  c #6D4D1B",
">  c #724D1C",
",  c #6E5215",
"<  c #6F531C",
"1  c #745515",
"2  c #72531C",
"3  c #75591C",
"4  c #7B5D1E",
"5  c #6D4C22",
"6  c #6F4F28",
"7  c #6C5124",
"8  c #735424",
"9  c #765A27",
"0  c #7D5C26",
"q  c #745529",
"w  c #75592A",
"e  c #7D5C2C",
"r  c #7D5E34",
"t  c #7A5B3A",
"y  c #7A6023",
"u  c #7E622B",
"i  c #7D6132",
"p  c #805F2C",
"a  c #836426",
"s  c #82632C",
"d  c #916F2F",
"f  c #927C2C",
"g  c #836432",
"h  c #836038",
"j  c #8E6F3C",
"k  c #916E34",
"l  c #8D7336",
"z  c #8E723A",
"x  c #947D31",
"c  c #9B7A35",
"v  c #92723C",
"b  c #9A7D3E",
"n  c #A17F37",
"m  c #A17E3D",
"M  c #8F6C46",
"N  c #8F6B49",
"B  c #926F45",
"V  c #8F7043",
"C  c #947444",
"Z  c #987744",
"A  c #947B42",
"S  c #9A7A43",
"D  c #907249",
"F  c #977B4C",
"G  c #9C7D4C",
"H  c #977750",
"J  c #947851",
"K  c #9D7E54",
"L  c #9D7C59",
"P  c #A17F4F",
"I  c #978131",
"U  c #9B8535",
"Y  c #9E8038",
"T  c #9E8939",
"R  c #A48737",
"E  c #A7853B",
"W  c #9D8246",
"Q  c #9D814B",
"!  c #9E8051",
"~  c #9F8854",
"^  c #A38446",
"/  c #A88647",
"(  c #A48845",
")  c #AF8E47",
"_  c #A3834D",
"`  c #A88649",
"'  c #A2884B",
"]  c #AC8D4D",
"[  c #B18E4A",
"{  c #B5944E",
"}  c #BB9A4D",
"|  c #A38452",
" . c #A98755",
".. c #A78A54",
"X. c #AB8C55",
"o. c #A4865A",
"O. c #AC8D5B",
"+. c #B08D55",
"@. c #B08E5E",
"#. c #AE9050",
"$. c #AF925B",
"%. c #B39354",
"&. c #B89657",
"*. c #B3935D",
"=. c #BA935E",
"-. c #B7985D",
";. c #BB9A5D",
":. c #BBA44F",
">. c #BBA849",
",. c #BDA751",
"<. c #BEA853",
"1. c #A88766",
"2. c #AD8D63",
"3. c #A9866A",
"4. c #AF8D68",
"5. c #B08F62",
"6. c #B28B6C",
"7. c #AF9161",
"8. c #AF916B",
"9. c #B49463",
"0. c #B89764",
"q. c #B59A63",
"w. c #BB9B64",
"e. c #B4946B",
"r. c #BA966A",
"t. c #B6996B",
"y. c #BB9B6A",
"u. c #B49672",
"i. c #B99670",
"p. c #BB9C71",
"a. c #B69478",
"s. c #BEA065",
"d. c #BFA069",
"f. c #BDA072",
"g. c #C2AE4F",
"h. c #C2AB55",
"j. c #C5AE5A",
"k. c #C5B253",
"l. c #C9B751",
"z. c #C7B15C",
"x. c #CAB758",
"c. c #CDBA5B",
"v. c #D1BE5D",
"b. c #C29D65",
"n. c #C19E6B",
"m. c #C2A265",
"M. c #C2A26B",
"N. c #C8A06C",
"B. c #D1BC62",
"V. c #C5A572",
"C. c #C4A37A",
"Z. c #D5C25D",
"A. c #DAC761",
"S. c #DCC963",
"D. c #DECB6D",
"F. c #E4D26C",
"G. c #E2CC77",
"H. c #E1C37C",
"J. c #ECDA74",
"K. c #FFF5BF",
"L. c #FFF5C3",
"P. c #FFF5C8",
/* pixels */
"%.{ ) ;.N.m.&.N.9.n.b.;.b.w.%.x { &.] ;.m.m.=.b.=.b.n.b.b.;.%.x ",
"r.*.&.+.k m { ) -.b.] X.=.9. ._ 0.+.*.%.k R &.[ &.b.[ +.9.*.X._ ",
"6.r.+.b.[ { } R R b ( &. .i.i.B 6.i.@.w.] { } E n n / &.| r.e.D ",
"B h 0 Z S 4 & H.m.a ; 0 8 5 t 8 M h e S S 4 = H.m.a ; p 8 5 h 6 ",
"r.M.^ 9.M.n.w.K.P.C.t.*.O.2.Q *.q.N._ *.n.M.d.L.L.C.t.9.@.@.P *.",
"X.%.&.*.K 5.P K t 3.4.y.9.q.;.) ] &.*.*.G O.! L t 1.2.p.5.q.;.) ",
"` ( #.0.O.2.2.H # a.e.$. .| W ( ^ ` +.0.O.O.2.J % u.8.2.X._ W ( ",
": ; s p C i 3 G O 6 r i h V i < > ; g p Z u 7 ! X 7 i i h B s > ",
"t.t.n.r...$.s.W - t.t.d.p.p.e._ r.y.n.q.~ $.q.Q - q.f.f.f.f.8.| ",
"9.$.-.9.9.-...A $ ~ 2.Q $.o.| z @.@.0.q.-.q.~ W $ ~ o.~ O.~ _ z ",
"d.&.] X.~ ~ Q q X 8.O...| | *./ b.;.] X.~ ~ ! q . 8.2.O...' $.` ",
"1 = a S V q 9 Q   t F i u : 3 & 1 ; a A l y w K   i D i u ; 3 = ",
"w.X.] d.t.r.$.9 . a.f.Q f.$.M.w.;.X.X.n.0.w.7.w . t.f.! f.$.d.s.",
"O.X.;.*._ ......Q t.q...9.8.O.+.X.X.0.*._ | X...F t.9.O.9.9.X.O.",
"9.| P =.q.X._ z t.u.O.~ | G | | 9.| P *.9.X. .z y.r.O.o.| G | | ",
"5 s p ; 7 s l A D i 7 u 7 w - > : g u > < u j Z C e 5 r 5 w - < ",
"*.%.+.w.m.m.;.b.*.d.w.w.w.w.*.v *.%.+.w.b.b.;.m.*.m.b.w.w.s.*.v ",
"*.*.0.+.j _ O.*.*.w.O.X.0.*._ ..*.*.9.+.v | O.*.*.0.O.X.0.9._ ..",
"@.r.@.y.X.5.r.G | G | 9.O.r.9.M @.0.5.y.X.5.9.P  .G | 5. .t.0.C ",
"v p p Z Z p : 2 s g ; g 8 : g 8 v p p Z Z p : > u g - g q : g : ",
"0.n. .=.n.n.w.P y.M.0.9.O.O.G 0.0.M. .=.b.n.w._ y.M.0.9.O.O.G 0.",
"X.@.*.0.P X._ Z P @.O.9.9.9.0.O.X.@.@.9.G X.P Z P @.O.9.9.9.y.O.",
"|  .X.9.@.5.@.C 0.9.9.9.O.| ! | |  .O.r.O.@.+.Z 0.t.9.5. .| P | ",
"> ; g g v 0 2 : 2 : s u s C s : > ; g s C p 8 : 2 : s s g v g : ",
"=.q.M.*.#.$.w.w.q.M.w.0.M.d.*...;.q.s.*.X.%.s.w.q.N.q.q.M.y.*...",
"0.X.*.q.9.%.*._ _ Q $...! Q o.z 0.X.9.q.9.$.$.Q _ _ $..._ Q X.z ",
"y.9.O.| ..Q | Q $.9.O.9.! O.$.! y.9.*. ...| Q ~ O.9.O.9.! O.7.! ",
"1 * a W v 9 1 ; , y l u u * 3 , , = a b l 9 < * , y l u u $ 3 , ",
"g.j.j.g.h.,.z.B.z.z.,.G.z.h.:.:.:.j.z.g.<.<.<.B.<.z.<.D.z.<.,.:.",
"F.Z.Z.v.S.F.F.l.Z.A.l.J.S.v.v.F.F.Z.Z.v.S.F.F.Z.A.A.l.J.S.Z.Z.F.",
"g.k.c.v.v.g.g.c.k.x.>.D.D.v.x.v.g.k.v.v.Z.>.>.x.<.Z.>.D.D.Z.x.B.",
"x Y U f f I U f f T f j.f T U x x U U f I I U I I T I s.x T I I "
};
