/* XPM */
static char *result[] = {
/* columns rows colors chars-per-pixel */
"32 32 183 2 ",
"   c #38191F",
".  c #3C171F",
"X  c #3E1E25",
"o  c #3F2026",
"O  c #462903",
"+  c #4A2D02",
"@  c #4D3306",
"#  c #55390A",
"$  c #5F3E1F",
"%  c #431E26",
"&  c #521D39",
"*  c #412127",
"=  c #44232A",
"-  c #49242C",
";  c #4D2A32",
":  c #5F2E31",
">  c #612D31",
",  c #653237",
"<  c #6F3C3F",
"1  c #5C401B",
"2  c #6C4D0B",
"3  c #6C4E05",
"4  c #654A16",
"5  c #6C4C14",
"6  c #674A1D",
"7  c #6C4C1D",
"8  c #714C1D",
"9  c #6F531C",
"0  c #73531C",
"q  c #77591C",
"w  c #7D5E1D",
"e  c #745515",
"r  c #674B21",
"t  c #6B4B21",
"y  c #6F4F28",
"u  c #744F22",
"i  c #6D5122",
"p  c #6F5328",
"a  c #725324",
"s  c #765A27",
"d  c #7D5D25",
"f  c #735328",
"g  c #75592A",
"h  c #7D5C2D",
"j  c #7C5D33",
"k  c #7A5B3A",
"l  c #7D602D",
"z  c #7E6132",
"x  c #7F6238",
"c  c #5C2444",
"v  c #5D2946",
"b  c #5E2B48",
"n  c #572542",
"m  c #662748",
"M  c #632B49",
"N  c #6C2C4E",
"B  c #642547",
"V  c #65314E",
"C  c #69334F",
"Z  c #6D2E51",
"A  c #6D3354",
"S  c #673552",
"D  c #713154",
"F  c #743E5C",
"G  c #7B3B5E",
"H  c #763658",
"J  c #7C3D60",
"K  c #744146",
"L  c #79464A",
"P  c #7B494D",
"I  c #774548",
"U  c #77415D",
"Y  c #7C4564",
"T  c #845F32",
"R  c #836426",
"E  c #82622C",
"W  c #916F2F",
"Q  c #96782F",
"!  c #836434",
"~  c #886234",
"^  c #82633A",
"/  c #8F6F3C",
"(  c #916E34",
")  c #8D723C",
"_  c #8C7237",
"`  c #92723D",
"'  c #9B7B3C",
"]  c #987637",
"[  c #A17E3D",
"{  c #A17F37",
"}  c #803F61",
"|  c #845154",
" . c #8F6C48",
".. c #926F45",
"X. c #8F7043",
"o. c #8F7248",
"O. c #947544",
"+. c #947A43",
"@. c #9B7C44",
"#. c #917249",
"$. c #9B7D4C",
"%. c #997846",
"&. c #977750",
"*. c #9D7E54",
"=. c #997A55",
"-. c #A27E4A",
";. c #A27D46",
":. c #9E8038",
">. c #A68639",
",. c #9C8445",
"<. c #96804C",
"1. c #9D814B",
"2. c #9E8A4A",
"3. c #978442",
"4. c #9D8251",
"5. c #9F8854",
"6. c #A28446",
"7. c #A88647",
"8. c #A48845",
"9. c #AF8E47",
"0. c #A3844D",
"q. c #A3894A",
"w. c #AC8D4D",
"e. c #A88649",
"r. c #B18E4A",
"t. c #B5944E",
"y. c #BB9A4D",
"u. c #A48553",
"i. c #A98555",
"p. c #A68A53",
"a. c #AB8C54",
"s. c #A4865A",
"d. c #A58D58",
"f. c #AC8D5B",
"g. c #B28D56",
"h. c #B28D5A",
"j. c #B88D58",
"k. c #A69252",
"l. c #AB9353",
"z. c #AD925C",
"x. c #AF9A59",
"c. c #B39454",
"v. c #B89657",
"b. c #B3945D",
"n. c #BA935E",
"m. c #B6985C",
"M. c #BB9B5C",
"N. c #B5A05F",
"B. c #A88766",
"V. c #AD8D63",
"C. c #AF8D68",
"Z. c #A9866A",
"A. c #B28F61",
"S. c #B28B6C",
"D. c #AD9360",
"F. c #AF9965",
"G. c #AF916B",
"H. c #B49563",
"J. c #BA9564",
"K. c #B59963",
"L. c #BA9A64",
"P. c #B4946B",
"I. c #BA966A",
"U. c #B69B6A",
"Y. c #BB9B6B",
"T. c #BB9C71",
"R. c #B69573",
"E. c #BCA063",
"W. c #BFA069",
"Q. c #BDA072",
"!. c #C29C66",
"~. c #C29D6B",
"^. c #C49A67",
"/. c #C29D70",
"(. c #C4A365",
"). c #C2A16B",
"_. c #C8A06C",
"`. c #C5A572",
"'. c #C4A37A",
"]. c #E1C37C",
"[. c #FFF5BF",
"{. c #FFF5C3",
"}. c #FFF5C8",
/* pixels */
"c.t.9.M.^._.v.(.b.Y.!.M.(.L.c.Q c.c.w.M.(._.v.^.^.^.^.!.(.M.l.Q ",
"J.b.v.c.( [ t.t.m.(.w.a.b.J.i.0.L.b.b.c.W { y.r.v.^.w.g.H.b.p.u.",
"S.I.h.Y.w.t.y.>.>.' 8.t.i.I.R...C.R.f.L.7.r.>.W { Q 7.n.u.I.P.#.",
" .T d %.@.w 3 ].(.R 5 l a y j a  .T h @.{ R 3 [.(.R 5 R f t T f ",
"U._.0.b.~.~.E.{.{.'.L.b.f.A.$.b.J.`.0.n.!.W.Y.{.{.'.U.H.f.b.$.b.",
"a.c.c.b.$.A.*.*.P Z.G.Y.H.K.M.9.r.c.b.b.$.V.4.=.k B.C.T.H.H.M.w.",
"e.6.w.L.V.V.f.&.$ R.P.f.u.u.1.8.e.e.g.H.f.z.V.=.1 R.G.V.i.u.;.6.",
"7 5 E E O.z q $.@ y j ! ^ X.l 9 8 5 ! E ` l a <.@ i z z ! / E 0 ",
"I.I.W.U.p.z.N.,.4 Y.Y.W.T.T.P.u.I.I.~.L.p.z.E.<.1 E.U.Q.Q.U.P.u.",
"H.z.m.H.H.H.a.+.# s.z.1.f.s.u._ h.b.K.H.m.K.k.+.1 5.D.5.f.s.u./ ",
").m.e.a.p.u.<.g @ G.f.d.0.p.b.8._.m.w.a.p.4.1.g + F.D.5.u.0.c.0.",
"e 2 R @.X.s s $.O x o.! l 7 q 3 e 2 E +._ s g =.O z o.x l 5 q 2 ",
"L.a.w.).K.U.z.s + R.Q.1.`.z.).L.L.a.a.).L.L.H.g + U.`.*.).z.).L.",
"f.a.L.b.u.u.p.p.$.P.H.d.H.P.f.g.i.f.L.b.0.p.p.u.%.P.H.f.H.H.d.z.",
"J.u.;.b.H.a.0._ Q.P.d.5.u.&.u.-.H.u.$.b.b.d.u./ Y.I.f.s.u.%.u.0.",
"8 E h 7 a E _ +.o.j i l t g 6 0 7 E l 8 9 E / %.O.j t z t h 4 i ",
"n.j.h.!.^.~.^.~.n.~.!.!.~.^.n.` n.g.g.!.!.!.Y.(.n.!.!.!.!.!.b.` ",
"b.b.b.l.` 0.a.H.b.U.f.k.L.b.0.p.b.b.m.z.` 0.a.H.b.L.d.f.L.b.0.p.",
"z.U.d.Q.z.z.F.<.5.<.2.D.d.U.F.) b.K.h.Y.f.z.H.%.u.$.4.z.s.K.H.X.",
") l h O.+.l 7 a l ! 7 x i 6 z i X.h h %.%.z 7 a z ^ 7 ! a 7 ! a ",
"J._.i.J.^.~.!.-.Y._.Y.b.f.h.-.I.J.).i.H.!.`.Y.0.Y.~.L.H.f.f.$.L.",
"a.g.h.m.;.g.;.%.-.h.g.J.b.J.J.g.a.l.c.m.@.p.6.%.0.l.f.H.b.K.L.z.",
"0.p.g.b.a.b.b.` b.H.b.b.a.0.-.0.u.p.a.n.a.f.g.` H.m.b.b.u.0.1.0.",
"7 7 ! ~ O.h a 7 a 7 ! l ! #.! 7 8 7 T ~ %.T a 8 u 8 T T ~ O.T 8 ",
"J.I.~.H.f.A.Y./.Y.~.I.Y.T.Y.H.s.I.^./.J.h.H.~./.~./.I.~./.Y.J.*.",
"b.g.m.L.b.J.b.@.1.0.z.0.p.0.p._ b.a.b.L.b.b.b.@.0.u.z.p.u.0.i.` ",
"N.b.w.q.6.6.6.q.l.b.l.l.,.a.l.0.M.x.k.2.1.3.,.2.k.m.k.k.3.k.x.2.",
"u a ^ #.#.^ a t r j #.^ ^ 7 f t t g ^ o.o.! p 7 6 g #.^ x 6 p t ",
"I > < | I I I > P P K , P K P P K > < | L H L > P P H , P C | L ",
"H N G U B c Z N M G J A G A A A H Z G } m : Z N m G G Z J D D Z ",
"V M M V U F b & F Y V S n V n b V M B C U U M & U Y S S : V B M ",
"* = - * % % ; ; ; % * % = X - % * = - * o o - ; ; * o o =   = X "
};
