/* XPM */
static char *result[] = {
/* columns rows colors chars-per-pixel */
"32 32 174 2 ",
"   c #0D372B",
".  c #0F392D",
"X  c #123B32",
"o  c #462903",
"O  c #4A2D02",
"+  c #4D3306",
"@  c #55390A",
"#  c #5F3E1F",
"$  c #174135",
"%  c #1B443B",
"&  c #5C401B",
"*  c #6C4D0B",
"=  c #6C4E05",
"-  c #644C15",
";  c #6B4D15",
":  c #664F19",
">  c #6B4D1D",
",  c #724D1C",
"<  c #6D531C",
"1  c #6E581F",
"2  c #73531C",
"3  c #77591C",
"4  c #7D5E1D",
"5  c #745515",
"6  c #555122",
"7  c #595526",
"8  c #5C5529",
"9  c #5E5A2B",
"0  c #6C4D21",
"q  c #6F4F28",
"w  c #6D5223",
"e  c #625E2F",
"r  c #725424",
"t  c #765A27",
"y  c #7D5D25",
"u  c #745529",
"i  c #75592A",
"p  c #7B5C2C",
"a  c #7D5E34",
"s  c #7A5B3A",
"d  c #7C622B",
"f  c #7E682F",
"g  c #6A6437",
"h  c #7D6133",
"j  c #7F6930",
"k  c #726D3E",
"l  c #1C5C5C",
"z  c #214940",
"x  c #2C554B",
"c  c #2E5B49",
"v  c #1F615F",
"b  c #3C6857",
"n  c #1A6666",
"m  c #1B6568",
"M  c #1E686B",
"N  c #236563",
"B  c #226E6E",
"V  c #2B6B6C",
"C  c #246E71",
"Z  c #267173",
"A  c #287474",
"S  c #3D7D7D",
"D  c #347476",
"F  c #736F40",
"G  c #7D7749",
"H  c #4C7B67",
"J  c #4E7A69",
"K  c #537F6E",
"L  c #836426",
"P  c #82622C",
"I  c #916F2F",
"U  c #96782F",
"Y  c #826535",
"T  c #8F6F3C",
"R  c #836038",
"E  c #916E34",
"W  c #8D723A",
"Q  c #8C7237",
"!  c #91703C",
"~  c #98703F",
"^  c #9B7B3C",
"/  c #997635",
"(  c #A37C3E",
")  c #A17F37",
"_  c #8F6C48",
"`  c #926F45",
"'  c #8F7043",
"]  c #937545",
"[  c #937A42",
"{  c #997B44",
"}  c #907249",
"|  c #9C7D4C",
" . c #997646",
".. c #977750",
"X. c #9D7E54",
"o. c #997A55",
"O. c #A77F41",
"+. c #A97F43",
"@. c #A37E4D",
"#. c #53826E",
"$. c #558471",
"%. c #588775",
"&. c #5A8975",
"*. c #5F8B7A",
"=. c #9E8038",
"-. c #A68639",
";. c #9B8147",
":. c #9D834B",
">. c #8A8355",
",. c #9D8151",
"<. c #9F8854",
"1. c #A38446",
"2. c #AA8345",
"3. c #A48845",
"4. c #A4844D",
"5. c #AD874A",
"6. c #A1884E",
"7. c #AC8D4D",
"8. c #AF8E47",
"9. c #B18A4C",
"0. c #B5944E",
"q. c #BB9A4D",
"w. c #A48453",
"e. c #AA8757",
"r. c #A68A54",
"t. c #AC8C55",
"y. c #A4865A",
"u. c #AC8C5C",
"i. c #B48D53",
"p. c #B98F53",
"a. c #B38D5B",
"s. c #AD9155",
"d. c #AD935A",
"f. c #B39454",
"g. c #BB9356",
"h. c #B4935D",
"j. c #BB935C",
"k. c #B4985E",
"l. c #BB9B5C",
"z. c #AD8D63",
"x. c #AB8968",
"c. c #B18D67",
"v. c #AF9266",
"b. c #B49463",
"n. c #BA9563",
"m. c #B59A63",
"M. c #BA9A64",
"N. c #B4946B",
"B. c #BA966A",
"V. c #B6996B",
"C. c #BB9C6B",
"Z. c #BB9C71",
"A. c #B69573",
"S. c #BCA063",
"D. c #BFA06B",
"F. c #BDA072",
"G. c #C1975B",
"H. c #C29A5D",
"J. c #C29C65",
"K. c #C39D6A",
"L. c #C4A365",
"P. c #C2A26B",
"I. c #C8A06C",
"U. c #C4A472",
"Y. c #C4A37A",
"T. c #E1C37C",
"R. c #357F82",
"E. c #378383",
"W. c #398485",
"Q. c #3F8B8B",
"!. c #428282",
"~. c #FFF5BF",
"^. c #FFF5C3",
"/. c #FFF5C8",
/* pixels */
"f.0.8.l.P.P.g.L.b.B.K.M.L.M.f.U 0.f.7.l.L.L.j.I.j.J.K.M.P.l.f.U ",
"n.h.g.g.E ( 0.0.l.L.7.7.j.b.e.4.n.h.h.f.I ( g.9.l.H.7.i.h.h.r.w.",
"c.B.a.M.7.0.q.-.=.^ 5.f.r.B.A.` c.B.u.M.7.0.q.-.) U 5.h.w.N.V.} ",
"_ R y  .{ 4 = T.L.L ; y r q a q _ R p { { 4 * T.L.L ; L r q a u ",
"B.U.1.h.K.K.M.~./.Y.A.h.u.z.| h.M.U.4.h.J.C.D././.Y.V.b.a.h.| h.",
"7.f.f.h.X.z.,.X.s x.c.C.h.M.l.8.7.g.h.h.| b.,.o.s x.z.Z.h.b.l.7.",
"4.3.7.M.z.z.u...# A.c.u.r.w.;.3.1.4.i.n.u.z.z...& N.v.x.r.4.1.1.",
"0 ; P P ] h 3 | + q a Y Y } h 2 , ; Y P ! d r :.+ w a Y Y ' P , ",
"B.B.C.M.r.d.M.;.- C.D.D.Z.Z.N.w.B.C.C.M.r.d.S.;.& S.F.F.F.C.N.w.",
"b.h.k.b.b.b.7.[ @ y.u.:.u.y.w.Q a.a.M.b.m.m.r.[ & <.u.,.r.y.w.W ",
"P.k.7.t.r.w.;.i + N.z.r.w.r.h.3.P.j.7.t.<.:.,.i + b.u.z.4.4.f.1.",
"5 = L { ' i i | o h } j d ; 3 = 5 * P { Q t i X.o g } j d ; 3 ; ",
"M.t.7.K.V.V.d.t o A.F.:.U.d.P.M.M.t.t.L.M.M.v.t O C.F.X.U.u.D.S.",
"e.t.l.h.w.6.r.r.>.A.v.t.b.N.u.t.e.u.m.h.4.6.r.r.| N.b.u.b.b.e.d.",
"B.@.@.h.V.e.6.Q C.V.z.w.w...w.4.b.w.| h.b.e.w.W V.V.z.w.w.| w.w.",
", P d > 2 P Q [ ' a > d 0 i > , > Y d , 2 P !  .] p , a 0 i - < ",
"n.p.a.J.K.K.J.K.n.K.K.K.K.K.b.~ j.p.a.J.L.K.J.K.j.K.K.K.K.K.b.~ ",
"h.h.h.f.! 4.u.h.h.M.t.t.n.h.4.r.h.h.b.i.! 4.t.b.h.M.s.t.n.h.4.w.",
"d.k.s.m.s.s.h.;.6.{ :.d.r.m.k.W s.k.s.M.r.d.m.{ 4.{ :.d.r.m.m.Q ",
"Q d d [ [ d : 2 d Y - f 1 : d < W d d [ [ d : < d j : f 1 : h < ",
"M.D.w.h.M.P.C.4.S.D.M.b.u.u.| V.m.P.e.h.P.P.K.@.C.K.m.b.d.u.| m.",
"a.a.h.n.@.u.@. .@.a.a.m.b.n.M.a.u.a.a.n.@.u.@. .@.a.a.b.h.n.M.a.",
"w.e.a.b.u.b.a.] n.b.b.c.u.:.X.w.w.e.u.b.a.b.a.] V.b.b.b.r.w.@.w.",
"0 > Y Y ' p u > w > h h Y ' h > > > Y Y ] i w > w > h h R } h 0 ",
"B.V.U.b.u.e.K.C.M.P.C.C.C.C.b.w.B.n.U.b.u.u.C.C.B.P.C.C.D.C.b.w.",
"p.9.p.G.G.G.i.2.2.2.9.5.5.O.9./ p.i.p.G.G.G.p.+.2.2.9.5.5.O.9./ ",
"H.G.g.2.+.( +.O.p.5.g.9.5.9.p.2.H.j.g.2.+.( 1.+.p.5.g.9.2.9.p.1.",
"8 8 g >.G k 9 9 7 k G k g 6 9 7 8 8 g >.G k 9 9 6 F G F g 6 e 7 ",
"K b J K *.H K x $.&.&.c $.H K %.#.b K K *.J J c #.&.&.c #.#.#.$.",
"C C W.R.M m C n n W.E.B !.C A Z C Z E.R.M m Z m n E.E.B !.Z Z Z ",
"Z l M D J N N l !.R.V N n N N N V v V D S N M l $.E.V N v N v n ",
"X z z X X z x x c % X % . . X . X z X . X z x x x $ X % .   $   "
};
