/* XPM */
static char *result[] = {
/* columns rows colors chars-per-pixel */
"80 80 91 1 ",
"  c #372A17",
". c #3B2E1B",
"X c #3D301D",
"o c #423522",
"O c #664B16",
"+ c #694B16",
"@ c #6B4E1C",
"# c #6E511D",
"$ c #71511E",
"% c #55452E",
"& c #6E5220",
"* c #715423",
"= c #7E5E2B",
"- c #6D5736",
"; c #7E612D",
": c #7E6230",
"> c #8D431C",
", c #92461F",
"< c #8E4422",
"1 c #944721",
"2 c #944A23",
"3 c #9B4C25",
"4 c #964B28",
"5 c #9B4E29",
"6 c #9C512B",
"7 c #9E5532",
"8 c #A14F27",
"9 c #A25124",
"0 c #A3542C",
"q c #A8572B",
"w c #A4592F",
"e c #AB5A2D",
"r c #A35731",
"t c #A55A33",
"y c #AB5C34",
"u c #A75E39",
"i c #AB5F3A",
"p c #B05F33",
"a c #826432",
"s c #8F713D",
"d c #91713B",
"f c #AE6036",
"g c #AD623B",
"h c #B36235",
"j c #B4643B",
"k c #B9663C",
"l c #B6693F",
"z c #BA6A3E",
"x c #937442",
"c c #987A44",
"v c #967748",
"b c #9D7D49",
"n c #9F7F50",
"m c #B36640",
"M c #B66942",
"N c #BC6D43",
"B c #A17F4A",
"V c #BD7046",
"C c #BF7249",
"Z c #C16E44",
"A c #C17145",
"S c #C2714A",
"D c #FF8F00",
"F c #FFD800",
"G c #9E824E",
"H c #9E8252",
"J c #A2834D",
"K c #A38552",
"L c #AA8652",
"P c #A78A57",
"I c #AC8B55",
"U c #A58959",
"Y c #AD8D5A",
"T c #B18F5A",
"R c #AE915C",
"E c #B09057",
"W c #B3935D",
"Q c #B9965E",
"! c #AE8F60",
"~ c #AF9363",
"^ c #B39563",
"/ c #B99662",
"( c #B79964",
") c #BC9B65",
"_ c #BD9E68",
"` c #BFA16C",
"' c #C19E69",
"] c #C0A067",
"[ c #C2A16B",
"{ c #FFFF97",
"} c white",
/* pixels */
"WEE_'')'Q___)`WdWEE)]')]W')_)_WdQEE_]]Q]W]'_`_WdQEE`'')'Q'____WdWEE)[](]Q'_)__Wd",
"WWWEdnIQE)YI(WJLWWQYdJIQW)EI(^JPWWWEdJEQT/II(WJPWWWEdnEWWQRI(WJIWTQYdJTWE)EI(RJP",
"RQE_IT^BLbJWP((sY/T'IY^bLbJRL(/sR)E)YR^GJbKWP((sRQE`IT^bJbJEP(^sY/T/ITWbLbJRI(/s",
"da;xxa@$;a+a*#;#d=axca+$;a+a*@a*s;;xc;+#aa+a*+a#s;;dxa@$aa+a*+a#daaxca@#;a+a*@a*",
"/[L/'''B_'(WEYb(''L/'''J_[)^YTb(/'L/'''B_[(^TYb(([L/'''B_')^REb(/'LQ'''J_[)^IYb(",
"ITT/BYBxBTY)W()YITT/BIBxBRY(W/(YITT/BLBcbYT(W^)RITT/BYBxBTY(W()TTTT'BLBxJTY/^((Y",
"LPY^Y!!FD(~~UHHHnU!^Y~Wx^^~~UHHHUL!^Y!!FD(~~UHGHLIY^Y!!v((~~UHnHnU!^T~!FD^~~UHnH",
"@@aax=*{}@::ax:@@@aax=$@&@::ax:@@@aax=*{}@::ax;#@@aax=*@&@::ax:@@@aax=*{}@::ax:@",
"Q''(IT'b-_)``QQJQ)'/LW]_]]``]QWP//'/LW'B-')'`QQJQ'](LE'_(_```QQJQ)'QLW'n-]``])QJ",
"QEEQQQIv%JEJLJIdQEWQQQIJGJIJIJPdQTWQQWEx%JEJLGIdQEWQQQIJJKIJJJIdQEWQQQIv%JIGLJPs",
")QWPJJKnoRRRGPRK)(EPJJJGIERRGIRH(/WLGJJnoRRIGRRK(QEIJJJGYRRRGPRK)(EPJJJBoEWRGI~K",
"#+=cx=&b%=x::O#@#+;cd;##O;sa;O&#$+acx=&n%;xa:O&@$+;bd;#@@;x:;O##$+;cd=&H%;s:;O&@",
"_LE[)(Wv%[`J`W``_LW_)(Wb```G_W`__PE_)(Wv%`_J_W`__PT_((WJ`[_J`W``_IR'))^x%``J_W`_",
"II)WbKT-X(WYWRREIY/^bJRHGQQI^YYYEL/^BJY-XW^Y^WYYII(WBKTKb(^YWRIEII(^bJY-.WWEWRYY",
"WBK^/YHn.(YHUHGGWBJ^^Rnx_(EGUGKJWBKW/YHnX(RHKHKHWBJ^^Ybx)(RHUGHGWBJ^^RHnX(RGUGKH",
"@a;@@:x- a&:@&@*@aa@@axvx:#a&&@*@aa@#:x- :&a&&@&@aa#@:xvxa&:@*#*@aa@@ax- :#a&&@&",
"WEE]]])]Q_____WdWEE_]]Q]Q'____WdQEE)]'Q'W```)`WdWEE_'')]Q]'___WdWTE)]](]Q')'__Wd",
"W^WIdJIQE/YI(WJPWQWEdJEQT(II(WJPWWQIdJE^E(EIQQJPWWWEdKIWW(YI(WJIWWQYdJTWW(EI(WJP",
"W(T_IW(bJbKRP)(sR(E`IY^GJbKTI((sR(I_IW/bLbJRP(WsR(E_LT/BJbJEI(^sT^T)IT^bLbJRP(^x",
"s==xv;+$aa+a*+a#d;;dca+#aa+a*+a#d;axv=@*;aOa&#a$d;=vxa@$aa+a*+a#d=axca+$;a+a*@a&",
"/'L/'''B_[)^TYb(/'L/'''B_[)^YEG(([L/'''B_[(WRRb(/[L/'''B_'(^RYb(/'L/'''J_[)^YYB/",
"ITT/BIBcb~Y/W^)RTTT/BIBcGYY(W^(REIW/bIBxJIT(R`(YIE!/BIBxBTT(W()TITQ/BIBxJYY(W/(Y",
"UL!~Y!Tv^(~~UHGHnY!^Y!!x(~^~UHGHLUI/!!!v~(^^PHHGLLY~!!!v((~~UHHHKU!^T!Rv^^~~UHHH",
"@@aax=*@&@::ax;#@@aax=*@&@::ax;@@@aax:&@&@:=:x:@@@aax=*@&@::ax:@@@aax=$@#@::ax:@",
"//'/LW])'Q''`QQJ//'/IW')'Q''`QQL//'/LW''__)`))WLQ)[QLE]_(_`)``WJQ)'/LW]_`)]`')WP",
"QTQQQWEJJJEJLGIdQTWQQWEJJJEJLGLdQTWQQQLJGJEJLJIdQEWWQQIJJKEJJJLdQEWQQQIJBJEJLJPd",
")/TIGJJHRWEIGR~H)QTIJGJHRWEPGRRK)/WPJJJJRRRYJIRG)QWPJJJGYRRRGPEK)(EPJJJGERRRGIRH",
"#+=cx;##O;sa;O&#@+acd;&#@;sa:O&@#+=cs;$+O;xa;O##$+;bd;#@@;sa;O##$+;cd=##O;s:;O&#",
"_IE')(Wb``_J`W[_'PT_)(Wb``_J`W`__IE_`QWG''`K_W`__LE[)^WG`[_J`W``_LE_((WG``]G_W`_",
"II(^BJYJG`^Y^RYYIL(WBJYJGW^Y^RYYII)WGJEJb^^Y^YYYII)WBKTLb(^YWRREII)^JJYHGWWE^RYY",
"WnK^^YJxW(RHPbKH^BKW^YJx`(RKPHKH~BJ^^RGs((!KPGKn~KKW^Ynx)(!HUGGG^GLW^Ynx_(EGKHKH",
"@a=@#axvs:&:@*@&#aa@#axvs;@:@&@&@:a@#:xvxa@a@&@*@:;#@:xxxa@:#*@*@a;@@axvx:#a&&#&",
"WEE)[])'E`)```WdWEE)[])'Q)__``WdWWE_]]Q]Q'__`)WdQEE`''('W]___)WdWEE)]]('Q])_)_Wd",
"WWQYdJI^W`IIQWJPWWQYdJIWR)ERQWJPWWQIdJEQT(IIQWJPWQQIdBIQE)YI(WJIWW/YdJEWE)EI(^JP",
"E)E)IW/bLGJWP(^dW(I)IW/BJGJRI(^dW(R_IY^GKbGWP((sRQE`YT/bLbJWP(^sL/T/IT^bLbJRL(/s",
"d;adxa@$=a+a*+a#d;axc=@$aa+a*Oa#d==xca+#=a@a*#;#s;;sxa@$;a+a*#a#daaxca@$;a+a*@a#",
"/[L/'''B)[(WRIG(/[L/'''n)[(WREb(''L/'''B_[)^YTb(([L/'''B_[)^EYb(/'L/'''J_[(^YTb(",
"ITT/bIBxGIE(R`(YITT/bUBxBEY/R`(YLTT/BLBcb~Y/W^)RIET/BYBxBTY(W()YTTT'BIBcbTY(!/_Y",
"LUY^!!!v~(^^UHGGLUY^!!!x((^~UHGHLU!~Y!!v^(~~UHGHLPY^Y!!v((~~UHnHnUU^Y~Rx((~~UHHH",
"@@aax:&@&@:=:x:#@@aax=*@&@:;:x:@@@aax=*@&@::ax;#@@aax=*@&@::ax:@$@aax=$#&@::ax:@",
"//'(IT''`))`]QWL//''LT''`))]])WL//'/IW'')'Q]`QQJQ)[QLE]_(_`_`QQLQ)'QIT')])```QQP",
"QTWQQQIJGGEJIJIdQTEQQQLJGJEJLJIdQTWQQWIJJJEJLGIdQEWWQQIJJKEJJJLdQEWQQQIJGJEGLJPd",
")/WIJJJJRRRYGPEG)/WPJJJJRRRYGIRG)QTLJJJHRWRIGRRK)QWPJJJHYRRRGPRK)(EPJJJGERWRGIRH",
"#+=cd;$+@;x:;O###+;cd;#@O;xa;O###+acd;&@@;sa:O&@$+;bd;#@@;s::O##$+;cda#@O;s:;O&@",
"_PW_((WG''_K_^`__IE_)QWG`'_K_W`)_PE_))Wb``_J`W`__LW`)/WJ`[`J`W``_LR'((WG```J_W`_",
"II(WJJEJn^/Y^TYYII)WGJEJB^^Y^RRYEL/^bJYJG(WY^RYYII(WBKYKb(^IWRPEII(^JJYGcQWE^YYY",
"TJK^/YJx((!KPbKH~bK^^YJx(^!KPbKJWJK^/YKx((RKKHKH~JJW^Ybx)(RHUGGHWBKW^Ynx_(RGUGKH",
"@a:@@;xvxa@a@&@*@a:@#:xcxa@a&&@*@a=@&:xvs:#a&&@&@a;#@:xvxa&:@*#*@aa#@axvx:#a&&#&",
"WWE_''Q]W]___)WdQTE_]'('Q'_)__WdQEE)]'Q'Q`_`)`WdWEE_'')]Q'_'__WdWWE)]](]Q')___Wd",
"WWQIdLI(E)YI(WJIWTWTdJEWE)EI^WJPWWQIdJE^E)IIQWJPWWWEsBIWW(YI(WJIEWWTdJTWE_II/WGP",
"E(E_LT^BLbJWK`^sI/I'IW^bLbJRP(^xR(I_IW/BLcJRP((sE(E_YT/BJbJEI(^sY/T'IT^bLGJWI(^x",
"d;=xxa@$;a+a*+a#daaxc=@#;a+a*@a*d;axv=@$;aOa*#;#d;=vxa@$aa+a*+a#d=axca+$=a+a*@:$",
"/[L/'''B_[)^RRb(''nT'''J_[(^YYB/('L/'''n`[(WRIG(/[L/'''B_')WRYb(''L/'''J)[)^IYb)",
"TT!/BTBxBYY/W((EITQ'BIBcJYY/!((YEET/bUBxJIT(W`(RIT!/BIBxBTY(W()TITT/BIBxBRY^^((Y",
"KLY~Y!!v((~~UHnKnU!^Y~Rx^(~~IHHHLUY^!!!x((^~PHHGPLY~T!!v((~~UHHHnU!^Y~Wx^(~~UHnH",
"@@aax=*@&@::ax:@@@aax=$@&@::ax:@@@aax=*@&@:;:x:@@@aax=*@&@::ax:@@@aax=*+&#::ax:@",
"Q'](LE'_(_)`)`WJQ)'QLW]_`)```)WL//')IT''`))`Q`WLQ'])IE])__``)QQLQ)''LT]']]``])WJ",
"EEWQQQIJJKEJLJIdWTQQQQIJBJEJLJPdQTEQQQIBGGEJLJIdQEWWQQIJJHEJLJLdQEEQQQIJGJIGLJPs",
"_(WIJJJHYRRRGPEJ)(WIJJJGERREGIRK)/EPJJJJRRRYGIEG(QEIJJGGYRRRGPRG((EPJJJGEEWRJIRU",
"$+;cd;##@;x::O###O;cd=##O;s:;O&@#+acd;$@@;x:;O##$+acd=##O;x::O*@$+acda#+O;s:;O&@",
"'PE])/WJ```J`W``_LT_((WG``]G_^`_'LR_)QWG''_K)^`__PE[)/WG``)J`W``_IY_((^b```J_W`_",
"LI(WBKYJb(^YRRIEYI(WJJYHGWWE^YYYII(WGJEJb^/Y^WYILI(WbKYLbQ(RWREPII(^JJYGGWWI^!YY",
"TJJ^^Ynx)(YHUGHH^JJW^Ynx_(EGUnKJ^GK^/YJx((!KKHKH^BJ^^Ynx((RHUHGGWBKW^Ynx_(RJUnKn",
"@;a$@:xxxa#:@*#*@;a#@axvx:#a@&@*@a:@&:xxxa@a@*@*@aa@@:xvxa#:#*@*@aa@#axvx:#a@&@*",
"kpkZAZZZjZZzAZj8hhhZSZZSpZZZZZi8jphZZZZSpZZZZZj8hpjZZZZZkzAzAAj8hpjZZZZZhNAVZAj8",
"khhy80ejlfppkjy0khke80epZpppjjyqkjje8qppZpypjjy0kkjq80eklhfhkjy0khjt8qpizhehjky0",
"ekyMiij00eetflf6tjyMimi08rqrpmi0rkiMiik80eqrimi5ekyNmpm06eewyli6tjyMmiiq0wewyjg6",
"3636141122,,,,225530131,31111,143840431,2,111123363614,<22,22>13893013,122,22,14",
"kMrZSZM0NMMlyttfkz0NCNNrVMNMpryijN0NZNN0NNMlfttipm0NNZM0MVMlfryfpNrNZZM0NNMMgrtf",
"ppmiqir87gjgjMMgfjmgrir5wyjgmmmpijjjri050igfjlMgimmmri087gjfgMlgiimmri086ggggMMg",
"ryuiiii5mgggur777ttfiiu5Mguuurr76tuiiiu5Mgugu77rritiiii5Mgggg777rytiiii5mmfgur77",
",>4444<<>222452,,>2554<<>244454<<>4554<,<152254<1>4544<<>222252,1>4544<<>222452,",
"kzZkppNNZkzzVVjqzzNkthzVNzzVAVj0zzzkehNNzzzzVVk0kzZkppNNZkzZVzl6NkZjppNNZkzZVVjq",
"phhkjjpq08eewwe3hhhkkhheq9eqqqe3hpkkjkpqq9eqq0e3pphkjjpq08eqe7y9pphkjjpq08eqqwy3",
"Vkfytr06gektwwg7Sjpyrrw6ywgetwgwVkgyr0r6ffjftwg7Ckpitrr6gejewwg7Skpptrr6gfhtu7g7",
">>26311<,,6>2>2>>>26312,226>2>2>>>16321,,,3,2>2>>>35311<,,6>2>2>>>45311<,,3,2>2>",
"ZjlVVMg0lCVglMVCVhzVVMg6lVVfMMVSVjlVNNgwlVVfVMVCNjlVNMg0MCVfMMVCNklVVMg0lVVgllVC",
"ppggwwru6llglgwuffjf77f77llglfrfffjfr0tywllfMg7ffyggtwtr6llglgwufyjgwwtr6llglg7u",
"w7wfjm74lgfw677ut7wfmmu2lgf7677uu6rummt2ggfw667ut6tfjm74lgfw677ut6rggmr4lgfw677u",
"2,22>26662>2>2<>222<><6662>2<<<>222<<<66a2>2<<<>2222<16662>2>2<>222<<26662>2>2<>"
};
