/* XPM */
static char *result[] = {
/* columns rows colors chars-per-pixel */
"80 80 94 2 ",
"   c #372A17",
".  c #3B2E1B",
"X  c #3D301D",
"o  c #43162A",
"O  c #4B152C",
"+  c #451A2D",
"@  c #4A192E",
"#  c #441F30",
"$  c #4B1D31",
"%  c #511F35",
"&  c #423522",
"*  c #4C2134",
"=  c #4F283A",
"-  c #522136",
";  c #522539",
":  c #5B2139",
">  c #57283C",
",  c #5A2A3F",
"<  c #61273F",
"1  c #664B16",
"2  c #694B16",
"3  c #6B4E1C",
"4  c #6E511D",
"5  c #71511E",
"6  c #55452E",
"7  c #6E5220",
"8  c #715423",
"9  c #7E5E2B",
"0  c #6D5736",
"q  c #7E612D",
"w  c #7E6230",
"e  c #5C2E42",
"r  c #5E3145",
"t  c #642C43",
"y  c #692D46",
"u  c #6B2F48",
"i  c #633146",
"p  c #65354A",
"a  c #6C344C",
"s  c #67394D",
"d  c #6B394E",
"f  c #72354E",
"g  c #6C3D51",
"h  c #733750",
"j  c #743C53",
"k  c #7A3D56",
"l  c #7C3F58",
"z  c #6E4155",
"x  c #754056",
"c  c #754559",
"v  c #7C435A",
"b  c #7F485F",
"n  c #826432",
"m  c #8F713D",
"M  c #91713B",
"N  c #813F5A",
"B  c #82435D",
"V  c #937442",
"C  c #987A44",
"Z  c #967748",
"A  c #9D7D49",
"S  c #9F7F50",
"D  c #A17F4A",
"F  c #834760",
"G  c #804960",
"H  c #FF8F00",
"J  c #FFD800",
"K  c #9E824E",
"L  c #9E8252",
"P  c #A2834D",
"I  c #A38552",
"U  c #AA8652",
"Y  c #A78A57",
"T  c #AC8B55",
"R  c #A58959",
"E  c #AD8D5A",
"W  c #B18F5A",
"Q  c #AE915C",
"!  c #B09057",
"~  c #B3935D",
"^  c #B9965E",
"/  c #AE8F60",
"(  c #AF9363",
")  c #B39563",
"_  c #B99662",
"`  c #B79964",
"'  c #BC9B65",
"]  c #BD9E68",
"[  c #BFA16C",
"{  c #C19E69",
"}  c #C0A067",
"|  c #C2A16B",
" . c #FFFF97",
".. c white",
/* pixels */
"~ ! ! ] { { ' { ^ ] ] ] ' [ ~ M ~ ! ! ' } { ' } ~ { ' ] ' ] ~ M ^ ! ! ] } } ^ } ~ } { ] [ ] ~ M ^ ! ! [ { { ' { ^ { ] ] ] ] ~ M ^ W ! ' } { ' } ~ { ' ] ] ] ~ M ",
"~ ~ ~ ! M S T ^ ! ' E T ` ~ P U ~ ~ ^ E M P T ^ ~ ' ! T ` ) P Y ~ ~ ~ ! M P ! ^ W _ T T ` ~ P Y ~ ~ ~ ! M S ! ~ ~ ^ Q T ` ~ P T ~ W ^ E M P T ^ ~ ' ! T ` Q P Y ",
"Q ^ ! ] T W ) D U A P ~ Y ` ` m E _ W { T E ) A U A P Q U ` _ m Q ' ! ' E Q ) K P A I ~ Y ` ` m Q ^ ! [ T W ) A P A P ! Y ` ) m T _ T { T E ) A U A P Q T ` _ m ",
"M n q V V n 3 5 q n 2 n 8 4 q 4 M 9 n V C n 2 5 q n 2 n 8 3 n 8 m q q V C q 2 4 n n 2 n 8 2 n 4 m q q M V n 3 5 n n 2 n 8 2 n 4 M n n V C n 2 5 q n 2 n 8 3 n 4 ",
"_ | U _ { { { D ] { ` ~ ! E A ` { { U _ { { { P ] | ' ) E W A ` _ { U _ { { { D ] | ` ) W E A ` ` | U _ { { { D ] { ' ) Q ! A ` { { S W { { { D ] | ' ~ E W A ` ",
"T W W _ D E D V D W E ' ~ ` ' E T W W _ D T D V D Q E ` ~ _ ` E T W W _ D U D C A E W ` ~ ) ' Q T W W _ D E D V D W E ` ~ ` ' W T W ^ { D T D C D Q E ` / ` ' E ",
"U Y E ) E / / J H ` ( ( R L L L S R / ) E ( ~ V ) ) ( ( R L L L R U / ) E / / J H ` ( ( R L K L U T E ) E / / Z ` ` ( ( R L S L S R / ) / / E J H ) ( ( R L S L ",
"3 3 n n V 9 8  ...3 w w n V w 3 3 3 n n V 9 5 3 7 3 w w n V w 3 3 3 n n V 9 8  ...3 w w n V q 4 3 3 n n V 9 8 3 7 3 w w n V w 3 3 3 n n V 9 8  ...3 w w n Z w 3 ",
"^ { { ` T W { A 0 ] ' [ [ ^ ^ P ^ ' { _ U ~ } ] } } [ [ } ^ ~ Y _ _ { _ U ~ { D 0 { ' { [ ^ ^ P ^ { } ` U ! { ] ` ] [ [ [ ^ ^ P _ ` { ^ U ~ { S 0 ' [ [ [ ' ~ U ",
"^ ! ! ^ ^ ^ T Z 6 P ! P U P T M ^ ! ~ ^ ^ ^ T P K P T P T P Y M ^ W ~ ^ ^ ~ ! V 6 P ! P U K T M ^ ! ~ ^ ^ ^ T P P I T P P P T M ^ ! ^ ^ ^ ^ ! Z 6 P ! P U P Y m ",
"' ^ ~ Y P P I S & Q Q Q K Y Q I ' ` ! Y P P P K T ! Q Q K T Q L ` _ ~ U K P P S & Q Q T K Q Q I ` ^ ! T P P P K E Q Q Q K Y Q I ' ` ~ T P P P A & ! Q ! K T Q I ",
"4 2 9 C V 9 7 A 6 9 V w w 1 4 3 4 2 q C M q 4 4 1 q m n q 1 7 4 5 2 n C V 9 7 S 6 q V n w 1 7 3 5 2 q A M q 4 3 3 q V w q 1 4 4 4 1 9 C M 9 4 L 6 q m w q 1 7 3 ",
"] U ! | ' ` ~ Z 6 | [ P [ ~ [ [ ] U ~ ] ' ` ~ A [ [ [ K ] ~ [ ] ] Y ! ] ' ` ~ Z 6 [ ] P ] ~ [ ] ] Y W ] ` ` ~ P [ | ] P [ ~ [ [ ] U ~ ] ` ` ~ Z 6 [ [ K ] ~ [ ] ",
"T T ' ~ A I W 0 X ` ~ E ~ Q Q ! T E _ ) A P Q L K ^ ^ T ) E E E ! U _ ) D P E 0 X ~ ) E ) ~ E E T T ` ~ D I W I A ` ) E ~ Q T ! T E ` ~ P I E 0 X ~ ~ ! ) Q E E ",
"~ D I ) _ E L S . ` E L R L K K ~ D P ) ) Q S V ] ` ! K R K I P ~ D I ~ _ E L S X ` Q L I L I L ~ D P ) ) E A V ' ` Q L R K L K ) A U ~ ) E L A X ` Q K R K I L ",
"3 n q 3 3 w V 0   n 7 w 3 7 3 8 3 n n 3 3 n V Z V w 4 n 7 7 3 8 3 n n 3 4 w V 0   w 7 n 7 7 3 7 3 n n 4 3 w V Z V n 7 w 3 8 4 8 4 w q 3 3 n V 0   n 4 n 7 8 1 8 ",
"~ ! ! } } } ' } ^ ] ] ] ] ] ~ M ~ ! ! ] } } ^ } ^ { ] ] ] ] ~ M ^ ! ! ' } { ^ { ~ [ [ [ ' [ ~ M ~ ! ! ] { { ' } ^ } { ] ] ] ~ M ~ ! ! ' | } ` } ^ { ] ] ] ] ~ M ",
"~ ) ~ T M P T ^ ! _ E T ` ~ P Y ~ ^ ~ ! M P ! ^ W ` T T ` ~ P Y ~ ~ ^ T M P ! ) ! ` ! T ^ ^ P Y ~ ~ ~ ! M I T ~ ~ ` E T ` ~ P T ~ ~ _ E M P ! ~ ! ' T T ) ~ P T ",
"~ ` W ] T ~ ` A P A I Q Y ' ` m Q ` ! [ T E ) K P A I W T ` ` m Q ` T ] T ~ _ A U A P Q Y ` ~ m Q ` ! ] U W _ D P A P ! T ` ) m U _ W _ T W ~ A P K P ~ T ` ) m ",
"m 9 9 V Z q 2 5 n n 2 n 8 2 n 4 M q q M C n 2 4 n n 2 n 8 2 n 4 M q n V Z 9 3 8 q n 1 n 7 4 n 5 M q 9 Z V n 3 5 n n 2 n 8 2 n 4 M n n V C n 3 5 n n 1 n 8 3 n 8 ",
"_ { U _ { { { D ] | ' ) W E A ` _ { U _ { { { D ] | ' ) E ! K ` ` | U _ { { { D ] | ` ~ Q Q A ` _ | U _ { { { D ] { ` ) Q E A ` _ { U _ { { ' P ' | ` ) W W A ` ",
"T W W _ D T D C A ( E _ ~ ) ' Q W W W _ D T D C K E E ` ~ ) ` Q ! T ~ _ A T D V P T W ` Q [ ` E T ! / _ D T D V D W W ` ~ ` ' W W W W { D T D C D W E ` ) ` ` E ",
"R U / ( E / W Z ) ` ( ( R L K L S E / ) E / / V ` ( ) ( R L K L U R T _ / / / Z ( ` ) ) Y L L K U U E ( / / / Z ` ` ( ( R L L L S R / ) E ( ~ V ) ) ( ( R L S L ",
"3 3 n n V 9 8 3 7 3 w w n V q 4 3 3 n n V 9 8 3 7 3 w w n V q 3 3 3 n n V w 7 3 7 3 w 9 w V w 3 3 3 n n V 9 8 3 7 3 w w n V w 3 3 3 n n V 9 8 2 7 3 w w n V w 3 ",
"_ _ { _ U ~ } ' { ^ { { [ ^ ^ P _ _ { _ T ~ { ' { ^ { { [ ^ ^ U _ _ { _ U ~ { { ] ] ' [ ' ' ~ U ^ ' | ^ U ! } ] ` ] [ ' [ [ ~ P _ ' { ' T W { ' } ' } [ [ ' ~ U ",
"^ W ^ ^ ^ ~ ! P P P ! P U K T M ^ W ~ ^ ^ ~ ! P P P ! P U K U M ^ W ~ ^ ^ ^ U P K P ! P U P T M ^ ! ~ ~ ^ ^ T P P I ! P P P U M ^ ! ! ^ ^ ^ T P D K ! K T P T M ",
"' _ W T K P P L Q ~ ! T K Q ( L ' ^ W T P K P L Q ~ ! Y K Q Q I ' _ ~ Y P P P P Q Q Q E P T Q K ' ^ ~ Y P P P K E Q Q Q K Y ! I ' ` ! Y P D P K ! Q ~ Q K I ( L ",
"4 2 9 C V q 4 4 1 q m n q 1 7 4 3 2 n C M q 7 4 3 q m n w 1 7 3 4 2 9 C m q 5 2 1 q V n q 1 4 4 5 2 q A M q 4 3 3 q m n q 1 4 4 4 2 q C M n 4 4 1 q m n q 1 7 3 ",
"] T ! { ' ` ~ A [ [ ] P [ ~ | ] { Y W ] ' ` ~ A [ [ ] P [ ~ [ ] ] T ! ] [ ^ ~ K { { [ I ] ~ [ ] ] U ! | ' ) ~ K [ | ] P [ ~ [ [ ] U ~ [ ` ` ~ K [ [ [ K ] ~ [ ] ",
"T T ` ) D P E P K [ ) E ) Q E E T U ` ~ D P E P K ~ ) E ) Q E E T T ' ~ K P ! P A ) ) E ) E E E T T ' ~ D I W U A ` ) E ~ Q Q ! T E _ ~ P P E K A ^ ~ ! ) E E E ",
"~ S I ) ) E P V ~ ` Q L Y A I L ) D I ~ ) E P V [ ` Q I Y L I L ( D P ) ) Q K m ` ` / I Y K I S ( I I ~ ) E S V ' ` / L R K K K ) D I ) ~ ! K V ' ` Q K R K I L ",
"3 n 9 3 4 n V Z m w 7 w 3 8 3 7 4 n n 3 4 n V Z m q 3 w 3 7 3 7 3 w n 3 4 w V Z V n 3 n 3 7 3 8 3 w q 4 3 w V V V n 3 w 4 8 3 8 3 9 n 4 3 n V Z V w 4 n 7 7 3 8 ",
"~ ! ! ' | } ' { ! [ ' [ [ [ ~ M ~ ! ! ' | } ' { ^ ' ] ] [ [ ~ M ~ ~ ! ] } } ^ } ^ { ] ] [ ' ~ M ^ ! ! [ { { ` { ~ } ] ] ] ' ~ M ~ W ! ' | } ` { ^ } ] ] ' ] ~ M ",
"~ ~ ^ E M P T ) ~ [ T T ^ ~ P Y ~ ~ ^ E M P T ~ Q ' ! Q ^ ~ P Y ~ ~ ^ T M P ! ^ W ` T T ^ ~ P Y ~ ^ ^ T M D T ^ ! ' E T ` ~ P T ~ ~ ^ E M P ! ~ ! ' T T ` ) P Y ",
"! ' ! ' T ~ _ A U K P ~ Y ` ) M ~ ` T ' T ~ _ D P K P Q T ` ) M ~ ` Q ] T E ) K I A K ~ Y ` ` m Q ^ ! [ E W _ A U A P ~ Y ` ) m U _ T { T W ) A U A P ~ T ` _ m ",
"M q n M V n 3 5 9 n 2 n 8 2 n 4 M q n V C 9 3 5 n n 2 n 8 1 n 4 M 9 9 V C n 2 4 9 n 3 n 8 4 q 4 m q q m V n 3 5 q n 2 n 8 4 n 4 M n n V C n 2 5 q n 2 n 8 3 w 5 ",
"_ | U _ { { { D ' | ` ~ Q T K ` _ | U _ { { { S ' | ` ~ Q ! A ` { { U _ { { { D ] | ' ) E W A ` ` | U _ { { { D ] | ' ) ! E A ` { { S ^ { { { P ] | ` ) W E D ` ",
"T W W _ A T D V K T ! ` Q [ ` E T W W _ A R D V D ! E _ Q [ ` E U W W _ D U D C A ( E _ ~ ) ' Q T ! W _ D E D V D W E ` ~ ` ' E T W W { D T D C D Q E ` ) ` ` E ",
"U R E ) / / / Z ( ` ) ) R L K K U R E ) / / / V ` ` ) ( R L K L U R / ( E / / Z ) ` ( ( R L K L U Y E ) E / / Z ` ` ( ( R L S L S R / ) E ( Q V ) ) ( ( R L S L ",
"3 3 n n V w 7 3 7 3 w 9 w V w 4 3 3 n n V 9 8 3 7 3 w q w V w 3 3 3 n n V 9 8 3 7 3 w w n V q 4 3 3 n n V 9 8 3 7 3 w w n V w 3 3 3 n n V 9 5 4 7 3 w w n V w 3 ",
"_ _ { ` T W { { [ ' ' [ } ^ ~ U _ _ { { U W { { [ ' ' } } ' ~ U _ _ { _ T ~ { { ' { ^ } [ ^ ^ P ^ ' | ^ U ! } ] ` ] [ ] [ ^ ^ U ^ _ { ' U ~ { ' ' } } [ [ ' ~ U ",
"^ W ~ ^ ^ ^ T P K K ! P T P T M ^ W ! ^ ^ ^ U P K P ! P U P T M ^ W ~ ^ ^ ~ T P P P ! P U K T M ^ ! ~ ~ ^ ^ T P P I ! P P P U M ^ ! ~ ^ ^ ^ T P D K ! K U P T M ",
"' _ ~ T P P P P Q Q Q E K Y ! K ' _ ~ Y P P P P Q Q Q E K T Q K ' ^ W U P P P L Q ~ Q T K Q Q I ' ^ ~ Y P P P L E Q Q Q K Y Q I ' ` ~ T P P P K ! Q ~ Q K Y ( I ",
"4 2 9 C M q 5 2 3 q V w q 1 4 4 4 2 q C M q 4 3 1 q V n q 1 4 4 4 2 n C M q 7 3 3 q m n w 1 7 3 5 2 q A M q 4 3 3 q m w w 1 4 4 4 1 q C M 9 4 4 1 q m w q 1 7 1 ",
"] Y ~ ] ` ` ~ K { { ] I ] ) [ ] ] T ! ] ' ^ ~ K [ { ] I ] ~ [ ' ] Y ! ] ' ' ~ A [ [ ] P [ ~ [ ] ] U ~ [ ' _ ~ P [ | [ P [ ~ [ [ ] U W ] ` ` ~ K [ [ } P ' ~ [ [ ",
"T T ` ~ P P ! P S ) _ E ) W E E T T ' ~ K P ! P D ) ) E ) Q Q E ! U _ ) A P E P K ` ~ E ) Q E E T T ` ~ D I E I A ` ) T ~ Q Y ! E T ` ~ P P E L K ~ ~ ! ) E E E ",
"W P I ) _ E P V ` ` / I Y A I L ( A I ) ) E P V ` ) / I Y A I P ~ P I ) _ E I V ` ` Q I I L I L ( P P ~ ) E A V ' ` Q L R K K L ) P P ~ ) E S V [ ` ! K R K I L ",
"3 n w 3 3 q V Z V n 3 n 3 7 3 8 3 n w 3 4 w V C V n 3 n 7 7 3 8 3 n 9 3 7 w V Z m w 4 n 7 7 3 7 3 n q 4 3 w V Z V n 7 w 3 8 4 8 3 q n 4 3 n V Z V w 4 w 7 7 4 7 ",
"~ ~ ! ] { { ^ } ~ } ] ] ] ' ~ M ^ W ! ] } { ` { ^ { ] ' ] ] ~ M ^ ! ! ' } { ^ { ^ [ ] [ ' [ ~ M ~ ! ! ] { { ' } ^ { ] { ] ] ~ M ~ W ! ] } } ` } ^ } ] ] ] ] ~ M ",
"~ ~ ^ T M U T ` ! ' E T ` ~ P T ~ W ~ W M P ! ~ ! ' ! T ) ~ P Y ~ ~ ^ T M P ! ) ! ' T T ^ ~ P Y ~ ~ ~ ! m D T ~ ~ ` E T ` ~ P T ~ ~ ^ T M P W ~ ! ' T T ) ( P T ",
"! ` ! ] U W ) D U A P ~ I [ ) m T _ T { T ~ ) A U A P Q Y ` ) V Q ` T ] T ~ _ D U C P Q Y ` ` m ! ` ! ] E W _ D P A P ! T ` ) m E ) W { T W ) A U K P ~ T ` _ V ",
"M q 9 V V n 3 5 q n 2 n 8 2 n 4 M n n V C 9 3 4 q n 2 n 8 3 n 8 M q n V Z 9 3 5 q n 1 n 8 4 q 4 M q 9 Z V n 3 5 n n 2 n 8 2 n 4 M n 9 V C n 2 5 9 n 2 n 8 3 w 5 ",
"_ | U _ { { { D ] | ' ) Q Q A ` { { S W { { { P ] | ` ) E E D _ ` { U _ { { { S [ | ` ~ Q T K ` _ | U _ { { { D ] { ' ~ Q E A ` { { U _ { { { D ] | ' ) E E A ` ",
"W W / _ D W D V D E E _ ~ ` ` ! T W ^ { D T D C P E E _ / ` ` E ! ! W _ A R D V P T W ` ~ [ ` Q T W / _ D T D V D W E ` ~ ` ' W T W W _ D T D C P E E ` ~ _ ` E ",
"I U E ( E / / Z ` ` ( ( R L S I S R / ) E ( Q V ) ` ( ( T L L L U R E ) / / / V ` ` ) ( Y L L K Y U E ( W / / Z ` ` ( ( R L L L S R / ) E ( Q V ) ) ( ( R L L L ",
"3 3 n n V 9 8 3 7 3 w w n V w 3 3 3 n n V 9 5 3 7 3 w w n V w 3 3 3 n n V 9 8 3 7 3 w q w V w 3 3 3 n n V 9 8 3 7 3 w w n V w 3 3 3 n n V 9 5 4 7 3 w w n V w 3 ",
"^ { } ` U ! { ] ` ] ' [ ' [ ~ P ^ ' { ^ U ~ } ] [ ' [ [ [ ' ~ U _ _ { ' T W { { [ ' ' [ ^ [ ~ U ^ { } ' T ! } ' ] ] [ [ ' ^ ^ U _ ' { ^ T W { ' } ' [ [ } ^ ~ U ",
"! ! ~ ^ ^ ^ T P P I ! P U P T M ~ W ^ ^ ^ ^ T P D P ! P U P Y M ^ W ! ^ ^ ^ T D K K ! P U P T M ^ ! ~ ~ ^ ^ T P P L ! P U P U M ^ ! ~ ^ ^ ^ T P K K ! P U P Y M ",
"] ` ~ T P P P L E Q Q Q K Y ! P ' ` ~ T P P P K ! Q Q ! K T Q I ' _ ! Y P P P P Q Q Q E K T ! K ` ^ ! T P P K K E Q Q Q K Y Q K ' ` ~ T P D P K ! Q ~ Q K Y ( I ",
"5 2 q C M q 4 4 3 q V w w 1 4 4 4 1 q C M 9 4 4 1 q m w q 1 7 3 4 2 n C M q 5 3 3 q V w q 1 4 4 5 2 n C M 9 4 4 1 q V w w 1 8 3 4 1 9 C M n 4 4 1 q m n q 1 7 3 ",
"{ Y ! } ' _ ~ P [ [ [ P [ ~ [ [ ] U W ] ` ` ~ K [ [ } K ] ) [ ] { U Q ] ' ^ ~ K { { ] I ' ) [ ] ] Y ! | ' _ ~ K [ [ ' P [ ~ [ [ ] T Q ] ` ` ~ K [ [ } P ] ~ [ ] ",
"U T ` ~ D I E P A ` ) E Q Q T ! E T ` ~ P P E L K ~ ~ ! ) E E E T T ` ~ K P ! P A ) _ E ) ~ E T U T ` ~ A I E U A ^ ` Q ~ Q ! Y T T ` ~ D P E L K ~ ! ! ) E E E ",
"W P P ) ) E S V ' ` E L R K L L ) P P ~ ) E S V ] ` ! K R S I P ) K I ) _ E P V ` ` / I I L I L ) D P ) ) E S V ` ` Q L R L K K ) D U ~ ) Q S V ] ` Q P R L I K ",
"3 q n 5 3 w V V V n 4 w 3 8 4 8 3 q n 4 3 n V Z V w 4 n 3 7 3 8 3 n w 3 7 w V V V n 3 n 3 8 3 8 3 n n 3 3 w V Z V n 4 w 4 8 3 8 3 n q 3 3 n V Z V w 4 n 3 7 3 8 ",
"k f k l B l B v N N B N k B j : N f N k B v B B B l N N l B j : k f N l B l B B v N B N l B k : k f k N B k B B N N B N N B j < h f k N B v B B B l B N k B k : ",
"N k f p : t y v f v f u N j , y N h f u : t y x f l f a N j < y v j f y : t y k h l f u v j < t N k f p : t y v f v f u v h < t N k f p : < t v f v f u B h < t ",
"y c s c s z z e i , t i s c z = i c s c s z z , i , t p p c j - i c s x s z z e i e t i s c z ; t c s c s z z , i , e i p v z = t c s c d z z , i , t i p c z ; ",
"- % % ; * $ + o * $ $ % O O $ $ - % % ; * $ + + * @ $ $ @ + $ $ - - - ; * $ + o $ $ $ $ O + @ $ % % % ; * $ + o - @ $ % O @ $ $ - % - ; * @ + + - @ $ % O @ $ $ ",
"l k t v G v v y j F v j j i t h k k t l B v v y k F v j j y t j k k t v b v v y k F v j j y t j k k t v b v v y k B v j j i t j k l < v b v v t k B v j j i t j ",
"f l k h t a t : y y h j j c v s f v j f t d t : y y f j j v v p f N j f < d t : y y h j h v v p f l j h t d t : t y h j h v v p f v j h t d t : t y f j h v c s ",
"t y y g s s r > c j g j p e , r t i y c s s i > x c j g s e > r t p i g s s r > x c g g p e , r t i t x s s r > c c g j p e , r t i t x s s i > c c d j p , , r ",
"O O % % - $ @ + @ $ @ @ $ - $ + O O - $ - @ @ + @ @ $ @ $ * * + O O - % - $ $ $ @ $ @ O * - * + O O % % - $ @ + @ @ @ @ $ ; $ + O O - % - $ @ + @ $ @ @ * ; * o ",
"k v B k d a x v v v v v v B j y l v v j a h x v v v v B v B x t l N v j d f j v v v v v v v j t k B v k d d v v v v v v v b c t k B v k d d k v v B v v v B c t ",
"k f j v j d d y y t a y p , i - j f k v j a g t y t d y i , i - j a k v h g d t y t f y p e i % j f j v h g a t y t h y y , i % j f j v j d d t y t f i p , i - ",
"b j p i p r e e s i d p r e z p v c p p p r e e p p s i e e g p v c p p p r e e p p s p e e g p b j s i p r e r s i s i r e d p b j p i p r e r s i s i r , z p ",
"@ @ - ; ; @ o @ @ - - * $ # + o @ $ % - ; # + @ $ % - $ $ # $ o @ $ - - ; $ o $ $ - - $ $ $ $ o @ @ - ; ; + o @ @ - - * * + * o @ $ - ; ; + o + @ - - * * + + o ",
"l t j B x x v t x B v y v j v v l y h G c x x t k v l y v j v v l t h b j j k e k v v y v j v v v t j B x x v < v v v y v j b x v t j B x c v t v v v y v j b x ",
"h a x c t t i e y k k p k f d p j u j k t > i t y k k a v a h p j p j v y t i t y k k u l a g p f a x x t t p e y k k y v d d p j u j c i < y e y k v y v a s s ",
"y r r r z z e = z c s p , r > e r r e p z z e - c c p p e r , e r r e r z z e = z c p p e e > e i r r p z z , = z c s p , r , e t r r p z z e = x c p p , r , , ",
"+ * * + # # * = ; + @ @ @ + * + # * * # # * * = ; + + # + o * + + * * # # * = ; ; + @ $ # + * + @ * # + # # * = ; + @ @ @ o * + @ * # + + # * = = + @ @ @ o * + "
};
