/* XPM */
static char *result[] = {
/* columns rows colors chars-per-pixel */
"16 16 17 1 ",
"  c #BD7C5E",
". c #B27055",
"X c #AD6B52",
"o c #7C473E",
"O c #945747",
"+ c #5D3738",
"@ c #8A4E41",
"# c #BA7758",
"$ c #EA9033",
"% c #FEAE34",
"& c #F6757A",
"* c #FF9B9E",
"= c #A7634A",
"- c #DA7732",
"; c #DB4B53",
": c #492D33",
"> c white",
/* pixels */
" .XXXXX  .XXXXX ",
"o XXXX Oo XXXX O",
"+o    O@+o    O@",
"++#$% @@++#&* @@",
"++=-$#@@++=;&#@@",
"++====@@++====@@",
"+:::::+@+:::::+@",
":::::::+:::::::+",
" .XXXXX  .XXXXX ",
"o XXXX Oo XXXX O",
"+o    O@+o    O@",
"++#$% @@++#&* @@",
"++=-$#@@++=;&#@@",
"++====@@++====@@",
"+:::::+@+:::::+@",
":::::::+:::::::+"
};
