/* XPM */
static char *result[] = {
/* columns rows colors chars-per-pixel */
"16 16 37 1 ",
"  c #F5AE5A",
". c #402508",
"X c #EDA856",
"o c #FBBB65",
"O c #5F381A",
"+ c #EAA04F",
"@ c #D58136",
"# c #FAB862",
"$ c #CD782F",
"% c #EDA756",
"& c #F7B05A",
"* c #824E2F",
"= c #DA924D",
"- c #FFBD64",
"; c #915839",
": c #7E2713",
"> c #FCB25A",
", c #A22633",
"< c #CF8F46",
"1 c #F7B15C",
"2 c #FEC369",
"3 c #783428",
"4 c #F7B05B",
"5 c #FCBD67",
"6 c #F1A552",
"7 c #FBB861",
"8 c #593517",
"9 c #F9B55F",
"0 c #8D3923",
"q c #ECA756",
"w c #FCB962",
"e c #BD6F2E",
"r c #F9B762",
"t c #F6AE58",
"y c #893437",
"u c #F4AA54",
"i c white",
/* pixels */
"  .XoO++@@XXoo++",
"  XXoo++@@XXoo++",
"##$%&&@@##%%@**%",
"##%%OO@@##%@%O*@",
"==-O;O:>==-o%%%=",
"==-OO:,>=O-o@@o=",
"<122334411<2<<44",
"1122<<441122<<44",
"5.66778.556677.9",
"556677..5%00@799",
"==11<qww$O*O.q<<",
"==11qqww=OO..q<<",
"ee8.rr<tq-..>r8,",
"ee..rrttqq<<rryy",
"XXoo++uu8.oo++uu",
"XX<oOOuu..oo++<u"
};
