/* XPM */
static char *result[] = {
/* columns rows colors chars-per-pixel */
"16 16 13 1 ",
"  c #3E2731",
". c #4E2F2F",
"X c #E4A672",
"o c #EAD4AA",
"O c #733E39",
"+ c #D77643",
"@ c #A97A6D",
"# c #B78373",
"$ c #B4806F",
"% c #A27465",
"& c #9C6D5D",
"* c #8F5F4E",
"= c white",
/* pixels */
" ..XXo ..       ",
" ..O++ ..O+ OX+ ",
".   OO      oXX ",
".  ..    .  ++O ",
" @ ..  @@@  OO  ",
"##    @##$%  .. ",
"@@    &%%@@  .. ",
"**  . %%$$%     ",
"&&    &%*** .   ",
"&&&  **&&&&*   &",
"***&&&&****&&&**",
"****************",
"&****&%&****&%&*",
"&&%%&&&&&%%&&&&&",
"*&&&&***&&&&***&",
"****************"
};
