/* XPM */
static char *result[] = {
/* columns rows colors chars-per-pixel */
"32 32 190 2 ",
"   c #271604",
".  c #2A1000",
"X  c #2B1500",
"o  c #2C1702",
"O  c #281504",
"+  c #291605",
"@  c #2A1706",
"#  c #2D1803",
"$  c #2B1905",
"%  c #2A1907",
"&  c #2E1906",
"*  c #2D1B07",
"=  c #2F1A07",
"-  c #2C1B09",
";  c #2E1B0A",
":  c #2E1D0B",
">  c #311901",
",  c #331902",
"<  c #321A02",
"1  c #331B03",
"2  c #351B02",
"3  c #301B06",
"4  c #311B06",
"5  c #341C04",
"6  c #361C05",
"7  c #3B1F07",
"8  c #331D08",
"9  c #321D0A",
"0  c #301E0A",
"q  c #311F0B",
"w  c #331E0B",
"e  c #301D0C",
"r  c #301F0D",
"t  c #341F0C",
"y  c #391F08",
"u  c #35200B",
"i  c #36200B",
"p  c #32200C",
"a  c #33200F",
"s  c #35200D",
"d  c #37220D",
"f  c #36210E",
"g  c #34220E",
"h  c #3A2009",
"j  c #3B210A",
"k  c #3C2209",
"l  c #3F2409",
"z  c #3E240B",
"x  c #3E240D",
"c  c #372511",
"v  c #3B2611",
"b  c #382612",
"n  c #3B2613",
"m  c #3C2611",
"M  c #382715",
"N  c #3F2912",
"B  c #3B2915",
"V  c #3E2914",
"C  c #3F2A15",
"Z  c #3E2916",
"A  c #3C2A16",
"S  c #3D2B17",
"D  c #3E2C18",
"F  c #3F2D19",
"G  c #41260B",
"H  c #43280D",
"J  c #47290D",
"K  c #452A0F",
"L  c #482A0E",
"P  c #412710",
"I  c #412911",
"U  c #432910",
"Y  c #422A12",
"T  c #432B13",
"R  c #442810",
"E  c #452911",
"W  c #442A11",
"Q  c #462B10",
"!  c #452B12",
"~  c #442A13",
"^  c #462A12",
"/  c #472B13",
"(  c #472C11",
")  c #462C13",
"_  c #412B14",
"`  c #402B16",
"'  c #412B16",
"]  c #422C15",
"[  c #412C17",
"{  c #432D16",
"}  c #422C17",
"|  c #442C14",
" . c #462D17",
".. c #472F17",
"X. c #482A10",
"o. c #492B11",
"O. c #4B2D11",
"+. c #4A2C12",
"@. c #4B2D13",
"#. c #492E13",
"$. c #482C14",
"%. c #482E15",
"&. c #492F16",
"*. c #4A2E16",
"=. c #4B2F17",
"-. c #4D2F15",
";. c #422D1A",
":. c #412F1B",
">. c #432E1B",
",. c #442E19",
"<. c #452F1A",
"1. c #442F1C",
"2. c #492F18",
"3. c #4B3015",
"4. c #4A3017",
"5. c #4C3116",
"6. c #4E3016",
"7. c #463019",
"8. c #45301B",
"9. c #47311A",
"0. c #46301B",
"q. c #42301C",
"w. c #45301D",
"e. c #46311C",
"r. c #47311C",
"t. c #46311E",
"y. c #47321F",
"u. c #4B3118",
"i. c #4B311A",
"p. c #48321B",
"a. c #4A321A",
"s. c #4B331B",
"d. c #4C3018",
"f. c #4D3119",
"g. c #4E3318",
"h. c #4C321B",
"j. c #4E321A",
"k. c #4F3419",
"l. c #4E341B",
"z. c #49331C",
"x. c #4B321C",
"c. c #48331E",
"v. c #49331E",
"b. c #4D331C",
"n. c #4C331D",
"m. c #4B351E",
"M. c #4A341F",
"N. c #4C341C",
"B. c #4D341E",
"V. c #4F351E",
"C. c #4E351F",
"Z. c #4C361F",
"A. c #503115",
"S. c #513216",
"D. c #513317",
"F. c #503218",
"G. c #513319",
"H. c #533519",
"J. c #52341A",
"K. c #53351B",
"L. c #54361A",
"P. c #55371B",
"I. c #50341C",
"U. c #51351D",
"Y. c #50361D",
"T. c #52371C",
"R. c #53371F",
"E. c #54361C",
"W. c #55371D",
"Q. c #53381D",
"!. c #52381F",
"~. c #54391E",
"^. c #57391F",
"/. c #463420",
"(. c #473521",
"). c #493421",
"_. c #4B3520",
"`. c #493723",
"'. c #4A3824",
"]. c #4F3924",
"[. c #503721",
"{. c #533920",
"}. c #553921",
"|. c #503A25",
" X c #513B26",
".X c #543B25",
"XX c #523C25",
"oX c #583A20",
"OX c #5A3C22",
"+X c #533D28",
/* pixels */
"D.L H.D.W.E.E.^.F.T.~.Q.~.~.3.l D.L H.D.W.E.E.^.F.T.~.Q.~.~.3.l ",
"C.n.C.{ N ] 7.7.m.M.r.<.r.v.,.m C.n.C.{ N ] 7.7.m.M.r.<.r.v.,.m ",
"8.c.e.e.;.w.y.;.Z S D q./.(.:.B 8.c.e.e.;.w.y.;.Z S D q./.(.:.B ",
"z k 2 P x y , . 6 1 > < 5 5 5 5 z k 2 P x y , . 6 1 > < 5 5 5 5 ",
"S.A.J L.L.P.H.O.OXoXW.J.-.o.X.+.S.A.J L.L.P.H.O.OXoXW.J.-.o.X.+.",
"&.l.u.4.! ) W h P ~ 2.b.b.a.s.N.&.l.u.4.! ) W h P ~ 2.b.b.a.s.N.",
"v ` ).w.1.t.>.n '.`.(.q.F S A B v ` ).w.1.t.>.n '.`.(.q.F S A B ",
"4 X i 8 d u 3 # o = 9 t s f w = 4 X i 8 d u 3 # o = 9 t s f w = ",
"5.T.Q.g.=.d.I.}.R.!.Y.Y.{.!.4.W 5.T.Q.g.=.d.I.}.R.!.Y.Y.{.!.4.W ",
"K.F.-.6.G.k.#.G H H $./ / ^ R 7 K.F.-.6.G.k.#.G H H $./ / ^ R 7 ",
"Z.p.z.9._ N } ' v.0._.` V C c.[ Z.p.z.9._ N } ' v.0._.` V C c.[ ",
"0 $ q c p e ; O @ e M - r % :   0 $ q c p e ; O @ e M - r % :   ",
"x. .B..X[.m.z._ Z.XX X} ]._.|.+Xx. .B..X[.m.z._ Z.XX X} ]._.|.+X",
"6.@.-.6.( K Q H K f.j.E U.*./ $.6.@.-.6.( K Q H K f.j.E U.*./ $.",
"%.! U ) u.h.~ j V.i...Y T I | | %.! U ) u.h.~ j V.i...Y T I | | ",
"& w w = * 0 g b c * e a + @ e @ & w w = * 0 g b c * e a + @ e @ ",
"D.L H.D.W.E.E.^.F.T.~.Q.~.~.3.l D.L H.D.W.E.E.^.F.T.~.Q.~.~.3.l ",
"C.n.C.{ N ] 7.7.m.M.r.<.r.v.,.m C.n.C.{ N ] 7.7.m.M.r.<.r.v.,.m ",
"8.c.e.e.;.w.y.;.Z S D q./.(.:.B 8.c.e.e.;.w.y.;.Z S D q./.(.:.B ",
"z k 2 P x y , . 6 1 > < 5 5 5 5 z k 2 P x y , . 6 1 > < 5 5 5 5 ",
"S.A.J L.L.P.H.O.OXoXW.J.-.o.X.+.S.A.J L.L.P.H.O.OXoXW.J.-.o.X.+.",
"&.l.u.4.! ) W h P ~ 2.b.b.a.s.N.&.l.u.4.! ) W h P ~ 2.b.b.a.s.N.",
"v ` ).w.1.t.>.n '.`.(.q.F S A B v ` ).w.1.t.>.n '.`.(.q.F S A B ",
"4 X i 8 d u 3 # o = 9 t s f w = 4 X i 8 d u 3 # o = 9 t s f w = ",
"5.T.Q.g.=.d.I.}.R.!.Y.Y.{.!.4.W 5.T.Q.g.=.d.I.}.R.!.Y.Y.{.!.4.W ",
"K.F.-.6.G.k.#.G H H $./ / ^ R 7 K.F.-.6.G.k.#.G H H $./ / ^ R 7 ",
"Z.p.z.9._ N } ' v.0._.` V C c.[ Z.p.z.9._ N } ' v.0._.` V C c.[ ",
"0 $ q c p e ; O @ e M - r % :   0 $ q c p e ; O @ e M - r % :   ",
"x. .B..X[.m.z._ Z.XX X} ]._.|.+Xx. .B..X[.m.z._ Z.XX X} ]._.|.+X",
"6.@.-.6.( K Q H K f.j.E U.*./ $.6.@.-.6.( K Q H K f.j.E U.*./ $.",
"%.! U ) u.h.~ j V.i...Y T I | | %.! U ) u.h.~ j V.i...Y T I | | ",
"& w w = * 0 g b c * e a + @ e @ & w w = * 0 g b c * e a + @ e @ "
};
