/* XPM */
static char *result[] = {
/* columns rows colors chars-per-pixel */
"32 32 187 2 ",
"   c #998757",
".  c #998850",
"X  c #9C8B53",
"o  c #9C8C51",
"O  c #998854",
"+  c #9B8A54",
"@  c #9C8B55",
"#  c #9C8B57",
"$  c #9D8C54",
"%  c #9D8C56",
"&  c #9E8D57",
"*  c #9B8959",
"=  c #9B895B",
"-  c #9D8C58",
";  c #9E8D59",
":  c #9F8E58",
">  c #9E8C5A",
",  c #9F8E5A",
"<  c #9F8D5D",
"1  c #A08F5B",
"2  c #A08E5C",
"3  c #A18F5D",
"4  c #A19156",
"5  c #A29257",
"6  c #A19058",
"7  c #A29159",
"8  c #A5955A",
"9  c #A3925C",
"0  c #A4935F",
"q  c #A5945C",
"w  c #A6955F",
"e  c #A7965E",
"r  c #A8975F",
"t  c #A8985D",
"y  c #A29062",
"u  c #A59460",
"i  c #A69462",
"p  c #A79563",
"a  c #A79662",
"s  c #A89763",
"d  c #AB9A62",
"f  c #A99864",
"g  c #AC9B67",
"h  c #AF9E66",
"j  c #A99769",
"k  c #AD9C68",
"l  c #AE9D69",
"z  c #AE9C6A",
"x  c #AF9E6A",
"c  c #B19F6F",
"v  c #B2A267",
"b  c #B1A06A",
"n  c #B2A16B",
"m  c #B4A36B",
"M  c #B4A469",
"N  c #B3A26C",
"B  c #B3A26E",
"V  c #B6A56D",
"C  c #B7A66E",
"Z  c #B8A76F",
"A  c #B8A86D",
"S  c #BAAA6F",
"D  c #B3A171",
"F  c #B4A270",
"G  c #B5A371",
"H  c #B5A373",
"J  c #B5A470",
"K  c #B6A571",
"L  c #B7A670",
"P  c #B6A472",
"I  c #B7A672",
"U  c #B8A771",
"Y  c #B8A773",
"T  c #B8A674",
"R  c #B9A775",
"E  c #B9A870",
"W  c #BAA971",
"Q  c #BAA973",
"!  c #B9A874",
"~  c #BAA975",
"^  c #BAA876",
"/  c #BBA977",
"(  c #BBAA76",
")  c #BCAB75",
"_  c #BCAB77",
"`  c #BDAC76",
"'  c #BAA878",
"]  c #BDAB7B",
"[  c #BEAD79",
"{  c #BDAB7D",
"}  c #C0AF77",
"|  c #C3B377",
" . c #C1B078",
".. c #C1B07A",
"X. c #C4B479",
"o. c #C6B678",
"O. c #C7B77B",
"+. c #C3B27C",
"@. c #C2B07E",
"#. c #C3B17F",
"$. c #C3B27E",
"%. c #C4B37D",
"&. c #C5B47C",
"*. c #C5B47E",
"=. c #C6B57F",
"-. c #C7B67E",
";. c #C8B87D",
":. c #C9B97E",
">. c #CBBB7F",
",. c #C3B181",
"<. c #C5B480",
"1. c #C7B680",
"2. c #C8B783",
"3. c #C8B684",
"4. c #C9B785",
"5. c #C8B686",
"6. c #C9B787",
"7. c #C9B880",
"8. c #CBBB80",
"9. c #C9B882",
"0. c #CAB983",
"q. c #CFBF81",
"w. c #CEBE83",
"e. c #C9B884",
"r. c #CBBA84",
"t. c #CAB886",
"y. c #CCBB85",
"u. c #CDBC84",
"i. c #CCBA88",
"p. c #CDBB89",
"a. c #CEBD89",
"s. c #CEBC8A",
"d. c #D0BF87",
"f. c #D0BF89",
"g. c #D0BF8B",
"h. c #D1C185",
"j. c #D1C186",
"k. c #D2C286",
"l. c #D2C287",
"z. c #D4C486",
"x. c #D1C088",
"c. c #D3C388",
"v. c #D1C08A",
"b. c #D2C18B",
"n. c #D3C28A",
"m. c #D4C38B",
"M. c #D5C58A",
"N. c #D6C68A",
"B. c #D7C78B",
"V. c #D1C08C",
"C. c #D2C18D",
"Z. c #D3C28C",
"A. c #D2C08E",
"S. c #D3C28E",
"D. c #D4C38D",
"F. c #D5C48C",
"G. c #D6C58D",
"H. c #D7C78C",
"J. c #D6C58F",
"K. c #D8C78F",
"L. c #D8C88A",
"P. c #D8C88D",
"I. c #D9C98D",
"U. c #DACA8F",
"Y. c #D6C591",
"T. c #D7C690",
"R. c #D7C692",
"E. c #D6C494",
"W. c #D8C791",
"Q. c #D8C793",
"!. c #D8C694",
"~. c #D9C890",
"^. c #D9C892",
"/. c #DBCA92",
"(. c #DCCC90",
"). c #DCCC91",
"_. c #DFCF93",
"`. c #D9C894",
"'. c #DBCA94",
"]. c #DAC896",
"[. c #DBC997",
"{. c #DDCC94",
"}. c #DFCE96",
"|. c #DFCE98",
" X c #DFCD9B",
".X c #E0CF99",
"XX c #E0CF9B",
/* pixels */
"z.o.B.M.~./.K.).h._.L.I.(.U.n.h z.o.B.M.~./.K.).h._.L.I.(.U.n.h ",
"q.N.| :.V m u.j.j.N.>.| l.x.E ` q.N.| :.V m u.j.j.N.>.| l.x.E ` ",
"O.c.j.F.=.b.1.C W M A :.&.T.D.k O.c.j.F.=.b.1.C W M A :.&.T.D.k ",
"v 8 r n g f ; & r e X d + % u 3 v 8 r n g f ; & r e X d + % u 3 ",
"m.G.L Q.XXA.[.! T.|.K.f.0.e.P A.m.G.L Q.XXA.[.! T.|.K.f.0.e.P A.",
"-.Z.T.2.G p./ k ( +.y.v.g.[.s.5.-.Z.T.2.G p./ k ( +.y.v.g.[.s.5.",
"C } ..g.3.4.#.K D.J.y.y.$.Y T ' C } ..g.3.4.#.K D.J.y.y.$.Y T ' ",
"5 . w g x 0 1 # : X d q w B p > 5 . w g x 0 1 # : X d q w B p > ",
"M.P.{.f.e.2.R.'.~././.G.}.W.Y.R M.P.{.f.e.2.R.'.~././.G.}.W.Y.R ",
"k.;.d.~.v.v.r.U Z M w.S } L _ l k.;.d.~.v.v.r.U Z M w.S } L _ l ",
"I.H.8.&.Q ) U Z -.:.X.X. .) f.[ I.H.8.&.Q ) U Z -.:.X.X. .) f.[ ",
"4 o 6 N b 0 @ 9 $ t v r 7 % - O 4 o 6 N b 0 @ 9 $ t v r 7 % - O ",
"H.} v..XY.C.V.J '.~.~.W ^.S. X].H.} v..XY.C.V.J '.~.~.W ^.S. X].",
"7.%.J.a.^ R t.[ I b.D.9.`.@.i.,.7.%.J.a.^ R t.[ I b.D.9.`.@.i.,.",
"*.Y I 4.E.6.H z !.V.<.~ F ] H { *.Y I 4.E.6.H z !.V.<.~ F ] H { ",
"; s i <   j c D z s , a 2 * y = ; s i <   j c D z s , a 2 * y = ",
"z.o.B.M.~./.K.).h._.L.I.(.U.n.h z.o.B.M.~./.K.).h._.L.I.(.U.n.h ",
"q.N.| :.V m u.j.j.N.>.| l.x.E ` q.N.| :.V m u.j.j.N.>.| l.x.E ` ",
"O.c.j.F.=.b.1.C W M A :.&.T.D.k O.c.j.F.=.b.1.C W M A :.&.T.D.k ",
"v 8 r n g f ; & r e X d + % u 3 v 8 r n g f ; & r e X d + % u 3 ",
"m.G.L Q.XXA.[.! T.|.K.f.0.e.P A.m.G.L Q.XXA.[.! T.|.K.f.0.e.P A.",
"-.Z.T.2.G p./ k ( +.y.v.g.[.s.5.-.Z.T.2.G p./ k ( +.y.v.g.[.s.5.",
"C } ..g.3.4.#.K D.J.y.y.$.Y T ' C } ..g.3.4.#.K D.J.y.y.$.Y T ' ",
"5 . w g x 0 1 # : X d q w B p > 5 . w g x 0 1 # : X d q w B p > ",
"M.P.{.f.e.2.R.'.~././.G.}.W.Y.R M.P.{.f.e.2.R.'.~././.G.}.W.Y.R ",
"k.;.d.~.v.v.r.U Z M w.S } L _ l k.;.d.~.v.v.r.U Z M w.S } L _ l ",
"I.H.8.&.Q ) U Z -.:.X.X. .) f.[ I.H.8.&.Q ) U Z -.:.X.X. .) f.[ ",
"4 o 6 N b 0 @ 9 $ t v r 7 % - O 4 o 6 N b 0 @ 9 $ t v r 7 % - O ",
"H.} v..XY.C.V.J '.~.~.W ^.S. X].H.} v..XY.C.V.J '.~.~.W ^.S. X].",
"7.%.J.a.^ R t.[ I b.D.9.`.@.i.,.7.%.J.a.^ R t.[ I b.D.9.`.@.i.,.",
"*.Y I 4.E.6.H z !.V.<.~ F ] H { *.Y I 4.E.6.H z !.V.<.~ F ] H { ",
"; s i <   j c D z s , a 2 * y = ; s i <   j c D z s , a 2 * y = "
};
