/* XPM */
static char *result[] = {
/* columns rows colors chars-per-pixel */
"32 32 205 2 ",
"   c #583714",
".  c #503816",
"X  c #533916",
"o  c #593815",
"O  c #5A3916",
"+  c #533918",
"@  c #523A18",
"#  c #533B19",
"$  c #553B1A",
"%  c #543C18",
"&  c #553D19",
"*  c #563C19",
"=  c #563C1B",
"-  c #573F1B",
";  c #533A1C",
":  c #543B1C",
">  c #573D1C",
",  c #563E1C",
"<  c #553C1E",
"1  c #573E1F",
"2  c #5C3B18",
"3  c #5D3C19",
"4  c #5E3D1A",
"5  c #5F3E1B",
"6  c #59411F",
"7  c #61411B",
"8  c #64431A",
"9  c #61401D",
"0  c #64441E",
"q  c #6C491F",
"w  c #5A4220",
"e  c #5A4122",
"r  c #5A4123",
"t  c #5C4221",
"y  c #5D4322",
"u  c #5D4521",
"i  c #5D4523",
"p  c #5F4522",
"a  c #5F4723",
"s  c #5B4224",
"d  c #5D4425",
"f  c #5F4524",
"g  c #5D4426",
"h  c #5E4527",
"j  c #634521",
"k  c #654721",
"l  c #664620",
"z  c #674721",
"x  c #604625",
"c  c #684822",
"v  c #6D4D27",
"b  c #614628",
"n  c #634928",
"m  c #624A28",
"M  c #61482A",
"N  c #654B2A",
"B  c #654D29",
"V  c #664D2F",
"C  c #6D4C29",
"Z  c #714B24",
"A  c #704F26",
"S  c #704F2C",
"D  c #6A502F",
"F  c #6D512C",
"G  c #6E502C",
"H  c #6F512D",
"J  c #6E522D",
"K  c #715025",
"L  c #715027",
"P  c #725126",
"I  c #725128",
"U  c #745328",
"Y  c #76502B",
"T  c #74532A",
"R  c #71502D",
"E  c #70522C",
"W  c #71532D",
"Q  c #70522E",
"!  c #73522F",
"~  c #74522C",
"^  c #71552E",
"/  c #77562D",
"(  c #76542E",
")  c #77552F",
"_  c #79532E",
"`  c #78572C",
"'  c #78572E",
"]  c #79582F",
"[  c #7C5A2D",
"{  c #6A4F32",
"}  c #6B5032",
"|  c #6B5033",
" . c #6D5332",
".. c #725430",
"X. c #735531",
"o. c #735730",
"O. c #735732",
"+. c #745632",
"@. c #755733",
"#. c #715734",
"$. c #705537",
"%. c #715736",
"&. c #7D5732",
"*. c #785734",
"=. c #745831",
"-. c #745833",
";. c #765A33",
":. c #755934",
">. c #765834",
",. c #7B5A31",
"<. c #7A5832",
"1. c #7B5933",
"2. c #7F5E33",
"3. c #785A34",
"4. c #7A5936",
"5. c #785A36",
"6. c #795B37",
"7. c #795D36",
"8. c #7F5E35",
"9. c #7E5C36",
"0. c #7F5D37",
"q. c #715639",
"w. c #725739",
"e. c #73583A",
"r. c #755B38",
"t. c #74593B",
"y. c #765C3B",
"u. c #765B3D",
"i. c #765B3E",
"p. c #775D3C",
"a. c #775C3E",
"s. c #7B5A39",
"d. c #7C5B3A",
"f. c #7B5F38",
"g. c #7A5E39",
"h. c #7B5F3A",
"j. c #7D5C39",
"k. c #7C5E38",
"l. c #7E5D3A",
"z. c #7C5E3A",
"x. c #7D5F3B",
"c. c #7F5E3B",
"v. c #785E3D",
"b. c #785D3F",
"n. c #7C6039",
"m. c #7E603A",
"M. c #7E623B",
"N. c #7A603F",
"B. c #7D613C",
"V. c #7E603C",
"C. c #7E623D",
"Z. c #7C623F",
"A. c #7A5F42",
"S. c #7B6140",
"D. c #7C6241",
"F. c #7E6345",
"G. c #815E34",
"H. c #805F34",
"J. c #825F35",
"K. c #825C37",
"L. c #805F36",
"P. c #855F38",
"I. c #855F3A",
"U. c #826033",
"Y. c #836134",
"T. c #826136",
"R. c #836237",
"E. c #826138",
"W. c #836239",
"Q. c #83613B",
"!. c #856238",
"~. c #86603B",
"^. c #876538",
"/. c #87643A",
"(. c #81603D",
"). c #80623E",
"_. c #81633F",
"`. c #83623F",
"'. c #87613C",
"]. c #84623C",
"[. c #85633D",
"{. c #80643F",
"}. c #83653F",
"|. c #82663F",
" X c #86653C",
".X c #86643E",
"XX c #87653F",
"oX c #88653B",
"OX c #89673A",
"+X c #89633C",
"@X c #8A673D",
"#X c #8A643F",
"$X c #88673E",
"%X c #826140",
"&X c #836241",
"*X c #816540",
"=X c #836541",
"-X c #836740",
";X c #826641",
":X c #816744",
">X c #806547",
",X c #896741",
"<X c #8C6641",
"1X c #876B44",
"2X c #886C47",
/* pixels */
"U.[ Y.^.OXOX!./.G.@XoXoXoX/.J.q U.[ Y.^.OXOX!./.G.@XoXoXoX/.J.q ",
"}.m.m.E k E >._.=X+.6.5.z._...H }.m.m.E k E >._.=X+.6.5.z._...H ",
"#.Z.r.:XS.N.v.D  .%.%.%.y.D.p.N #.Z.r.:XS.N.v.D  .%.%.%.y.D.p.N ",
"c z l v 7 0 o 2 5 9 O 9 4   9 3 c z l v 7 0 o 2 5 9 O 9 4   9 3 ",
"P.P.Z +X#X#X'.Y <XI.<X~.&.&._ K.P.P.Z +X#X#X'.Y <XI.<X~.&.&._ K.",
"l.(.`.l.! 4.S C R *.c.j.d.&X%Xs.l.(.`.l.! 4.S C R *.c.j.d.&X%Xs.",
"} w.t.b.u.a.$.b >XF.e.A.i.| q.{ } w.t.b.u.a.$.b >XF.e.A.i.| q.{ ",
"* X p p f x = $ + = x y t n t > * X p p f x = $ + = x y t n t > ",
"W.E. XW.,.8.$XXX[..XXX[.,X[.].~ W.E. XW.,.8.$XXX[..XXX[.,X[.].~ ",
"H.H.T.R.T.2.` K U P ] ' / A T 8 H.H.T.R.T.2.` K U P ] ' / A T 8 ",
"|.n.;.o.=.o.^ ^ 7.O.g.:.-.J B.-.|.n.;.o.=.o.^ ^ 7.O.g.:.-.J B.-.",
"% & a B u - , # , w m 6 i @ 6 . % & a B u - , # , w m 6 i @ 6 . ",
"M.^ f.1X-X;XC.F B.2X;XO.{.h.*X;XM.^ f.1X-X;XC.F B.2X;XO.{.h.*X;X",
"L.' L.E.L I 1.( ~ Q.9.) Q.0.1.<.L.' L.E.L I 1.( ~ Q.9.) Q.0.1.<.",
"3.W W 3.k.x.X.j V.).@...Q G G H 3.W W 3.k.x.X.j V.).@...Q G G H ",
": d e : 1 r g V M s < h ; ; < < : d e : 1 r g V M s < h ; ; < < ",
"U.[ Y.^.OXOX!./.G.@XoXoXoX/.J.q U.[ Y.^.OXOX!./.G.@XoXoXoX/.J.q ",
"}.m.m.E k E >._.=X+.6.5.z._...H }.m.m.E k E >._.=X+.6.5.z._...H ",
"#.Z.r.:XS.N.v.D  .%.%.%.y.D.p.N #.Z.r.:XS.N.v.D  .%.%.%.y.D.p.N ",
"c z l v 7 0 o 2 5 9 O 9 4   9 3 c z l v 7 0 o 2 5 9 O 9 4   9 3 ",
"P.P.Z +X#X#X'.Y <XI.<X~.&.&._ K.P.P.Z +X#X#X'.Y <XI.<X~.&.&._ K.",
"l.(.`.l.! 4.S C R *.c.j.d.&X%Xs.l.(.`.l.! 4.S C R *.c.j.d.&X%Xs.",
"} w.t.b.u.a.$.b >XF.e.A.i.| q.{ } w.t.b.u.a.$.b >XF.e.A.i.| q.{ ",
"* X p p f x = $ + = x y t n t > * X p p f x = $ + = x y t n t > ",
"W.E. XW.,.8.$XXX[..XXX[.,X[.].~ W.E. XW.,.8.$XXX[..XXX[.,X[.].~ ",
"H.H.T.R.T.2.` K U P ] ' / A T 8 H.H.T.R.T.2.` K U P ] ' / A T 8 ",
"|.n.;.o.=.o.^ ^ 7.O.g.:.-.J B.-.|.n.;.o.=.o.^ ^ 7.O.g.:.-.J B.-.",
"% & a B u - , # , w m 6 i @ 6 . % & a B u - , # , w m 6 i @ 6 . ",
"M.^ f.1X-X;XC.F B.2X;XO.{.h.*X;XM.^ f.1X-X;XC.F B.2X;XO.{.h.*X;X",
"L.' L.E.L I 1.( ~ Q.9.) Q.0.1.<.L.' L.E.L I 1.( ~ Q.9.) Q.0.1.<.",
"3.W W 3.k.x.X.j V.).@...Q G G H 3.W W 3.k.x.X.j V.).@...Q G G H ",
": d e : 1 r g V M s < h ; ; < < : d e : 1 r g V M s < h ; ; < < "
};
