/* XPM */
static char *result[] = {
/* columns rows colors chars-per-pixel */
"32 32 229 2 ",
"   c #634D14",
".  c #664D14",
"X  c #6A4A17",
"o  c #6A4C16",
"O  c #674D1C",
"+  c #6A4F1A",
"@  c #6C4C19",
"#  c #6D4C19",
"$  c #6C4E18",
"%  c #6B4F1D",
"&  c #694F1E",
"*  c #675118",
"=  c #695018",
"-  c #6A5119",
";  c #6B501B",
":  c #6C531A",
">  c #6B511E",
",  c #6A501F",
"<  c #6C501E",
"1  c #6E531E",
"2  c #6E551C",
"3  c #6D571E",
"4  c #70501D",
"5  c #72511E",
"6  c #6F5524",
"7  c #705520",
"8  c #745421",
"9  c #795E29",
"0  c #7F5E29",
"q  c #7A6128",
"w  c #7A6129",
"e  c #7B6229",
"r  c #7D622D",
"t  c #7D612F",
"y  c #7E632E",
"u  c #7B652C",
"i  c #7D6330",
"p  c #7E6230",
"a  c #7E6433",
"s  c #7F6534",
"d  c #7F6930",
"f  c #805F2A",
"g  c #805F2C",
"h  c #82622F",
"j  c #83652F",
"k  c #826732",
"l  c #846431",
"z  c #856532",
"x  c #936F3B",
"c  c #8C733B",
"v  c #8F723A",
"b  c #8F763D",
"n  c #8E783F",
"m  c #91703B",
"M  c #95723C",
"N  c #8D7340",
"B  c #927040",
"V  c #917641",
"C  c #927742",
"Z  c #967540",
"A  c #977545",
"S  c #987742",
"D  c #957C43",
"F  c #937946",
"G  c #987F47",
"H  c #9A7F48",
"J  c #9F7E4B",
"K  c #A07C4A",
"L  c #A17B4C",
"P  c #A27E4C",
"I  c #A07E4E",
"U  c #A17F4F",
"Y  c #A57F4E",
"T  c #9F814B",
"R  c #9D824B",
"E  c #9C824F",
"W  c #9E854D",
"Q  c #9D8350",
"!  c #9E8451",
"~  c #A0834B",
"^  c #A0804F",
"/  c #A2814E",
"(  c #A4804C",
")  c #A5814D",
"_  c #A6824E",
"`  c #A7834F",
"'  c #A1844C",
"]  c #A2854D",
"[  c #A2844E",
"{  c #A18150",
"}  c #A28251",
"|  c #A38352",
" . c #A48350",
".. c #A68250",
"X. c #A78351",
"o. c #A28450",
"O. c #A18651",
"+. c #A28750",
"@. c #A68552",
"#. c #A68655",
"$. c #AB8753",
"%. c #AB8554",
"&. c #A78953",
"*. c #A58A55",
"=. c #A48A57",
"-. c #A58C54",
";. c #A78C55",
":. c #A88B53",
">. c #A98A54",
",. c #AC8854",
"<. c #AD8955",
"1. c #AA8D55",
"2. c #A98E57",
"3. c #AF8C56",
"4. c #AC8F57",
"5. c #AF8958",
"6. c #AC8B58",
"7. c #AF8B59",
"8. c #A88D58",
"9. c #A98E59",
"0. c #AD8C59",
"q. c #AF8E5B",
"w. c #AD8D5C",
"e. c #AE8C5C",
"r. c #AF8D5D",
"t. c #AE8E5D",
"y. c #B38E57",
"u. c #B18D59",
"i. c #B38F5B",
"p. c #B48F58",
"a. c #B48F5A",
"s. c #B18B5C",
"d. c #B08C5C",
"f. c #B28C5D",
"g. c #B28E5C",
"h. c #B08E5E",
"j. c #B38F5F",
"k. c #AD9058",
"l. c #AC9259",
"z. c #AE905A",
"x. c #AD935A",
"c. c #AD925B",
"v. c #AC915C",
"b. c #AE935C",
"n. c #AE935E",
"m. c #AD945C",
"M. c #B0915B",
"N. c #B0935B",
"B. c #B1905D",
"V. c #B2915E",
"C. c #B6915C",
"Z. c #B1945C",
"A. c #B3945D",
"S. c #B2945E",
"D. c #B4955E",
"F. c #B7945E",
"G. c #B5965F",
"H. c #B4975F",
"J. c #B8935C",
"K. c #B8935E",
"L. c #B9945F",
"P. c #AE9461",
"I. c #AF9562",
"U. c #B39161",
"Y. c #B49360",
"T. c #B79162",
"R. c #B69262",
"E. c #B29460",
"W. c #B19661",
"Q. c #B29760",
"!. c #B69562",
"~. c #B79565",
"^. c #B79766",
"/. c #B89261",
"(. c #B99362",
"). c #B99561",
"_. c #BA9560",
"`. c #B89462",
"'. c #B99563",
"]. c #BB9763",
"[. c #B89764",
"{. c #B89666",
"}. c #B99767",
"|. c #BC9665",
" X c #BE9665",
".X c #BC9667",
"XX c #B29961",
"oX c #B29963",
"OX c #B69862",
"+X c #B79963",
"@X c #B59B62",
"#X c #B79A62",
"$X c #B29865",
"%X c #B59C64",
"&X c #BD9861",
"*X c #B99A64",
"=X c #BC9864",
"-X c #B99C64",
";X c #BA9D65",
":X c #B99F66",
">X c #BD9C67",
",X c #BD9768",
"<X c #B99968",
"1X c #BB9969",
"2X c #BC9B68",
"3X c #BE9D68",
"4X c #BC9E68",
"5X c #BD9E68",
"6X c #BF9E69",
"7X c #BE9F69",
"8X c #BC9E6A",
"9X c #BF9E6B",
"0X c #BEA06A",
"qX c #BFA16B",
"wX c #BFA16D",
"eX c #C09B64",
"rX c #C09D67",
"tX c #C39E67",
"yX c #C19B6A",
"uX c #C09C68",
"iX c #C19D69",
"pX c #C19E68",
"aX c #C39E69",
"sX c #C29C6B",
"dX c #C29E6A",
"fX c #C49F68",
"gX c #C49E6D",
"hX c #C79F6E",
"jX c #C59F70",
/* pixels */
"J.p.y.eXfXtX&XaXL.pXrXrXrXrXF.M J.p.y.eXfXtX&XaXL.pXrXrXrXrXF.M ",
"A.D.G.k.v ] 4.H.N.-X4.1.OXS.[ &.A.D.G.k.v ] 4.H.N.-X4.1.OXS.[ &.",
"x.@Xl.:X2.c.Q.H +.G W m.-.%XXXc x.@Xl.:X2.c.Q.H +.G W m.-.%XXXc ",
"m f 0 Z S g # 5 g z X l 8 @ h 4 m f 0 Z S g # 5 g z X l 8 @ h 4 ",
" XhX%.(.sXgXyXY yXjX,XT.s.f.L .X XhX%.(.sXgXyXY yXjX,XT.s.f.L .X",
"0.q.B.[.J 6.U A I h.e.{.U.^.<Xw.0.q.B.[.J 6.U A I h.e.{.U.^.<Xw.",
"O.*.8.W.9.n.v.C oX$XI.P.=.Q E ! O.*.8.W.9.n.v.C oX$XI.P.=.Q E ! ",
"$ o j j V 9 7 + 1 + y r k V y ; $ o j j V 9 7 + 1 + y r k V y ; ",
").=XdX].<.i.iXuXuX3X>X6X9X2X!.@.).=XdX].<.i.iXuXuX3X>X6X9X2X!.@.",
"K.a.C._._.F.3.( ( _ u.` ,.) $.x K.a.C._._.F.3.( ( _ u.` ,.) $.x ",
";X#XZ.:.' ~ ' ' k.N.z.2.R ;.b.+.;X#XZ.:.' ~ ' ' k.N.z.2.R ;.b.+.",
": . e D b q 2 - = w n d u   3 * : . e D b q 2 - = w n d u   3 * ",
"5X>.M.7X*X+XS.T 0XqX4Xo.8XE.wX8X5X>.M.7X*X+XS.T 0XqX4Xo.8XE.wX8X",
"5.5.|./.P ..g.X.K '.`.7.R.j.d.d.5.5.|./.P ..g.X.K '.`.7.R.j.d.d.",
"V./  .Y.~.r.U B 1X}.t.} #.^ | { V./  .Y.~.r.U B 1X}.t.} #.^ | { ",
"< p t % > i N F N a & s , 6 O 6 < p t % > i N F N a & s , 6 O 6 ",
"J.p.y.eXfXtX&XaXL.pXrXrXrXrXF.M J.p.y.eXfXtX&XaXL.pXrXrXrXrXF.M ",
"A.D.G.k.v ] 4.H.N.-X4.1.OXS.[ &.A.D.G.k.v ] 4.H.N.-X4.1.OXS.[ &.",
"x.@Xl.:X2.c.Q.H +.G W m.-.%XXXc x.@Xl.:X2.c.Q.H +.G W m.-.%XXXc ",
"m f 0 Z S g # 5 g z X l 8 @ h 4 m f 0 Z S g # 5 g z X l 8 @ h 4 ",
" XhX%.(.sXgXyXY yXjX,XT.s.f.L .X XhX%.(.sXgXyXY yXjX,XT.s.f.L .X",
"0.q.B.[.J 6.U A I h.e.{.U.^.<Xw.0.q.B.[.J 6.U A I h.e.{.U.^.<Xw.",
"O.*.8.W.9.n.v.C oX$XI.P.=.Q E ! O.*.8.W.9.n.v.C oX$XI.P.=.Q E ! ",
"$ o j j V 9 7 + 1 + y r k V y ; $ o j j V 9 7 + 1 + y r k V y ; ",
").=XdX].<.i.iXuXuX3X>X6X9X2X!.@.).=XdX].<.i.iXuXuX3X>X6X9X2X!.@.",
"K.a.C._._.F.3.( ( _ u.` ,.) $.x K.a.C._._.F.3.( ( _ u.` ,.) $.x ",
";X#XZ.:.' ~ ' ' k.N.z.2.R ;.b.+.;X#XZ.:.' ~ ' ' k.N.z.2.R ;.b.+.",
": . e D b q 2 - = w n d u   3 * : . e D b q 2 - = w n d u   3 * ",
"5X>.M.7X*X+XS.T 0XqX4Xo.8XE.wX8X5X>.M.7X*X+XS.T 0XqX4Xo.8XE.wX8X",
"5.5.|./.P ..g.X.K '.`.7.R.j.d.d.5.5.|./.P ..g.X.K '.`.7.R.j.d.d.",
"V./  .Y.~.r.U B 1X}.t.} #.^ | { V./  .Y.~.r.U B 1X}.t.} #.^ | { ",
"< p t % > i N F N a & s , 6 O 6 < p t % > i N F N a & s , 6 O 6 "
};
