/* XPM */
static char *result[] = {
/* columns rows colors chars-per-pixel */
"32 32 220 2 ",
"   c #6A3C1A",
".  c #6F411D",
"X  c #71441D",
"o  c #694221",
"O  c #6C4121",
"+  c #6C4323",
"@  c #6A4324",
"#  c #6A4326",
"$  c #6C4325",
"%  c #6F4424",
"&  c #6D4625",
"*  c #6D4426",
"=  c #6E4527",
"-  c #6E4529",
";  c #6F462A",
":  c #6E472A",
">  c #734523",
",  c #704525",
"<  c #724727",
"1  c #774925",
"2  c #71482A",
"3  c #724B2C",
"4  c #784A28",
"5  c #7B4D2B",
"6  c #7C4E2A",
"7  c #7D4F2B",
"8  c #794E2E",
"9  c #744D30",
"0  c #784F31",
"q  c #775031",
"w  c #7A5131",
"e  c #795233",
"r  c #7C5131",
"t  c #7E5333",
"y  c #7A5334",
"u  c #7F5434",
"i  c #7D5637",
"p  c #7F5636",
"a  c #7E5738",
"s  c #80522E",
"d  c #805230",
"f  c #825430",
"g  c #805535",
"h  c #845634",
"j  c #82593B",
"k  c #94623D",
"l  c #93663F",
"z  c #98673E",
"x  c #8F6646",
"c  c #8F6849",
"v  c #956743",
"b  c #926A47",
"n  c #9E6A42",
"m  c #986A46",
"M  c #9F6B44",
"N  c #9A6D46",
"B  c #916848",
"V  c #936848",
"C  c #92694B",
"Z  c #916A4B",
"A  c #956A4A",
"S  c #956C4C",
"D  c #956C4E",
"F  c #976E4E",
"G  c #986A48",
"H  c #986B4A",
"J  c #986D4B",
"K  c #9A6C4A",
"L  c #996E4B",
"P  c #9F6F4B",
"I  c #9B6F4C",
"U  c #9C6E4C",
"Y  c #9C6F4E",
"T  c #9F724B",
"R  c #9B704E",
"E  c #9D714E",
"W  c #9C714F",
"Q  c #9F714F",
"!  c #9E724F",
"~  c #976E50",
"^  c #977051",
"/  c #997052",
"(  c #9B7252",
")  c #9D7250",
"_  c #9F7350",
"`  c #9E7351",
"'  c #9C7353",
"]  c #9C7355",
"[  c #9D7454",
"{  c #9F7656",
"}  c #A06F47",
"|  c #A36F47",
" . c #A16F4A",
".. c #A17048",
"X. c #A27149",
"o. c #A1714B",
"O. c #A3724A",
"+. c #A1714D",
"@. c #A0724E",
"#. c #A1734F",
"$. c #A3734F",
"%. c #A6744F",
"&. c #A7764E",
"*. c #A9754D",
"=. c #A9784F",
"-. c #A07250",
";. c #A37551",
":. c #A07553",
">. c #A57551",
",. c #A77550",
"<. c #A77751",
"1. c #A77753",
"2. c #A37655",
"3. c #A27755",
"4. c #A07757",
"5. c #A57755",
"6. c #A97752",
"7. c #A37856",
"8. c #A27A57",
"9. c #A57956",
"0. c #AA7951",
"q. c #A97953",
"w. c #AB7A52",
"e. c #AE7A53",
"r. c #A97955",
"t. c #A87A56",
"y. c #AB7B57",
"u. c #AC7A55",
"i. c #AD7B56",
"p. c #AE7D55",
"a. c #AC7C56",
"s. c #AD7D57",
"d. c #AE7C57",
"f. c #AF7E56",
"g. c #A27959",
"h. c #A37A5A",
"j. c #A67958",
"k. c #A67B58",
"l. c #A77B58",
"z. c #A67D5D",
"x. c #A87D5B",
"c. c #A77E60",
"v. c #AB805E",
"b. c #B4835B",
"n. c #B3835D",
"m. c #B3835F",
"M. c #B5845C",
"N. c #B6855D",
"B. c #B8845C",
"V. c #B8875E",
"C. c #BA865F",
"Z. c #AD8260",
"A. c #AC8363",
"S. c #AD8464",
"D. c #AF8666",
"F. c #B18562",
"G. c #B78560",
"H. c #B48760",
"J. c #B68660",
"K. c #B78763",
"L. c #B38764",
"P. c #B38665",
"I. c #B08767",
"U. c #B88661",
"Y. c #BB8760",
"T. c #B98762",
"R. c #B78A63",
"E. c #B18966",
"W. c #B48865",
"Q. c #B68864",
"!. c #B48967",
"~. c #B68A67",
"^. c #B98860",
"/. c #BB8A61",
"(. c #B88862",
"). c #B98963",
"_. c #BA8863",
"`. c #BC8860",
"'. c #BC8861",
"]. c #BC8B63",
"[. c #BA8A64",
"{. c #BA8A66",
"}. c #BC8A65",
"|. c #BF8B64",
" X c #BE8D65",
".X c #BD8D67",
"XX c #BE8C67",
"oX c #B38A6A",
"OX c #B68968",
"+X c #B6896A",
"@X c #B78A6B",
"#X c #B48C69",
"$X c #B38A6C",
"%X c #B68D6D",
"&X c #B68D6F",
"*X c #B88B6A",
"=X c #B88C69",
"-X c #BA8E6B",
";X c #BD8D69",
":X c #BF8D68",
">X c #BE8E68",
",X c #BF8F69",
"<X c #BA8D6C",
"1X c #BB8E6D",
"2X c #B88F6F",
"3X c #BB906E",
"4X c #BE926F",
"5X c #BF9370",
"6X c #BF9271",
"7X c #C28E67",
"8X c #C08E69",
"9X c #C18F6A",
"0X c #C0906A",
"qX c #C1916B",
"wX c #C3926A",
"eX c #C5916A",
"rX c #C6926A",
"tX c #C3936D",
"yX c #C7936C",
"uX c #C6956D",
/* pixels */
"/.=.M.wX X9X8XXXT.}.:XuX XwXV.z /.=.M.wX X9X8XXXT.}.:XuX XwXV.z ",
"F.~.l.9.H H j.@X+X*Xj.2.L.W.E _ F.~.l.9.H H j.@X+X*Xj.2.L.W.E _ ",
"8.#XA.2X4.&Xc.D / ~ ] h.g.%XE.b 8.#XA.2X4.&Xc.D / ~ ] h.g.%XE.b ",
"N 6 s m v 5 4 > d h   7 1 . f X N 6 s m v 5 4 > d h   7 1 . f X ",
"B.rX| Y.eXyX'.M |.7XyXC.e.*.n `.B.rX| Y.eXyX'.M |.7XyXC.e.*.n `.",
"a.n.;X1.+.y.P P $.>.r.K.m.{.[.<.a.n.;X1.+.y.P P $.>.r.K.m.{.[.<.",
"F g.[ oXz.[ g.C $XI.D.S.{ ( F ' F g.[ oXz.[ g.C $XI.D.S.{ ( F ' ",
"< O u t V g % , , , t 8 t A r , < O u t V g % , , , t 8 t A r , ",
"(.,X0XJ.s.q..X>XqX,X0X[.tX.X).o.(.,X0XJ.s.q..X>XqX,X0X[.tX.X).o.",
"U.,.T.T.N.^.f.X.} ..w.&.,. .%.k U.,.T.T.N.^.f.X.} ..w.&.,. .%.k ",
"3X!.v.:.` J R L k.3.x.` ) W Z.7.3X!.v.:.` J R L k.3.x.` ) W Z.7.",
": : q Z ^ e 3 & o y c a i @ 9 # : : q Z ^ e 3 & o y c a i @ 9 # ",
"1XY P.6X=X=XF.I 4X5X-X! <XP.6XOX1XY P.6X=X=XF.I 4X5X-X! <XP.6XOX",
"u.6.XXG.....p.O...b.].0._.6.d.i.u.6.XXG.....p.O...b.].0._.6.d.i.",
"5.-.G t.Q.;.T l R.H.t.#.@.K U Q 5.-.G t.Q.;.T l R.H.t.#.@.K U Q ",
"- 0 j $ + p x S B p + w * 2 = ; - 0 j $ + p x S B p + w * 2 = ; ",
"/.=.M.wX X9X8XXXT.}.:XuX XwXV.z /.=.M.wX X9X8XXXT.}.:XuX XwXV.z ",
"F.~.l.9.H H j.@X+X*Xj.2.L.W.E _ F.~.l.9.H H j.@X+X*Xj.2.L.W.E _ ",
"8.#XA.2X4.&Xc.D / ~ ] h.g.%XE.b 8.#XA.2X4.&Xc.D / ~ ] h.g.%XE.b ",
"N 6 s m v 5 4 > d h   7 1 . f X N 6 s m v 5 4 > d h   7 1 . f X ",
"B.rX| Y.eXyX'.M |.7XyXC.e.*.n `.B.rX| Y.eXyX'.M |.7XyXC.e.*.n `.",
"a.n.;X1.+.y.P P $.>.r.K.m.{.[.<.a.n.;X1.+.y.P P $.>.r.K.m.{.[.<.",
"F g.[ oXz.[ g.C $XI.D.S.{ ( F ' F g.[ oXz.[ g.C $XI.D.S.{ ( F ' ",
"< O u t V g % , , , t 8 t A r , < O u t V g % , , , t 8 t A r , ",
"(.,X0XJ.s.q..X>XqX,X0X[.tX.X).o.(.,X0XJ.s.q..X>XqX,X0X[.tX.X).o.",
"U.,.T.T.N.^.f.X.} ..w.&.,. .%.k U.,.T.T.N.^.f.X.} ..w.&.,. .%.k ",
"3X!.v.:.` J R L k.3.x.` ) W Z.7.3X!.v.:.` J R L k.3.x.` ) W Z.7.",
": : q Z ^ e 3 & o y c a i @ 9 # : : q Z ^ e 3 & o y c a i @ 9 # ",
"1XY P.6X=X=XF.I 4X5X-X! <XP.6XOX1XY P.6X=X=XF.I 4X5X-X! <XP.6XOX",
"u.6.XXG.....p.O...b.].0._.6.d.i.u.6.XXG.....p.O...b.].0._.6.d.i.",
"5.-.G t.Q.;.T l R.H.t.#.@.K U Q 5.-.G t.Q.;.T l R.H.t.#.@.K U Q ",
"- 0 j $ + p x S B p + w * 2 = ; - 0 j $ + p x S B p + w * 2 = ; "
};
