/* XPM */
static char *result[] = {
/* columns rows colors chars-per-pixel */
"80 80 94 2 ",
"   c #372A17",
".  c #3B2E1B",
"X  c #3D301D",
"o  c #423522",
"O  c #664B16",
"+  c #694B16",
"@  c #6B4E1C",
"#  c #6E511D",
"$  c #71511E",
"%  c #55452E",
"&  c #6E5220",
"*  c #715423",
"=  c #7E5E2B",
"-  c #6D5736",
";  c #7E612D",
":  c #7E6230",
">  c #947E24",
",  c #937F28",
"<  c #826432",
"1  c #8F713D",
"2  c #91713B",
"3  c #937442",
"4  c #987A44",
"5  c #967748",
"6  c #9D7D49",
"7  c #9F7F50",
"8  c #A17F4A",
"9  c #968126",
"0  c #988226",
"q  c #96822B",
"w  c #9C862C",
"e  c #9E892E",
"r  c #9B8730",
"t  c #9D8932",
"y  c #A0882E",
"u  c #A18B31",
"i  c #FF8F00",
"p  c #FFD800",
"a  c #9E824E",
"s  c #9E8252",
"d  c #A2834D",
"f  c #A38552",
"g  c #AA8652",
"h  c #A78A57",
"j  c #AC8B55",
"k  c #A58959",
"l  c #AD8D5A",
"z  c #B18F5A",
"x  c #AE915C",
"c  c #B09057",
"v  c #B3935D",
"b  c #B9965E",
"n  c #B7A345",
"m  c #BAA446",
"M  c #BBA945",
"N  c #BCA64A",
"B  c #BEA94B",
"V  c #BFAB54",
"C  c #AE8F60",
"Z  c #AF9363",
"A  c #B39563",
"S  c #B99662",
"D  c #B79964",
"F  c #BC9B65",
"G  c #BD9E68",
"H  c #BFA16C",
"J  c #C2AB4E",
"K  c #C3B14D",
"L  c #C2AD52",
"P  c #C6B153",
"I  c #C9B355",
"U  c #CAB45B",
"Y  c #CEB95C",
"T  c #D3BD5E",
"R  c #C19E69",
"E  c #C0A067",
"W  c #C2A16B",
"Q  c #CEBA61",
"!  c #D3BD62",
"~  c #D3C15F",
"^  c #D6C263",
"/  c #D9C464",
"(  c #DDCB67",
")  c #DAC569",
"_  c #DECA6A",
"`  c #E2CD6D",
"'  c #E3CE72",
"]  c #E6D273",
"[  c #E9D477",
"{  c #EBD679",
"}  c #EFD97B",
"|  c #F4E280",
" . c #FFFF97",
".. c white",
/* pixels */
"v c c G R R F R b G G G F H v 2 v z c G E E F R v E G F G G v 2 v c c F E E F E b R G G G G v 2 b c c H R R F R b F R G G G v 2 v c c G E E F R v R F R G G v 1 ",
"v v v c 2 7 j b c F l j D v d g v v v z 2 d l b c F c j D A d h v b v c 2 d j b z F j j D v d h v v b c 2 7 j b c F l j D v d j v v b j 2 d c v c F c j A A d j ",
"x b c G j z A 8 g 6 d v h D D 1 l S z F j l A 6 g 6 d v g D S 1 x D c H j x D 6 f 4 f z h F D 1 x b j H j z A 8 h 4 d c h D D 1 l S z S j l A 6 g a a c j D S 3 ",
"2 < ; 3 3 < @ $ ; < + < * # ; # 2 = < 3 4 < + $ ; < + < * @ < # 1 ; ; 2 3 < + $ < < + < * + : # 2 ; ; 1 3 < @ $ < < + < * + < # 2 < < 3 4 < @ $ = < + < * @ : @ ",
"S W g S R R R 8 G R D v c l 6 D S R g S R R R d G W D A l l 7 D F R g S R R R 8 G W F A l l 6 D D W g S R R R 8 G R F A x l 6 D S R g S R R R 8 G W F A l l 6 F ",
"j z z S 8 l 8 3 8 z l F v D F l j z b S 8 j d 2 d l l S C D D l j z z S 8 j 8 4 6 l l D v A F x j v z D 8 j 8 3 8 z l D c F F z j z S S 8 z 8 4 d l l S v S D l ",
"g h l A l C C p i D Z Z k s s s f k C A z C x 5 A D Z Z j s s s k g l A l C C p i D Z Z k f a s g h j A C C C 5 D D Z Z k s 7 s 7 k C A l C l p i A Z Z k s s s ",
"@ @ < < 3 = *  ...@ : : < 3 : @ @ @ < < 3 = $ @ & @ : : < 3 : @ @ @ < < 3 = *  ...@ : : < 3 ; # @ @ < < 3 = * @ & @ : : < 3 : @ @ @ < < 3 = *  ...@ : : < 3 : @ ",
"b R R D j z R 6 - G F H H b b d S F R F j z R F G V H H E b v h S S R S g v R 8 - R F R H b b d b R E F g c E G G D F H H b b g b F R R g z R 7 - H H H E F v d ",
"b c c b b b j 5 % d c d g d j 2 b c c b b b j d d d j d j d h 2 b z v b b v c 3 % d c d g a j 2 c c v v b b j d d f c d d d g 2 b c c b b b j 5 % d j d g d h 1 ",
"F b v h d d f 7 o x x x a h x f F D c h d 8 d a l x x x a j x s F S z j d a f 7 o x x j a x x s G D c j d d a a l x x x a h x f D D c h d d d 8 o c x c a j x k ",
"# + = 4 3 = & 6 % = 3 : : O # @ # + ; 4 2 < # # O ; 1 < ; O & # @ + < 4 3 = # 7 % ; 3 < ; O * # $ + < 4 2 ; # # @ ; 3 : : O # # # + < 4 2 < # 6 % ; 1 < ; O & @ ",
"G g c W F D v 5 % W H d H v H H G g v G F S A 6 H H G d G v H G R g c G F F v 5 % H G d G v H G R g c W F A v d H H H d H v H H G g v E F D A 3 % H H d G v H G ",
"j j F v 6 f z - X D v l v x x c l j S A 6 f l 7 6 D v j A l l l j j D v 6 d l - X v A l A v l l g j D v 6 f z f 6 A v l v x h c j l A A d d l - . v v c A x l l ",
"v 8 f A S l s 7 . D l s k s a a v 8 d A A l 7 3 G D x f k a f d A d f A S l 7 7 X D x s f s f s Z d d A S C 6 3 F D x s h a a s A 6 g v A l s 7 X D x a k a f s ",
"@ < ; @ @ : 3 -   < & : @ & @ * @ < < @ # < 3 5 3 < @ < & & @ * @ < = @ & : 3 -   : & < # & @ & @ < ; # @ : 3 5 3 < & : # * @ * # : ; @ @ < 3 -   : # < & & @ & ",
"v c c E E E F E b G G G G G v 2 v c c G E E b E b R G G G G v 2 v c c F E W S R v H G H F H v 2 v c c R R R F R v E G G G G v 2 v z c F E E D E b R G G G G v 1 ",
"v A v j 2 d j b c S l j D v d h v b v c 2 d c b z D j j D v d h v v b j 2 d j S c D c j b v d h v v v c 2 7 j b c F l j D v d j v v v z 2 d c v c F j j S A d h ",
"v D z G j v D 6 d 6 f x h F D 1 x D c H j l A a d 6 f z j D D 1 v D c F l c A 6 g 6 d x h D A 2 c D c G j z A 8 g 6 d v j D A 1 l S z R l l v 6 d a d v j D S 2 ",
"1 = = 3 5 ; + $ < < + < * + < # 2 ; ; 2 4 < + # < < + < * + < # 2 ; < 3 3 < @ $ ; < + < * # < $ 2 ; ; 3 3 < @ $ ; < + < * @ < # 2 < = 3 4 < @ $ ; < + < * @ : # ",
"S R g S R R R 8 G W F A z l 6 D S R g S R R R 8 G W F A l c a D S R g S R R R 8 G W F v x x 6 D D W g S R R R 8 G W D A j x 6 D S R g S R R G d G W D A l l 7 D ",
"j z z S 8 j 8 4 6 Z l S v A F x z z z S 8 j 8 4 a l l D v A D x c z z S 6 k 8 4 d j l S A D F l z z C S 8 j 8 3 8 z l D v D F z l z z S 8 j 8 4 8 z l S C D D l ",
"k g C Z l C z 5 A D Z Z k s a s 7 l C A l C C 3 D Z A Z k s a s f k l A C C C 3 D D A Z k s a s f g l A z C C 5 S D Z Z k s s s 7 l C A l C x 3 A D Z Z j s s s ",
"@ @ < < 3 = * @ & @ : : < 3 ; # @ @ < < 3 = * @ & @ : : < 3 ; @ @ @ < < 3 = * @ & @ : ; : 3 ; # @ @ < < 3 = * @ & @ : : < 3 : @ @ @ < < 3 = $ # & # : : < 3 : @ ",
"S S R S g v E F R b R R H b b d S S R S j v R F R b R R H b b g S S R b j z R R H F F H H b v d b R R b j c R G D G H H F V A d b F R R g z R F G V H H E b v h ",
"b z b b b v c d d d c d g a j 2 b z v b b v c d d d c d g a g 2 b v z b b b j d d a c d j d c 1 b c c b b c c d a g c d g d g 2 b c c b b b c d d d j a j d h 2 ",
"F S z j a d d s x v c j a x Z s F b z j d a d s x v c h a x x f S S v h d d d d x x x l a j c a F S c h d d d s l x x x a h x f D D c h d 8 d d l x v x a j x s ",
"# + = 4 3 ; # # O ; 1 < ; O & # @ + < 4 2 ; & # @ ; 1 < : O & @ # + < 4 2 ; $ + O = 3 < ; O # # $ + < 4 2 < $ @ O ; 3 : ; O & @ # + < 4 2 < # + O ; 1 < ; O & # ",
"G j c R F D v 6 H H G d H v W G R h z G F D v 6 H H G d H v H G G j c G F b v a R W G f F A H G G h c E D D v d R W G f H v H G G g z G F D A 6 H H G d G v H G ",
"j j D A 8 d l d a H A l A x l l j g D v 8 d l d a v A l A x l l j j F v a d c g 7 A A l A v l j g j F v 8 f z f 6 A A j A x l x j l D A 8 d l 7 6 D v j A l l l ",
"v 7 f A A l d 3 v D x s h 6 f s A 8 f v A l d 3 H D x f h s f s Z 8 f A A l a 1 D D C f h 6 f s Z 8 d A A l 7 3 D D C f h s f a z d f A A l 7 3 G D x f k a f s ",
"@ < = @ # < 3 5 1 : & : @ * @ & # < < @ # < 3 5 1 ; @ : @ & @ & @ : : @ & : 3 4 3 < @ < @ & @ * @ < < @ @ : 3 5 3 < @ < @ & @ & @ < < @ @ < 3 5 3 < @ < & * O * ",
"v v c G E W b R b H G G H H v 2 v c c F W E F R v H G H H H v 2 v v c G E E b E b R G G G G v 2 b c c H R R F R v R G G G H v 1 v c z R E E F E b H G G F G v 2 ",
"v v v j 2 d j b c F j x b v d h v v b l 2 d j v c D c j b v d h v v v l 2 d c b z D j j D v d h v v v c 2 8 c b c D l j b v d j v v b j 2 d j b c F j j D A d h ",
"c D c F l v S 6 d a d x j D A 2 v D j F j v S 8 g a d v h D A 2 v D c G j x D 6 d 6 f z j D D 1 x D c H j C A 6 g 6 d v j D A 1 l A z R j l A 6 d a d v j D S 1 ",
"2 < < 3 3 = @ * ; < + < * O < # 2 ; < 3 4 = @ $ = < + < * + < $ 1 = = 3 4 = @ $ < < + < * + < # 1 ; ; 2 3 < @ $ ; < + < # @ < # 2 < = 3 4 < + $ < < O < * @ : # ",
"b W g b R R R 8 G W D v x c 6 D S R g S R R R 7 F W D v x x 6 D S R g S R R R 8 G W D A l z 6 D D W g S R R R 8 G W F A x x 6 D S R g S R R R d G W D A l l 7 F ",
"j z v S 8 g 8 3 8 c z D x H D l c z z S 6 j 8 3 d j z D x D D l z z z S 8 j 8 4 6 l C D v A F x j z z S 8 l 8 3 8 l l S v D F j l z z S 8 j 8 4 6 z l S z D D l ",
"g k l A l A C 3 D D A Z k s a a f k l A C C Z 3 Z D A A x s s a 7 l l A C C C 3 D D Z Z k s a s g g j D l C C 5 D D Z Z k s s f 7 l C A l C x 3 S D Z Z k s s s ",
"@ @ < < 5 - * @ & @ : = : 3 : # @ @ < < 3 : & @ & @ : = : 3 : # @ @ < < 3 = * @ & @ : : < 3 ; # @ @ < < 3 = * @ & @ : : < 3 : @ @ @ < < 3 = $ # & @ : : < 3 : @ ",
"S S R b j z R R F H b E E F b f S R R R g z R R F H F E F F v d S S R R g v R b R R b E H b b d b R E F g c E G D G F H H H v d b F R S g v R F V H H E R F v d ",
"b z c b b b j d a a c d j d g 2 v z c b b b j d a a c d j d j 2 b z v v b v c d d d c d g a j 2 b c v v b b j d d f c d d d g 2 b c v b b b j d d d c d g d h 1 ",
"S S v h d d d d x x l l a j x a S b v h d d d d x x l l a g x f F b z g d a d s x v x j a x x f D b c j d d d a l x x x a h c f F D c h d d d a l x x h a j x k ",
"# + < 4 2 ; $ + @ ; 3 < ; O # # $ + ; 4 2 ; # @ @ ; 3 < ; O # # @ + < 4 3 ; & # # ; 1 < : O & @ # + ; 6 2 ; # @ @ = 3 : ; O # # # + ; 4 2 ; # # O ; 1 < ; O & # ",
"G j c G F F v a R W G f G v H G G j c G b F v a R W G f G v H H R h c G F D v 6 H H G d H v H G G g c W F S v a H H H d H v H H G g v G F A A 6 H H G d G v H G ",
"j j F v a d c d 7 A A l A C l l j j F v a d c d 6 D A l v x l c j g S A d d l d a v A l A x l l j j F v 8 f l g 6 D A j v x j c j l S A 8 d l 7 6 D D j A l l l ",
"l f f A S l a 2 D D C f h 6 f s Z 8 d A A x a 2 D D l s f s s s v d f A A l d 3 H D x f h s f s Z 8 f A A l 7 3 F D x s k a s s v 8 d A A x 7 3 G D l f k a f a ",
"@ : : @ & : 3 5 3 < @ < @ * @ * @ : < @ # : 3 5 3 < @ < & * # & $ < = @ @ < 3 5 1 ; @ : @ & @ & @ < ; @ @ : 3 3 3 < & : @ * # * @ < < @ @ < 3 5 3 < @ < & * O * ",
"v v c F R R F E b R G R G G v 2 v v c G E R F R v E G G G G v 2 v c c G W E D R b H G G F H v 2 v c c H R R F R v R G G H H v 1 b c c F E R F R v E G G G G v 2 ",
"v A b c 1 8 j v v D l j D v d j v v b j 2 d c v c F j j A A d j v v b j 2 d j S c F j x D v d h v v v c 2 7 c b c F j j b v d g v z b l 2 d c v c F j j A A d h ",
"c v l G l z S 6 d 6 d c j D A 1 l A z R j l v 6 g a d v g D S 1 v D j F j c S 6 d a d x j D D 1 x b c G j z A 8 d 6 d v h D D 1 l A z F j l v 6 g 6 d v j D S 1 ",
"2 = < 3 3 < @ $ < < + < * @ < # 2 < = 3 4 < @ $ = < + < * @ < * 2 ; < 3 4 < @ $ ; < + < * + : # 1 < = 3 3 < @ $ < < + < * # ; # 2 < < 3 4 < @ $ ; < @ < * @ : * ",
"F R g S R R R 8 G R F v c l 6 D S R g S R R R d G W F A l l 6 D S W g b R R R 8 G W D v x x 4 F S W g S R R R 8 G W F A x l 6 D S R g S R R R 8 G W F A l l 6 D ",
"j z z D 8 j 8 3 8 z l D v D F l l z z S 8 j 8 3 d l l D v S D l j z z S 8 k 8 3 8 c z S v H D l j z C D 8 j 8 3 8 l j F c F F l l z z S 8 j 8 4 8 l l D v S D l ",
"g g l A C C C 5 D D Z Z k s s s 7 l l A l C x 3 A A Z Z k s s s g k l A C C C 3 Z D A Z h s a a g g l A l C C 5 D D Z Z k s 7 s f l C A l C x 3 A A Z Z k s s s ",
"@ @ < < 3 = * @ & @ : : < 3 : @ @ @ < < 3 < $ # & @ : : < 3 : @ @ @ < < 3 : * @ & @ : : : 3 : # @ @ < < 3 = * @ & @ : : < 3 : @ @ @ < < 3 = $ # & # : : < 3 : @ ",
"b R W b j c R G G G H F H b b g b F R b j z R F F V H H R D v g S S R S g v R G H b H E E F v d b R E F g c R G G G H H H V A d b F R b j z R F G V H H E b v h ",
"b c c b b b j d d s c d g d g 2 b c v b b b j d a d c d g d h 2 b z v b b b j d a a j d g d j 2 c c v v b b j d 6 f j d d d g 2 b c v b b b j d d d j d j d h 2 ",
"F D c h d d d s l x x x a h x a F D x j d 8 d a l x x x a j x f F S v j d d d d x x x l a j x f F D v j d d f a l x x x a h v f F D x j d d d a l x x x a j x f ",
"$ + < 4 2 = # @ O ; 3 : : O # # # + ; 4 2 < # # O ; 1 < ; O * @ # + = 4 2 ; $ + @ ; 3 : ; O # # $ + ; 4 2 ; # # @ ; 3 : ; O & @ # + = 4 2 < # @ O ; 1 < ; O & @ ",
"F g v H D D v d H H G d H v H H G j l R F S A 6 H H G d D A W G G j c G F D v a R R G f G A G G R g v H D D v 8 G W G f H v H G G g x R F D A 6 H H G d G v H G ",
"g j D v 8 f z f 6 D A l v x x h j j D A 6 f l 7 6 D b j A l l l j j F v a d c g 7 A S l A x l l g j D v 8 f z f 6 A A j A x l l j j D A 8 d l 7 6 D A j A x l l ",
"v d d v A l 6 3 F D x s h a a a v 8 d A A l 7 3 G D x f k 7 f f C d f A A l a 1 D D C s g 6 f s A d d v S l 7 3 D D C f h s f a A 8 f S S l 7 3 G D x d f s f a ",
"@ ; < # @ : 3 5 3 < & : @ * # * @ < < @ # < 3 5 3 : @ < & & @ * @ : < @ @ : 3 4 3 < @ < & & @ * @ ; < # @ : 3 5 3 < @ < @ & @ * @ < : @ @ : 3 5 3 < @ < & & @ * ",
"B n K I M M ( K J n K K K I M M J M K K M M ( K K M K K K Y M M J n K K M M ` K K M K K J I M M M M K I M M ( K M M K K K I M M M M K I M M ( K m m K K K I M M ",
"^ ^ ` ( ` ~ } ( ` ` ~ ] ` ~ ~ ` ~ ~ ` ` ` Y } ` ` ~ ~ ] ( ~ ~ ( / ! ` ` ( ~ } ( ( / ( [ _ T ~ ` ^ ~ ` ( ` ~ } ( ` / / ] ` ~ ^ _ ^ ~ ` ( ` ~ } ( ` ` / ] ` ~ ~ ` ",
"I P P Y ~ n ] ^ ! U U Y K K K I I K I Y ! J ' ! T Y I Y P I K I I J I U ~ n ` / Y Y I Y I U L I I K P Y ~ n ] ^ T U I T K I P P I P P Y ~ n ] ^ ! U I T K I L I ",
"0 0 w e 9 9 M u y y , > 0 J y > 0 0 w e > > m u e w e 9 9 M u 0 y > y y 0 9 n y e w e 0 , m y > w 9 w e 9 9 M u y y y > 0 m y 9 0 0 w e 9 9 M u y y , > 0 M y 9 ",
"J J J L B B V B U J J N J ` L J B M N J L N L J U L L J M ' P M J m N L J J L L I B J N N ` L N J J J L B B V B U J J N N ' L J J J J L B B V B U J J N N ` L J ",
") ! Y ! [ _ Y ( ` ' / / U } ` ` _ ) ! ! [ _ Q ! ` ' ! ! Y } ' _ ' ) ! ! ] ` ! ! ` ] ^ ) Y } ' ' ` ! Q ! [ _ Q ( ' ' ! ) Y } ` ` ) ! Q ! [ _ Y ( ' ' / / Y } ` ` ",
"U Q U U Q ! Q I I U L U J ' ! ! U ! U U Y ! Q U J U L U N ' ! ! U ! L U Y ! Y I B U L I N ' ! ! L ! U I Q ! Y I L U L I N ' ! ! I Q U U Q ! Q I I U L U J ' ! ! ",
"y > > J y e r e , > , , > J y y e > > J y y y y , > , y , J r y , , > J y y y y w 9 , y , J y y y > > L y e r e , > , y > L y y y > > J y e r e , > , , > J y y ",
"L J m ` I m J I J I I K J J n I J J m ` I n J P J J I J J J m I L J N ` K J J K J J I K m J m I J J J ` I m J I J I I K N J n I L J m ` I m J I J K I P J J n I ",
"` T T [ ` ` ` T T ~ / / ' ` T T ` T T } ` ` ` T / / / ! ` ` T T / T T } ` ` ] T T ` ! / ` ` / ^ ) T T [ ` ` ` T T ~ / / ' ` ~ T ` T T [ ` ` ` T T / / / ' ` T T ",
"I U N ` ! ! P L P I I T I L U Q J I J ` ! ! L U P U T ! I I I T P I N ' T T L L P P U T I L U U P U N ` ^ ! L P L I I T P L I Y I U J ` ! ! L I L I I T I L U Q ",
"y , > m e e t e , > y N 0 > , , y , > n y y e w , > y N > > > > t q q m y w y y y > y N 0 > 0 9 y , > m w e t e y > y N 9 9 q 9 y , > n w e u y y > y N 0 > , , ",
"J J U N L m L U U J N ' L L N N J P L J L N L U U L m ' I J N N N L P N V m L I I J N ' P V m N J J U N L n P U I J b ` P J N N N I U N L n L I I L n ' L V N N ",
"' ! ! ! ' ' [ Q ! ` L | ' Q ! ' ` ! ! ! ' ' [ Q ! ! Q | ` ! ! ' ' ! ^ ^ ' ' [ Q ! / U { ' ! ! ' ' ! ! ! ' ' [ U ! ) L | ` T ! ] ' T ! ! ' ' [ Q ! ! U | ` ! ! ' ",
"L Y Q Q U P L U L Q N ' ) ! Q Q L U Y ! Q L L Q L Q V ' ) ! T ! V Y Q Q Y L L U V Q N [ ) ! Q Q L Q Q Q U U L U L Q N ' ) Q Q Q L Q Q Q U U L U I Q N ' ) ! Q Q ",
", y y , , q t , , y > L , t t , q r t > , , t , , , , L , , y > q r t , q q r , , r > L q r t , , y y , , q r , , y , L q t t q , y r > , , r , , y , V , t r , "
};
